<?xml version="1.0" encoding="UTF-8"?>
<svg version="1.1" xmlns="http://www.w3.org/2000/svg" width="225" height="225">
<path d="M0 0 C74.25 0 148.5 0 225 0 C225 74.25 225 148.5 225 225 C150.75 225 76.5 225 0 225 C0 150.75 0 76.5 0 0 Z " fill="#25B899" transform="translate(0,0)"/>
<path d="M0 0 C36.96 0 73.92 0 112 0 C112 74.25 112 148.5 112 225 C75.04 225 38.08 225 0 225 C3.081592 223.459204 6.14979105 222.10493014 9.32958984 220.79321289 C40.00061778 207.96175515 61.97034226 184.41719463 74.68359375 154.03125 C82.42219661 134.81009309 84.1253475 116.17732005 84.31640625 95.6484375 C84.33701077 93.77942482 84.35800808 91.91041643 84.37937927 90.04141235 C84.43423905 85.15235905 84.48380556 80.26326625 84.53222656 75.37414551 C84.58270729 70.37309303 84.63825383 65.37209702 84.69335938 60.37109375 C84.8004986 50.58077755 84.90203941 40.79041205 85 31 C83.77852768 31.00455452 83.77852768 31.00455452 82.53237915 31.00920105 C81.45902313 31.01156265 80.38566711 31.01392426 79.27978516 31.01635742 C77.68706284 31.02091194 77.68706284 31.02091194 76.06216431 31.02555847 C48.66866539 30.79691758 21.73943596 21.09941041 1.4765625 2.53125 C0 1 0 1 0 0 Z " fill="#FEFEFE" transform="translate(113,0)"/>
<path d="M0 0 C36.96 0 73.92 0 112 0 C95.38221316 19.38741798 67.04902093 29.04695622 42 31 C39.36226541 31.04098407 36.72395038 31.05360502 34.0859375 31.0390625 C33.40039795 31.03624268 32.7148584 31.03342285 32.00854492 31.03051758 C30.33901482 31.02323977 28.66950259 31.0120339 27 31 C27.06169721 41.62426037 27.13914255 52.2482849 27.23571491 62.8722887 C27.28010215 67.80750146 27.31942422 72.74263764 27.34643555 77.67797852 C27.37278905 82.45682984 27.41340674 87.2353812 27.46318626 92.01404381 C27.47964163 93.82088119 27.49128659 95.62777017 27.49761391 97.4346714 C27.55853342 113.2589983 28.91386353 129.01004092 33.6875 144.1875 C33.94168701 145.01008301 34.19587402 145.83266602 34.45776367 146.68017578 C37.11560718 154.91384244 40.69974564 162.50605857 45 170 C45.52400391 170.91604004 45.52400391 170.91604004 46.05859375 171.85058594 C51.34601046 180.91957082 57.59406502 188.58373596 65 196 C65.85207031 196.86367187 66.70414062 197.72734375 67.58203125 198.6171875 C78.37897593 209.0094491 90.99076263 215.99263543 104.76953125 221.625 C108 223 108 223 111 225 C74.37 225 37.74 225 0 225 C0 150.75 0 76.5 0 0 Z " fill="#FEFEFE" transform="translate(0,0)"/>
<path d="M0 0 C3.63 1.98 7.26 3.96 11 6 C25.58075091 13.68402424 41.3117957 18.6990882 57.69921875 20.67578125 C60 21 60 21 62 22 C62.09395898 29.59059648 62.16438722 37.18113049 62.20724869 44.77218151 C62.22785218 48.29958771 62.25564827 51.82658745 62.30175781 55.35375977 C62.55752293 75.47678545 62.46559571 95.62943342 54.3125 114.4375 C53.97001221 115.25476563 53.62752441 116.07203125 53.2746582 116.9140625 C43.28913669 139.93429215 24.85560935 158.61108666 2 169 C1.34 169 0.68 169 0 169 C0 113.23 0 57.46 0 0 Z " fill="#14A085" transform="translate(113,31)"/>
<path d="M0 0 C0.86625 0.804375 1.7325 1.60875 2.625 2.4375 C15.81112837 13.70564606 31.48486701 21.10925246 48 26 C49.07540039 26.3187207 50.15080078 26.63744141 51.25878906 26.96582031 C57.87827997 28.60632028 64.7255389 28.99814756 71.5 29.625 C72.90890747 29.75986091 74.3177623 29.895273 75.7265625 30.03125 C79.15045779 30.36052608 82.5750062 30.68232864 86 31 C86.04660296 41.69316023 86.08200997 52.38629579 86.10362434 63.07953739 C86.11400481 68.0463072 86.12805755 73.01300687 86.15087891 77.97973633 C86.17281399 82.7843487 86.1846116 87.58889415 86.18975449 92.39355278 C86.19341353 94.21490976 86.20055713 96.03626361 86.21146011 97.85759163 C86.42921666 135.78617705 74.97908141 169.63021718 48.375 197.125 C35.69380172 209.68510682 18.90662374 221.44191089 1 224 C1 216.08 1 208.16 1 200 C3.2275 198.865625 5.455 197.73125 7.75 196.5625 C28.56887208 185.60555687 43.45684151 169.40234667 53 148 C53.44085938 147.04222656 53.88171875 146.08445313 54.3359375 145.09765625 C62.56459183 125.72291559 62.64620834 104.97673167 62.73822021 84.28076172 C62.7581471 80.73976408 62.80006943 77.19902358 62.83984375 73.65820312 C62.9141016 66.77223473 62.9650146 59.88627756 63 53 C62.03755371 52.8860791 61.07510742 52.7721582 60.08349609 52.65478516 C52.42615567 51.69987423 45.04499752 50.5616978 37.625 48.375 C36.74360352 48.11847656 35.86220703 47.86195312 34.95410156 47.59765625 C27.00347385 45.18126093 19.27218507 42.13030448 11.99584961 38.09033203 C9.95568741 36.93589133 9.95568741 36.93589133 7.53735352 35.93701172 C4.76038773 34.53285131 2.99755319 33.400148 1 31 C-0.1080091 26.02573023 0.14800773 21.17685258 0.4375 16.125 C0.48269101 14.75533973 0.52374768 13.38553642 0.56054688 12.015625 C0.66646143 8.67343228 0.81424272 5.33855042 1 2 C0.34 1.67 -0.32 1.34 -1 1 C-0.67 0.67 -0.34 0.34 0 0 Z " fill="#26B99A" transform="translate(112,0)"/>
<path d="M0 0 C0.66 0 1.32 0 2 0 C2.24847658 4.01920424 2.42917736 8.03540822 2.54931641 12.06054688 C2.59940736 13.42689885 2.6675146 14.7927198 2.75439453 16.15722656 C3.02969245 20.59438126 3.07530511 24.67235118 2 29 C-0.90175272 32.09378309 -4.09869828 33.45691609 -8 35 C-9.32577257 35.69559449 -10.64555951 36.40280441 -11.95703125 37.125 C-26.23243625 44.20859426 -43.8637783 51 -60 51 C-59.9149182 58.58139261 -59.81978581 66.16260579 -59.71247292 73.74371529 C-59.66292341 77.26546566 -59.616597 80.78719185 -59.578125 84.30908203 C-59.5335536 88.37550091 -59.47408524 92.4415921 -59.4140625 96.5078125 C-59.40251129 97.74798126 -59.39096008 98.98815002 -59.37905884 100.26589966 C-59.1938771 111.45142082 -58.1280616 122.62837659 -54.875 133.375 C-54.66327148 134.07850586 -54.45154297 134.78201172 -54.23339844 135.50683594 C-46.47362269 159.96486329 -30.39730355 180.49463531 -8 193 C-3.05 195.475 -3.05 195.475 2 198 C2 205.92 2 213.84 2 222 C-4.09134682 221.1298076 -7.74294498 220.11443624 -13.0625 217.5625 C-14.16960327 217.03450806 -14.16960327 217.03450806 -15.29907227 216.49584961 C-26.87492008 210.78320666 -36.6987373 202.89331258 -46 194 C-46.67289063 193.39027344 -47.34578125 192.78054687 -48.0390625 192.15234375 C-67.95545931 173.46584396 -78.09805309 146.47320903 -82 120 C-82.17313217 118.94936874 -82.34626434 117.89873749 -82.52464294 116.81626892 C-83.04132608 112.66822529 -83.1332571 108.66706195 -83.11352539 104.49438477 C-83.11367142 103.67406265 -83.11381744 102.85374054 -83.1139679 102.00856018 C-83.11327584 99.31948119 -83.10551679 96.63047302 -83.09765625 93.94140625 C-83.09578956 92.06811053 -83.09436684 90.19481433 -83.09336853 88.32151794 C-83.08956315 83.40771114 -83.07974988 78.49393422 -83.06866455 73.58013916 C-83.05840776 68.55928959 -83.05386179 63.53843516 -83.04882812 58.51757812 C-83.03812574 48.67837234 -83.02107322 38.83918866 -83 29 C-82.37414001 28.94596008 -81.74828003 28.89192017 -81.10345459 28.83624268 C-78.23016456 28.58646925 -75.35727641 28.33232771 -72.484375 28.078125 C-71.50001465 27.99320801 -70.5156543 27.90829102 -69.50146484 27.82080078 C-44.865722 25.62594276 -17.9832962 17.9832962 0 0 Z " fill="#21967A" transform="translate(110,2)"/>
</svg>
