<?xml version="1.0" encoding="UTF-8"?>
<svg version="1.1" xmlns="http://www.w3.org/2000/svg" width="348" height="444">
<path d="M0 0 C114.84 0 229.68 0 348 0 C348 146.52 348 293.04 348 444 C233.16 444 118.32 444 0 444 C0 297.48 0 150.96 0 0 Z " fill="#FDFBFA" transform="translate(0,0)"/>
<path d="M0 0 C114.84 0 229.68 0 348 0 C348 146.52 348 293.04 348 444 C342.06 444 336.12 444 330 444 C330 441.03 330 438.06 330 435 C334.95 435 339.9 435 345 435 C345 430.05 345 425.1 345 420 C340.05 420 335.1 420 330 420 C330 415.05 330 410.1 330 405 C334.95 405 339.9 405 345 405 C345 400.05 345 395.1 345 390 C340.05 390 335.1 390 330 390 C330 385.05 330 380.1 330 375 C329.01 375 328.02 375 327 375 C327 377.31 327 379.62 327 382 C324.93933896 382.1357683 322.87607243 382.23233903 320.8125 382.3125 C319.66394531 382.37050781 318.51539063 382.42851562 317.33203125 382.48828125 C314 382 314 382 311.09375 380.3125 C307.76158037 375.04070923 308.47455687 369.77767338 308.6875 363.6875 C308.71005859 362.46998047 308.73261719 361.25246094 308.75585938 359.99804688 C308.81468048 356.99817071 308.90435736 353.99892804 309 351 C304.38 351 299.76 351 295 351 C295 361.23 295 371.46 295 382 C292.03 382 289.06 382 286 382 C285.67 381.01 285.34 380.02 285 379 C285 382.63 285 386.26 285 390 C289.95 390 294.9 390 300 390 C300 394.95 300 399.9 300 405 C304.95 405 309.9 405 315 405 C315 409.95 315 414.9 315 420 C310.05 420 305.1 420 300 420 C300 424.95 300 429.9 300 435 C260.4 435 220.8 435 180 435 C180 425.1 180 415.2 180 405 C175.05 405 170.1 405 165 405 C165 400.05 165 395.1 165 390 C160.05 390 155.1 390 150 390 C150 387.69 150 385.38 150 383 C147.69 382.67 145.38 382.34 143 382 C143 369.13 143 356.26 143 343 C146.3 343 149.6 343 153 343 C153.33 343.99 153.66 344.98 154 346 C154.515625 345.505 155.03125 345.01 155.5625 344.5 C158.80680017 342.50350759 161.26217334 342.78435615 165 343 C165 338.71 165 334.42 165 330 C169.95 330 174.9 330 180 330 C180 325.05 180 320.1 180 315 C184.95 315 189.9 315 195 315 C195 319.95 195 324.9 195 330 C199.95 330 204.9 330 210 330 C210 334.95 210 339.9 210 345 C206.7 345 203.4 345 200 345 C200.78375 346.36125 201.5675 347.7225 202.375 349.125 C204.35303559 352.67201567 205.89261036 356.07380037 207 360 C207.99 359.67 208.98 359.34 210 359 C209.95359375 358.40832031 209.9071875 357.81664062 209.859375 357.20703125 C209.68543947 353.39908556 209.68226896 350.68085223 211.3125 347.1875 C215.37983137 343.87688144 220.03265343 342.53302592 225 341 C225 337.37 225 333.74 225 330 C229.95 330 234.9 330 240 330 C240 334.95 240 339.9 240 345 C241.2375 345.04125 242.475 345.0825 243.75 345.125 C244.79414063 345.15980469 244.79414063 345.15980469 245.859375 345.1953125 C248.0226157 345.14180502 248.0226157 345.14180502 249.77734375 344.0234375 C255.13548824 341.55624268 262.25922837 342.30764563 268 343 C271.24437387 344.67326029 272.62800543 346.15360651 275 349 C274.34 347.68 273.68 346.36 273 345 C273.78375 345.04125 274.5675 345.0825 275.375 345.125 C278.16116119 345.28728734 278.16116119 345.28728734 280 343 C283.125 342.875 283.125 342.875 286 343 C285.96519531 342.40832031 285.93039062 341.81664062 285.89453125 341.20703125 C285.72535268 336.26862833 285.71524641 332.96435778 289 329 C292.41555841 325.76906637 295.48497475 324.26000705 300 323 C300 320.36 300 317.72 300 315 C304.95 315 309.9 315 315 315 C315 319.95 315 324.9 315 330 C319.95 330 324.9 330 330 330 C330 325.05 330 320.1 330 315 C334.95 315 339.9 315 345 315 C345 310.05 345 305.1 345 300 C340.05 300 335.1 300 330 300 C330 295.05 330 290.1 330 285 C334.95 285 339.9 285 345 285 C345 280.05 345 275.1 345 270 C340.05 270 335.1 270 330 270 C330 265.05 330 260.1 330 255 C334.95 255 339.9 255 345 255 C345 250.05 345 245.1 345 240 C340.05 240 335.1 240 330 240 C330 235.05 330 230.1 330 225 C334.95 225 339.9 225 345 225 C345 220.05 345 215.1 345 210 C340.05 210 335.1 210 330 210 C330 205.05 330 200.1 330 195 C334.95 195 339.9 195 345 195 C345 190.05 345 185.1 345 180 C340.05 180 335.1 180 330 180 C330 175.05 330 170.1 330 165 C334.95 165 339.9 165 345 165 C345 160.05 345 155.1 345 150 C340.05 150 335.1 150 330 150 C330 145.05 330 140.1 330 135 C334.95 135 339.9 135 345 135 C345 130.05 345 125.1 345 120 C340.05 120 335.1 120 330 120 C330 115.05 330 110.1 330 105 C334.95 105 339.9 105 345 105 C345 100.05 345 95.1 345 90 C340.05 90 335.1 90 330 90 C330 85.05 330 80.1 330 75 C325.05 75 320.1 75 315 75 C315 70.05 315 65.1 315 60 C310.05 60 305.1 60 300 60 C300 55.05 300 50.1 300 45 C295.05 45 290.1 45 285 45 C285 40.05 285 35.1 285 30 C280.05 30 275.1 30 270 30 C270 34.95 270 39.9 270 45 C265.05 45 260.1 45 255 45 C255 40.05 255 35.1 255 30 C250.05 30 245.1 30 240 30 C240 34.95 240 39.9 240 45 C235.05 45 230.1 45 225 45 C225 40.05 225 35.1 225 30 C220.05 30 215.1 30 210 30 C210 34.95 210 39.9 210 45 C205.05 45 200.1 45 195 45 C195 40.05 195 35.1 195 30 C190.05 30 185.1 30 180 30 C180 34.95 180 39.9 180 45 C175.05 45 170.1 45 165 45 C165 40.05 165 35.1 165 30 C160.05 30 155.1 30 150 30 C150 34.95 150 39.9 150 45 C145.05 45 140.1 45 135 45 C135 40.05 135 35.1 135 30 C130.05 30 125.1 30 120 30 C120 34.95 120 39.9 120 45 C115.05 45 110.1 45 105 45 C105 40.05 105 35.1 105 30 C100.05 30 95.1 30 90 30 C90 34.95 90 39.9 90 45 C85.05 45 80.1 45 75 45 C75 40.05 75 35.1 75 30 C70.05 30 65.1 30 60 30 C60 34.95 60 39.9 60 45 C55.05 45 50.1 45 45 45 C45 49.95 45 54.9 45 60 C40.05 60 35.1 60 30 60 C30 64.95 30 69.9 30 75 C34.95 75 39.9 75 45 75 C45 79.95 45 84.9 45 90 C40.05 90 35.1 90 30 90 C30 94.95 30 99.9 30 105 C34.95 105 39.9 105 45 105 C45 109.95 45 114.9 45 120 C40.05 120 35.1 120 30 120 C30 124.95 30 129.9 30 135 C34.95 135 39.9 135 45 135 C45 139.95 45 144.9 45 150 C40.05 150 35.1 150 30 150 C30 154.95 30 159.9 30 165 C34.95 165 39.9 165 45 165 C45 169.95 45 174.9 45 180 C40.05 180 35.1 180 30 180 C30 184.95 30 189.9 30 195 C34.95 195 39.9 195 45 195 C45 199.95 45 204.9 45 210 C40.05 210 35.1 210 30 210 C30 214.95 30 219.9 30 225 C34.95 225 39.9 225 45 225 C45 229.95 45 234.9 45 240 C40.05 240 35.1 240 30 240 C30 244.95 30 249.9 30 255 C34.95 255 39.9 255 45 255 C45 259.95 45 264.9 45 270 C40.05 270 35.1 270 30 270 C30 274.95 30 279.9 30 285 C34.95 285 39.9 285 45 285 C45 289.95 45 294.9 45 300 C49.95 300 54.9 300 60 300 C60 304.95 60 309.9 60 315 C64.95 315 69.9 315 75 315 C75 318.96 75 322.92 75 327 C77.64 327.33 80.28 327.66 83 328 C83 345.82 83 363.64 83 382 C79.7 382 76.4 382 73 382 C72.67 369.46 72.34 356.92 72 344 C70.35 348.29 68.7 352.58 67 357 C65.61125186 360.50314846 64.21814409 364.00370007 62.8125 367.5 C62.47025391 368.35335938 62.12800781 369.20671875 61.77539062 370.0859375 C61.12878266 371.69806299 60.48183804 373.31005351 59.83447266 374.921875 C58.88742093 377.28036075 57.94306567 379.63991772 57 382 C54.69 382 52.38 382 50 382 C47.3428177 376.46783357 44.91347577 370.98251824 43.0625 365.125 C39.89031092 354.297737 39.89031092 354.297737 34 345 C34.33 354.9 34.66 364.8 35 375 C38.3 375 41.6 375 45 375 C45 379.95 45 384.9 45 390 C59.85 390 74.7 390 90 390 C90 375.15 90 360.3 90 345 C88.02 345 86.04 345 84 345 C84 340.05 84 335.1 84 330 C85.98 330 87.96 330 90 330 C90 325.05 90 320.1 90 315 C94.95 315 99.9 315 105 315 C105 319.95 105 324.9 105 330 C109.95 330 114.9 330 120 330 C120.09765625 339.27734375 120.09765625 339.27734375 120 342 C119.67 342.33 119.34 342.66 119 343 C119.96421875 342.97679687 120.9284375 342.95359375 121.921875 342.9296875 C123.18515625 342.91164063 124.4484375 342.89359375 125.75 342.875 C127.00296875 342.85179687 128.2559375 342.82859375 129.546875 342.8046875 C132.72820492 342.98462698 134.36521896 343.31001418 137 345 C137 347.64 137 350.28 137 353 C136.34 352.67 135.68 352.34 135 352 C130.12620161 350.37540054 125.9032426 350.21387805 121.125 352.1875 C118.08077498 354.78404487 117.23010044 356.9742943 116.78125 360.92578125 C116.57662513 365.45310649 117.09318446 368.33956561 120 372 C123.74594875 374.49729916 125.55155657 374.2965629 130 374 C132.39829117 373.45980238 134.65807395 372.76471055 137 372 C137.29296875 378.0546875 137.29296875 378.0546875 137 380 C132.21879862 383.18746759 127.68253455 383.38525658 122 383 C116.53174526 381.84488417 112.63052297 379.59183706 109.1953125 375.15234375 C106.23838987 369.82795038 105.37092716 363.63864564 106.625 357.6875 C108.35188921 353.05629711 110.50672219 349.49327781 114 346 C109.71 345.67 105.42 345.34 101 345 C101.33 354.9 101.66 364.8 102 375 C102.99 375 103.98 375 105 375 C105 379.95 105 384.9 105 390 C109.95 390 114.9 390 120 390 C120 394.95 120 399.9 120 405 C124.95 405 129.9 405 135 405 C135 409.95 135 414.9 135 420 C130.05 420 125.1 420 120 420 C120 424.95 120 429.9 120 435 C115.05 435 110.1 435 105 435 C105 430.05 105 425.1 105 420 C100.05 420 95.1 420 90 420 C90 424.95 90 429.9 90 435 C85.05 435 80.1 435 75 435 C75 430.05 75 425.1 75 420 C70.05 420 65.1 420 60 420 C60 424.95 60 429.9 60 435 C55.05 435 50.1 435 45 435 C45 430.05 45 425.1 45 420 C40.05 420 35.1 420 30 420 C30 424.95 30 429.9 30 435 C25.05 435 20.1 435 15 435 C15 430.05 15 425.1 15 420 C10.05 420 5.1 420 0 420 C0 281.4 0 142.8 0 0 Z " fill="#F7F8F8" transform="translate(0,0)"/>
<path d="M0 0 C5.94 0 11.88 0 18 0 C18 146.52 18 293.04 18 444 C12.06 444 6.12 444 0 444 C0 441.03 0 438.06 0 435 C4.95 435 9.9 435 15 435 C15 430.05 15 425.1 15 420 C10.05 420 5.1 420 0 420 C0 415.05 0 410.1 0 405 C4.95 405 9.9 405 15 405 C15 400.05 15 395.1 15 390 C10.05 390 5.1 390 0 390 C0 385.05 0 380.1 0 375 C-0.99 375 -1.98 375 -3 375 C-3 377.31 -3 379.62 -3 382 C-5.06066104 382.1357683 -7.12392757 382.23233903 -9.1875 382.3125 C-10.33605469 382.37050781 -11.48460937 382.42851562 -12.66796875 382.48828125 C-16 382 -16 382 -18.90625 380.3125 C-22.23841963 375.04070923 -21.52544313 369.77767338 -21.3125 363.6875 C-21.27866211 361.8612207 -21.27866211 361.8612207 -21.24414062 359.99804688 C-21.18531952 356.99817071 -21.09564264 353.99892804 -21 351 C-25.62 351 -30.24 351 -35 351 C-35 361.23 -35 371.46 -35 382 C-37.97 382 -40.94 382 -44 382 C-44.33 381.01 -44.66 380.02 -45 379 C-45 382.63 -45 386.26 -45 390 C-40.05 390 -35.1 390 -30 390 C-30 394.95 -30 399.9 -30 405 C-25.05 405 -20.1 405 -15 405 C-15 409.95 -15 414.9 -15 420 C-19.95 420 -24.9 420 -30 420 C-30 424.95 -30 429.9 -30 435 C-69.6 435 -109.2 435 -150 435 C-150 425.1 -150 415.2 -150 405 C-154.95 405 -159.9 405 -165 405 C-165 400.05 -165 395.1 -165 390 C-169.95 390 -174.9 390 -180 390 C-180 387.69 -180 385.38 -180 383 C-182.31 382.67 -184.62 382.34 -187 382 C-187 369.13 -187 356.26 -187 343 C-183.7 343 -180.4 343 -177 343 C-176.505 344.485 -176.505 344.485 -176 346 C-175.484375 345.505 -174.96875 345.01 -174.4375 344.5 C-171.19319983 342.50350759 -168.73782666 342.78435615 -165 343 C-165 338.71 -165 334.42 -165 330 C-160.05 330 -155.1 330 -150 330 C-150 325.05 -150 320.1 -150 315 C-145.05 315 -140.1 315 -135 315 C-135 319.95 -135 324.9 -135 330 C-130.05 330 -125.1 330 -120 330 C-120 334.95 -120 339.9 -120 345 C-123.3 345 -126.6 345 -130 345 C-129.21625 346.36125 -128.4325 347.7225 -127.625 349.125 C-125.64696441 352.67201567 -124.10738964 356.07380037 -123 360 C-122.01 359.67 -121.02 359.34 -120 359 C-120.04640625 358.40832031 -120.0928125 357.81664062 -120.140625 357.20703125 C-120.31456053 353.39908556 -120.31773104 350.68085223 -118.6875 347.1875 C-114.62016863 343.87688144 -109.96734657 342.53302592 -105 341 C-105 337.37 -105 333.74 -105 330 C-100.05 330 -95.1 330 -90 330 C-90 334.95 -90 339.9 -90 345 C-88.7625 345.04125 -87.525 345.0825 -86.25 345.125 C-85.20585937 345.15980469 -85.20585937 345.15980469 -84.140625 345.1953125 C-81.9773843 345.14180502 -81.9773843 345.14180502 -80.22265625 344.0234375 C-74.86451176 341.55624268 -67.74077163 342.30764563 -62 343 C-58.75562613 344.67326029 -57.37199457 346.15360651 -55 349 C-55.66 347.68 -56.32 346.36 -57 345 C-56.21625 345.04125 -55.4325 345.0825 -54.625 345.125 C-51.83883881 345.28728734 -51.83883881 345.28728734 -50 343 C-46.875 342.875 -46.875 342.875 -44 343 C-44.03480469 342.40832031 -44.06960938 341.81664062 -44.10546875 341.20703125 C-44.27464732 336.26862833 -44.28475359 332.96435778 -41 329 C-37.58444159 325.76906637 -34.51502525 324.26000705 -30 323 C-30 320.36 -30 317.72 -30 315 C-25.05 315 -20.1 315 -15 315 C-15 319.95 -15 324.9 -15 330 C-10.05 330 -5.1 330 0 330 C0 325.05 0 320.1 0 315 C4.95 315 9.9 315 15 315 C15 310.05 15 305.1 15 300 C10.05 300 5.1 300 0 300 C0 295.05 0 290.1 0 285 C4.95 285 9.9 285 15 285 C15 280.05 15 275.1 15 270 C10.05 270 5.1 270 0 270 C0 265.05 0 260.1 0 255 C4.95 255 9.9 255 15 255 C15 250.05 15 245.1 15 240 C10.05 240 5.1 240 0 240 C0 235.05 0 230.1 0 225 C4.95 225 9.9 225 15 225 C15 220.05 15 215.1 15 210 C10.05 210 5.1 210 0 210 C0 205.05 0 200.1 0 195 C4.95 195 9.9 195 15 195 C15 190.05 15 185.1 15 180 C10.05 180 5.1 180 0 180 C0 175.05 0 170.1 0 165 C4.95 165 9.9 165 15 165 C15 160.05 15 155.1 15 150 C10.05 150 5.1 150 0 150 C0 145.05 0 140.1 0 135 C4.95 135 9.9 135 15 135 C15 130.05 15 125.1 15 120 C10.05 120 5.1 120 0 120 C0 115.05 0 110.1 0 105 C4.95 105 9.9 105 15 105 C15 100.05 15 95.1 15 90 C10.05 90 5.1 90 0 90 C0 80.1 0 70.2 0 60 C4.95 60 9.9 60 15 60 C15 55.05 15 50.1 15 45 C10.05 45 5.1 45 0 45 C0 40.05 0 35.1 0 30 C4.95 30 9.9 30 15 30 C15 25.05 15 20.1 15 15 C10.05 15 5.1 15 0 15 C0 10.05 0 5.1 0 0 Z " fill="#F5F5F5" transform="translate(330,0)"/>
<path d="M0 0 C36.63 0 73.26 0 111 0 C111 36.63 111 73.26 111 111 C74.37 111 37.74 111 0 111 C0 74.37 0 37.74 0 0 Z " fill="#FEB801" transform="translate(182,186)"/>
<path d="M0 0 C36.63 0 73.26 0 111 0 C111 36.63 111 73.26 111 111 C74.37 111 37.74 111 0 111 C0 74.37 0 37.74 0 0 Z " fill="#7EBA01" transform="translate(182,64)"/>
<path d="M0 0 C36.3 0 72.6 0 110 0 C110 36.63 110 73.26 110 111 C73.7 111 37.4 111 0 111 C0 74.37 0 37.74 0 0 Z " fill="#00A3EE" transform="translate(60,186)"/>
<path d="M0 0 C36.3 0 72.6 0 110 0 C110 36.3 110 72.6 110 110 C73.7 110 37.4 110 0 110 C0 73.7 0 37.4 0 0 Z " fill="#F14F20" transform="translate(60,64)"/>
<path d="M0 0 C4.95 0 9.9 0 15 0 C15 4.95 15 9.9 15 15 C19.95 15 24.9 15 30 15 C30.09765625 24.27734375 30.09765625 24.27734375 30 27 C29.505 27.495 29.505 27.495 29 28 C29.96421875 27.97679687 30.9284375 27.95359375 31.921875 27.9296875 C33.81679687 27.90261719 33.81679687 27.90261719 35.75 27.875 C37.00296875 27.85179687 38.2559375 27.82859375 39.546875 27.8046875 C42.72820492 27.98462698 44.36521896 28.31001418 47 30 C47 32.64 47 35.28 47 38 C46.34 37.67 45.68 37.34 45 37 C40.12620161 35.37540054 35.9032426 35.21387805 31.125 37.1875 C28.08077498 39.78404487 27.23010044 41.9742943 26.78125 45.92578125 C26.57662513 50.45310649 27.09318446 53.33956561 30 57 C33.74594875 59.49729916 35.55155657 59.2965629 40 59 C42.39829117 58.45980238 44.65807395 57.76471055 47 57 C47.29296875 63.0546875 47.29296875 63.0546875 47 65 C42.21879862 68.18746759 37.68253455 68.38525658 32 68 C26.53174526 66.84488417 22.63052297 64.59183706 19.1953125 60.15234375 C16.23838987 54.82795038 15.37092716 48.63864564 16.625 42.6875 C18.35188921 38.05629711 20.50672219 34.49327781 24 31 C19.71 30.67 15.42 30.34 11 30 C11.33 39.9 11.66 49.8 12 60 C12.99 60 13.98 60 15 60 C15 64.95 15 69.9 15 75 C19.95 75 24.9 75 30 75 C30 79.95 30 84.9 30 90 C34.95 90 39.9 90 45 90 C45 94.95 45 99.9 45 105 C40.05 105 35.1 105 30 105 C30 109.95 30 114.9 30 120 C25.05 120 20.1 120 15 120 C15 115.05 15 110.1 15 105 C10.05 105 5.1 105 0 105 C0 109.95 0 114.9 0 120 C-4.95 120 -9.9 120 -15 120 C-15 115.05 -15 110.1 -15 105 C-19.95 105 -24.9 105 -30 105 C-30 109.95 -30 114.9 -30 120 C-34.95 120 -39.9 120 -45 120 C-45 115.05 -45 110.1 -45 105 C-49.95 105 -54.9 105 -60 105 C-60 109.95 -60 114.9 -60 120 C-64.95 120 -69.9 120 -75 120 C-75 115.05 -75 110.1 -75 105 C-79.95 105 -84.9 105 -90 105 C-90 85.2 -90 65.4 -90 45 C-85.05 45 -80.1 45 -75 45 C-75 40.05 -75 35.1 -75 30 C-71.04 29.505 -71.04 29.505 -67 29 C-66.67 23.72 -66.34 18.44 -66 13 C-61.38 13 -56.76 13 -52 13 C-48.98389692 19.38021806 -46.59939397 25.86921227 -44.29589844 32.52880859 C-42.11078858 38.79954636 -39.65185369 44.91012361 -37 51 C-34.64632854 48.64632854 -34.07888527 46.87551378 -32.9375 43.75 C-30.48293307 37.20448818 -27.89136889 30.72237393 -25.25 24.25 C-24.849021 23.2609668 -24.44804199 22.27193359 -24.03491211 21.25292969 C-23.65729736 20.32899414 -23.27968262 19.40505859 -22.890625 18.453125 C-22.55063477 17.61942383 -22.21064453 16.78572266 -21.86035156 15.92675781 C-21 14 -21 14 -20 13 C-15.71 13 -11.42 13 -7 13 C-7 30.82 -7 48.64 -7 67 C-10.3 67 -13.6 67 -17 67 C-17.33 54.46 -17.66 41.92 -18 29 C-19.65 33.29 -21.3 37.58 -23 42 C-24.38874814 45.50314846 -25.78185591 49.00370007 -27.1875 52.5 C-27.52974609 53.35335937 -27.87199219 54.20671875 -28.22460938 55.0859375 C-28.87121734 56.69806299 -29.51816196 58.31005351 -30.16552734 59.921875 C-31.11257907 62.28036075 -32.05693433 64.63991772 -33 67 C-35.31 67 -37.62 67 -40 67 C-42.6571823 61.46783357 -45.08652423 55.98251824 -46.9375 50.125 C-50.10968908 39.297737 -50.10968908 39.297737 -56 30 C-55.67 39.9 -55.34 49.8 -55 60 C-51.7 60 -48.4 60 -45 60 C-45 64.95 -45 69.9 -45 75 C-30.15 75 -15.3 75 0 75 C0 60.15 0 45.3 0 30 C-1.98 30 -3.96 30 -6 30 C-6 25.05 -6 20.1 -6 15 C-4.02 15 -2.04 15 0 15 C0 10.05 0 5.1 0 0 Z " fill="#FFFFFF" transform="translate(90,315)"/>
<path d="M0 0 C4.95 0 9.9 0 15 0 C15 4.95 15 9.9 15 15 C19.95 15 24.9 15 30 15 C30 19.95 30 24.9 30 30 C26.7 30 23.4 30 20 30 C20.825 31.175625 21.65 32.35125 22.5 33.5625 C26.39538959 40.5454285 26.08835942 48.64741267 24.5234375 56.34375 C22.89707254 60.81135496 19.85410323 63.40589206 16 66 C9.46147943 68.49652604 3.88337242 68.9740364 -2.625 66.3125 C-7.52375011 63.93406085 -10.88053642 61.29223496 -13.3125 56.3125 C-14.8568946 48.871326 -14.72817865 41.76999805 -11 35 C-8.8125 32.5 -8.8125 32.5 -7 31 C-8.98 30.67 -10.96 30.34 -13 30 C-13.33 32.31 -13.66 34.62 -14 37 C-14.61488281 36.96519531 -15.22976562 36.93039062 -15.86328125 36.89453125 C-17.07564453 36.85392578 -17.07564453 36.85392578 -18.3125 36.8125 C-19.11300781 36.77769531 -19.91351563 36.74289062 -20.73828125 36.70703125 C-23.05829913 36.81565832 -23.05829913 36.81565832 -24.73046875 38.32421875 C-27.15742516 41.52780121 -27.17285653 44.66712622 -27.31640625 48.54296875 C-27.35830078 49.61611328 -27.40019531 50.68925781 -27.44335938 51.79492188 C-27.50233398 53.47424805 -27.50233398 53.47424805 -27.5625 55.1875 C-27.60568359 56.31865234 -27.64886719 57.44980469 -27.69335938 58.61523438 C-27.79949099 61.41003354 -27.90154385 64.20492162 -28 67 C-30.97 67 -33.94 67 -37 67 C-37 54.13 -37 41.26 -37 28 C-33.7 28 -30.4 28 -27 28 C-26.67 28.99 -26.34 29.98 -26 31 C-25.484375 30.505 -24.96875 30.01 -24.4375 29.5 C-21.19319983 27.50350759 -18.73782666 27.78435615 -15 28 C-15 23.71 -15 19.42 -15 15 C-10.05 15 -5.1 15 0 15 C0 10.05 0 5.1 0 0 Z " fill="#EDEDED" transform="translate(180,315)"/>
<path d="M0 0 C4.95 0 9.9 0 15 0 C15 4.95 15 9.9 15 15 C16.85625 15.061875 16.85625 15.061875 18.75 15.125 C19.44609375 15.14820313 20.1421875 15.17140625 20.859375 15.1953125 C23.02242302 15.14096032 23.02242302 15.14096032 24.78125 14.02734375 C30.19801098 11.51923083 37.21018127 12.25977541 43 13 C47.96119448 15.34179768 50.825256 18.96806236 53 23.9375 C54.9390251 30.41759679 54.51730207 36.70674483 52 43 C48.76690508 48.29350796 45.21685275 50.92171381 39.2578125 52.578125 C36.08069658 53.17177296 33.22304659 53.20572638 30 53 C30 55.31 30 57.62 30 60 C25.05 60 20.1 60 15 60 C15 55.05 15 50.1 15 45 C13.68 44.67 12.36 44.34 11 44 C10.38511719 44.74056641 10.38511719 44.74056641 9.7578125 45.49609375 C9.21898437 46.13675781 8.68015625 46.77742188 8.125 47.4375 C7.59132812 48.07558594 7.05765625 48.71367187 6.5078125 49.37109375 C5 51 5 51 3 52 C0.32248582 52.09809858 -2.32309717 52.1390397 -5 52.125 C-6.10601562 52.13080078 -6.10601562 52.13080078 -7.234375 52.13671875 C-12.7466804 52.1266598 -12.7466804 52.1266598 -15 51 C-15 48.03 -15 45.06 -15 42 C-14.195625 42.33 -13.39125 42.66 -12.5625 43 C-8.26195205 44.20717135 -4.43033819 44.17721353 0 44 C0 42.02 0 40.04 0 38 C-0.59167969 37.84144531 -1.18335938 37.68289063 -1.79296875 37.51953125 C-7.11484464 35.94814538 -10.32707812 34.36159473 -14 30 C-14.33 29.67 -14.66 29.34 -15 29 C-15.53741116 24.7359508 -15.51681139 21.10745299 -13.6875 17.1875 C-9.62016863 13.87688144 -4.96734657 12.53302592 0 11 C0 7.37 0 3.74 0 0 Z " fill="#FCFDFD" transform="translate(225,330)"/>
<path d="M0 0 C4.95 0 9.9 0 15 0 C15 4.95 15 9.9 15 15 C19.95 15 24.9 15 30 15 C30.09765625 24.27734375 30.09765625 24.27734375 30 27 C29.505 27.495 29.505 27.495 29 28 C29.96421875 27.97679687 30.9284375 27.95359375 31.921875 27.9296875 C33.81679687 27.90261719 33.81679687 27.90261719 35.75 27.875 C37.00296875 27.85179687 38.2559375 27.82859375 39.546875 27.8046875 C42.72820492 27.98462698 44.36521896 28.31001418 47 30 C47 32.64 47 35.28 47 38 C46.01 37.505 46.01 37.505 45 37 C40.12620161 35.37540054 35.9032426 35.21387805 31.125 37.1875 C28.08077498 39.78404487 27.23010044 41.9742943 26.78125 45.92578125 C26.57662513 50.45310649 27.09318446 53.33956561 30 57 C33.74594875 59.49729916 35.55155657 59.2965629 40 59 C42.39829117 58.45980238 44.65807395 57.76471055 47 57 C47.29296875 63.0546875 47.29296875 63.0546875 47 65 C42.21879862 68.18746759 37.68253455 68.38525658 32 68 C26.53174526 66.84488417 22.63052297 64.59183706 19.1953125 60.15234375 C16.23838987 54.82795038 15.37092716 48.63864564 16.625 42.6875 C18.35188921 38.05629711 20.50672219 34.49327781 24 31 C19.71 30.67 15.42 30.34 11 30 C11.33 39.9 11.66 49.8 12 60 C12.99 60 13.98 60 15 60 C15 64.95 15 69.9 15 75 C10.05 75 5.1 75 0 75 C0 60.15 0 45.3 0 30 C-1.98 30 -3.96 30 -6 30 C-6 25.05 -6 20.1 -6 15 C-4.02 15 -2.04 15 0 15 C0 10.05 0 5.1 0 0 Z " fill="#F3F3F3" transform="translate(90,315)"/>
<path d="M0 0 C4.29 0 8.58 0 13 0 C13 17.82 13 35.64 13 54 C9.7 54 6.4 54 3 54 C2.67 41.46 2.34 28.92 2 16 C0.35 20.29 -1.3 24.58 -3 29 C-4.38874814 32.50314846 -5.78185591 36.00370007 -7.1875 39.5 C-7.52974609 40.35335937 -7.87199219 41.20671875 -8.22460938 42.0859375 C-8.87121734 43.69806299 -9.51816196 45.31005351 -10.16552734 46.921875 C-11.11257907 49.28036075 -12.05693433 51.63991772 -13 54 C-15.31 54 -17.62 54 -20 54 C-22.6571823 48.46783357 -25.08652423 42.98251824 -26.9375 37.125 C-28.75619991 31.42292857 -31.14798544 26.10863801 -33.73046875 20.71484375 C-35 18 -35 18 -36 15 C-36.33 27.54 -36.66 40.08 -37 53 C-39.64 53 -42.28 53 -45 53 C-45 35.84 -45 18.68 -45 1 C-40.38 1 -35.76 1 -31 1 C-30.29875 2.98 -29.5975 4.96 -28.875 7 C-26.91724894 12.49499146 -24.91587711 17.97284231 -22.875 23.4375 C-22.63378418 24.08654297 -22.39256836 24.73558594 -22.14404297 25.40429688 C-20.54738527 29.66059559 -18.81665128 33.83460135 -17 38 C-14.64632854 35.64632854 -14.07888527 33.87551378 -12.9375 30.75 C-10.48293307 24.20448818 -7.89136889 17.72237393 -5.25 11.25 C-4.849021 10.2609668 -4.44804199 9.27193359 -4.03491211 8.25292969 C-3.65729736 7.32899414 -3.27968262 6.40505859 -2.890625 5.453125 C-2.38063965 4.20257324 -2.38063965 4.20257324 -1.86035156 2.92675781 C-1 1 -1 1 0 0 Z " fill="#737374" transform="translate(70,328)"/>
<path d="M0 0 C4.96119448 2.34179768 7.825256 5.96806236 10 10.9375 C11.9390251 17.41759679 11.51730207 23.70674483 9 30 C5.87058921 35.12374717 2.30965416 38.0505197 -3.50390625 39.62890625 C-9.44085653 40.51155144 -15.4790163 40.05570203 -20.9375 37.4375 C-25.65769994 33.68060617 -28.49672981 28.10866482 -29.23828125 22.0546875 C-29.4460406 15.95312354 -28.23390418 11.21192325 -25 6 C-22.5 3.5625 -22.5 3.5625 -20 2 C-19.44828125 1.649375 -18.8965625 1.29875 -18.328125 0.9375 C-12.68338045 -1.3355515 -5.93040664 -0.75819867 0 0 Z " fill="#737373" transform="translate(268,343)"/>
<path d="M0 0 C4.08949139 2.55593212 6.81576462 5.50652923 9 9.875 C9.9978678 25.74493603 9.9978678 25.74493603 6 31.875 C1.06541776 36.92173183 -3.46605417 38.48233935 -10.375 39.25 C-16.47561491 38.61890191 -21.18903108 36.33918763 -25.9375 32.5 C-30.38888007 26.83460719 -30.66794554 20.83456156 -30 13.875 C-28.86111693 8.01492894 -26.32439836 4.71064518 -21.71875 1.00390625 C-16.04313634 -2.72393999 -6.21856116 -2.33883937 0 0 Z " fill="#737373" transform="translate(196,344.125)"/>
<path d="M0 0 C0.66 0.33 1.32 0.66 2 1 C2 3.64 2 6.28 2 9 C0.88625 8.95875 -0.2275 8.9175 -1.375 8.875 C-5.04366025 8.58878141 -5.04366025 8.58878141 -7 11 C-7.45811675 12.97235333 -7.45811675 12.97235333 -7.625 15.125 C-7.74875 16.40375 -7.8725 17.6825 -8 19 C-3.38 19 1.24 19 6 19 C6 16.36 6 13.72 6 11 C9.37097383 9.50178941 11.20442119 9 15 9 C15 12.3 15 15.6 15 19 C17.97 19 20.94 19 24 19 C24 21.64 24 24.28 24 27 C21.03 27 18.06 27 15 27 C15.13816959 30.64616671 15.28681534 34.29183074 15.4375 37.9375 C15.47681641 38.97841797 15.51613281 40.01933594 15.55664062 41.09179688 C15.59853516 42.08115234 15.64042969 43.07050781 15.68359375 44.08984375 C15.73858032 45.46450806 15.73858032 45.46450806 15.79467773 46.86694336 C15.77003864 48.9820728 15.77003864 48.9820728 17 50 C19.33297433 50.04092937 21.66705225 50.04241723 24 50 C24 52.64 24 55.28 24 58 C21.93933896 58.1357683 19.87607243 58.23233903 17.8125 58.3125 C16.66394531 58.37050781 15.51539063 58.42851562 14.33203125 58.48828125 C11 58 11 58 8.09375 56.3125 C4.76158037 51.04070923 5.47455687 45.77767338 5.6875 39.6875 C5.71005859 38.46998047 5.73261719 37.25246094 5.75585938 35.99804688 C5.81468048 32.99817071 5.90435736 29.99892804 6 27 C1.38 27 -3.24 27 -8 27 C-8 37.23 -8 47.46 -8 58 C-10.97 58 -13.94 58 -17 58 C-17 47.77 -17 37.54 -17 27 C-18.98 27 -20.96 27 -23 27 C-23 24.36 -23 21.72 -23 19 C-21.02 19 -19.04 19 -17 19 C-17.03480469 18.40832031 -17.06960938 17.81664062 -17.10546875 17.20703125 C-17.27464732 12.26862833 -17.28475359 8.96435778 -14 5 C-9.37839046 0.84055142 -6.19449143 -0.26359538 0 0 Z " fill="#737373" transform="translate(303,324)"/>
<path d="M0 0 C4.95 0 9.9 0 15 0 C15 4.95 15 9.9 15 15 C19.95 15 24.9 15 30 15 C30 10.05 30 5.1 30 0 C34.95 0 39.9 0 45 0 C45 9.24 45 18.48 45 28 C42.03 28.66 39.06 29.32 36 30 C35.01 30.66 34.02 31.32 33 32 C33 30.68 33 29.36 33 28 C29.37 28 25.74 28 22 28 C22 28.66 22 29.32 22 30 C20.865625 29.835 19.73125 29.67 18.5625 29.5 C11.07861282 28.64572992 3.51984993 28.92229776 -4 29 C-2.68 28.34 -1.36 27.68 0 27 C0 18.09 0 9.18 0 0 Z " fill="#EEEEEE" transform="translate(120,315)"/>
<path d="M0 0 C1.56814453 0.00966797 1.56814453 0.00966797 3.16796875 0.01953125 C5.8125 0.1875 5.8125 0.1875 7.8125 1.1875 C7.8125 3.8275 7.8125 6.4675 7.8125 9.1875 C3.5225 8.5275 -0.7675 7.8675 -5.1875 7.1875 C-5.1875 9.4975 -5.1875 11.8075 -5.1875 14.1875 C-4.59582031 14.35765625 -4.00414062 14.5278125 -3.39453125 14.703125 C1.4282329 16.1822109 5.11105998 17.60172998 8.8125 21.1875 C10.55471711 24.67193422 10.39925154 28.38637045 9.8125 32.1875 C8.10998281 35.26219523 6.00023492 37.59363254 2.8125 39.1875 C0.13498582 39.28559858 -2.51059717 39.3265397 -5.1875 39.3125 C-6.29351562 39.31830078 -6.29351562 39.31830078 -7.421875 39.32421875 C-12.9341804 39.3141598 -12.9341804 39.3141598 -15.1875 38.1875 C-15.1875 35.2175 -15.1875 32.2475 -15.1875 29.1875 C-14.383125 29.5175 -13.57875 29.8475 -12.75 30.1875 C-8.44945205 31.39467135 -4.61783819 31.36471353 -0.1875 31.1875 C-0.1875 29.2075 -0.1875 27.2275 -0.1875 25.1875 C-0.77917969 25.02894531 -1.37085938 24.87039063 -1.98046875 24.70703125 C-7.30234464 23.13564538 -10.51457812 21.54909473 -14.1875 17.1875 C-14.5175 16.8575 -14.8475 16.5275 -15.1875 16.1875 C-15.75351461 11.69649885 -15.77989688 8.21870939 -13.5 4.25 C-9.31543932 0.51782426 -5.50885066 -0.07527622 0 0 Z " fill="#727272" transform="translate(225.1875,342.8125)"/>
<path d="M0 0 C1.23492187 -0.01417969 2.46984375 -0.02835937 3.7421875 -0.04296875 C6.86586712 0.16984545 8.52561596 0.53512774 11.125 2.1875 C11.125 4.8275 11.125 7.4675 11.125 10.1875 C10.465 9.8575 9.805 9.5275 9.125 9.1875 C4.25120161 7.56290054 0.0282426 7.40137805 -4.75 9.375 C-7.79422502 11.97154487 -8.64489956 14.1617943 -9.09375 18.11328125 C-9.29837487 22.64060649 -8.78181554 25.52706561 -5.875 29.1875 C-2.12905125 31.68479916 -0.32344343 31.4840629 4.125 31.1875 C6.52329117 30.64730238 8.78307395 29.95221055 11.125 29.1875 C11.41796875 35.2421875 11.41796875 35.2421875 11.125 37.1875 C6.34379862 40.37496759 1.80753455 40.57275658 -3.875 40.1875 C-9.34325474 39.03238417 -13.24447703 36.77933706 -16.6796875 32.33984375 C-19.63661013 27.01545038 -20.50407284 20.82614564 -19.25 14.875 C-15.6390126 5.19098835 -10.31523208 0.05361347 0 0 Z " fill="#727272" transform="translate(125.875,342.8125)"/>
<path d="M0 0 C0.99 0.66 1.98 1.32 3 2 C3.40843923 4.71203652 3.13336867 7.2437142 3 10 C5.31 10 7.62 10 10 10 C10 14.95 10 19.9 10 25 C8.68 25 7.36 25 6 25 C6 24.01 6 23.02 6 22 C4.824375 22.495 3.64875 22.99 2.4375 23.5 C-1.56081917 24.96675553 -4.70923016 25.63566961 -9 25 C-12.46884056 22.96088426 -14.70099568 20.89701295 -16 17 C-16.36631844 11.41364386 -16.23232115 7.79275206 -13 3 C-8.82797901 -0.57601799 -5.25653891 -0.42391443 0 0 Z " fill="#FDFEFE" transform="translate(132,350)"/>
<path d="M0 0 C3.3 0 6.6 0 10 0 C10.33 0.99 10.66 1.98 11 3 C11.495 2.505 11.99 2.01 12.5 1.5 C16.11630158 -0.66978095 18.82231616 -0.20888419 23 0 C23 2.97 23 5.94 23 9 C20.75390625 8.90234375 18.5078125 8.8046875 16.26171875 8.70703125 C13.94170087 8.81565832 13.94170087 8.81565832 12.26953125 10.32421875 C9.84257484 13.52780121 9.82714347 16.66712622 9.68359375 20.54296875 C9.64169922 21.61611328 9.59980469 22.68925781 9.55664062 23.79492188 C9.49766602 25.47424805 9.49766602 25.47424805 9.4375 27.1875 C9.39431641 28.31865234 9.35113281 29.44980469 9.30664062 30.61523438 C9.20050901 33.41003354 9.09845615 36.20492162 9 39 C6.03 39 3.06 39 0 39 C0 26.13 0 13.26 0 0 Z " fill="#747575" transform="translate(143,343)"/>
<path d="M0 0 C3.0183091 2.22401723 4.55884321 4.58257335 6 8 C6.72979592 13.08552522 7.08065512 18.34139059 4 22.6875 C0.62316001 25.29048082 -0.93524058 25.72612244 -5.0703125 25.3984375 C-9.45286644 24.4935377 -11.56486041 22.65270939 -14 19 C-14.30078125 16.2578125 -14.30078125 16.2578125 -14.3125 13.125 C-14.32925781 12.09632813 -14.34601563 11.06765625 -14.36328125 10.0078125 C-13.94933376 6.58050534 -13.04951391 4.75508428 -11 2 C-7.32477453 -0.45015031 -4.27195026 -0.70767661 0 0 Z " fill="#FCFCFC" transform="translate(190,350)"/>
<path d="M0 0 C3.05116403 1.28826926 4.53585246 2.2706253 6.3125 5.0625 C7.58321084 10.49190084 7.94825253 15.83256565 5.6875 21 C3.15817879 23.99771402 1.55019833 24.94905571 -2.375 25.3125 C-6.23295483 24.97991769 -8.00197922 24.39841663 -11 22 C-14.0856293 17.13713545 -13.83408169 11.5359404 -13 6 C-10.1342963 0.47255727 -6.09547456 -0.99744129 0 0 Z " fill="#FBFCFC" transform="translate(262,350)"/>
<path d="M0 0 C2.63032853 2.63032853 3.57097024 5.653234 4.875 9.0625 C5.41140655 10.43672714 5.94916147 11.81042876 6.48828125 13.18359375 C6.74818848 13.84601074 7.0080957 14.50842773 7.27587891 15.19091797 C8.14570105 17.36400702 9.08798106 19.49696885 10.0625 21.625 C17 36.93433544 17 36.93433544 17 41 C19.31 41 21.62 41 24 41 C24.66 39.68 25.32 38.36 26 37 C26.33 37 26.66 37 27 37 C27 40.96 27 44.92 27 49 C22.05 49 17.1 49 12 49 C12 44.05 12 39.1 12 34 C8.7 34 5.4 34 2 34 C2 35.98 2 37.96 2 40 C1.67 40 1.34 40 1 40 C0.67 26.8 0.34 13.6 0 0 Z " fill="#FDFDFD" transform="translate(33,341)"/>
<path d="M0 0 C2.97 0 5.94 0 9 0 C9 12.87 9 25.74 9 39 C6.03 39 3.06 39 0 39 C0 26.13 0 13.26 0 0 Z " fill="#727272" transform="translate(91,343)"/>
<path d="M0 0 C4.62 0 9.24 0 14 0 C14 0.33 14 0.66 14 1 C9.71 1 5.42 1 1 1 C1 18.16 1 35.32 1 53 C3.64 53 6.28 53 9 53 C9 41.12 9 29.24 9 17 C9.33 17 9.66 17 10 17 C10.33 26.9 10.66 36.8 11 47 C14.3 47 17.6 47 21 47 C21 51.95 21 56.9 21 62 C16.05 62 11.1 62 6 62 C6 59.69 6 57.38 6 55 C4.02 54.67 2.04 54.34 0 54 C0 36.18 0 18.36 0 0 Z " fill="#D8DBDC" transform="translate(24,328)"/>
<path d="M0 0 C4.95 0 9.9 0 15 0 C15 4.95 15 9.9 15 15 C14.01 15 13.02 15 12 15 C11.71125 15.94875 11.4225 16.8975 11.125 17.875 C10 21 10 21 8 23 C2.54545455 22.54545455 2.54545455 22.54545455 0 20 C-0.22705078 17.93701172 -0.22705078 17.93701172 -0.1953125 15.4296875 C-0.18886719 14.53378906 -0.18242188 13.63789063 -0.17578125 12.71484375 C-0.15902344 11.77769531 -0.14226562 10.84054687 -0.125 9.875 C-0.11597656 8.93011719 -0.10695313 7.98523438 -0.09765625 7.01171875 C-0.07404668 4.67437173 -0.03817494 2.33715451 0 0 Z " fill="#EEEEEE" transform="translate(90,315)"/>
<path d="M0 0 C2.31 0 4.62 0 7 0 C7.12375 1.093125 7.2475 2.18625 7.375 3.3125 C7.75464801 7.07381802 7.75464801 7.07381802 10 10 C13 15.65384615 13 15.65384615 13 18 C16.92438786 19.66489182 20.89100419 20.87204037 25 22 C24.67 24.64 24.34 27.28 24 30 C19.05 30 14.1 30 9 30 C9 25.05 9 20.1 9 15 C7.68 14.67 6.36 14.34 5 14 C3.09634482 12.09634482 3.10381192 8.89753121 2.59765625 6.32421875 C1.99942516 3.9977645 1.14937343 2.10157401 0 0 Z " fill="#EBEDED" transform="translate(231,360)"/>
<path d="M0 0 C4.95 0 9.9 0 15 0 C15 4.95 15 9.9 15 15 C10.05 15 5.1 15 0 15 C0 10.05 0 5.1 0 0 Z " fill="#FFFFFF" transform="translate(330,420)"/>
<path d="M0 0 C4.95 0 9.9 0 15 0 C15 4.95 15 9.9 15 15 C10.05 15 5.1 15 0 15 C0 10.05 0 5.1 0 0 Z " fill="#EEEEEE" transform="translate(315,420)"/>
<path d="M0 0 C4.95 0 9.9 0 15 0 C15 4.95 15 9.9 15 15 C10.05 15 5.1 15 0 15 C0 10.05 0 5.1 0 0 Z " fill="#FFFFFF" transform="translate(300,420)"/>
<path d="M0 0 C4.95 0 9.9 0 15 0 C15 4.95 15 9.9 15 15 C10.05 15 5.1 15 0 15 C0 10.05 0 5.1 0 0 Z " fill="#FFFFFF" transform="translate(270,420)"/>
<path d="M0 0 C4.95 0 9.9 0 15 0 C15 4.95 15 9.9 15 15 C10.05 15 5.1 15 0 15 C0 10.05 0 5.1 0 0 Z " fill="#EEEEEE" transform="translate(255,420)"/>
<path d="M0 0 C4.95 0 9.9 0 15 0 C15 4.95 15 9.9 15 15 C10.05 15 5.1 15 0 15 C0 10.05 0 5.1 0 0 Z " fill="#FFFFFF" transform="translate(240,420)"/>
<path d="M0 0 C4.95 0 9.9 0 15 0 C15 4.95 15 9.9 15 15 C10.05 15 5.1 15 0 15 C0 10.05 0 5.1 0 0 Z " fill="#EEEEEE" transform="translate(225,420)"/>
<path d="M0 0 C4.95 0 9.9 0 15 0 C15 4.95 15 9.9 15 15 C10.05 15 5.1 15 0 15 C0 10.05 0 5.1 0 0 Z " fill="#FFFFFF" transform="translate(210,420)"/>
<path d="M0 0 C4.95 0 9.9 0 15 0 C15 4.95 15 9.9 15 15 C10.05 15 5.1 15 0 15 C0 10.05 0 5.1 0 0 Z " fill="#EEEEEE" transform="translate(195,420)"/>
<path d="M0 0 C4.95 0 9.9 0 15 0 C15 4.95 15 9.9 15 15 C10.05 15 5.1 15 0 15 C0 10.05 0 5.1 0 0 Z " fill="#FFFFFF" transform="translate(180,420)"/>
<path d="M0 0 C4.95 0 9.9 0 15 0 C15 4.95 15 9.9 15 15 C10.05 15 5.1 15 0 15 C0 10.05 0 5.1 0 0 Z " fill="#EEEEEE" transform="translate(165,420)"/>
<path d="M0 0 C4.95 0 9.9 0 15 0 C15 4.95 15 9.9 15 15 C10.05 15 5.1 15 0 15 C0 10.05 0 5.1 0 0 Z " fill="#FFFFFF" transform="translate(150,420)"/>
<path d="M0 0 C4.95 0 9.9 0 15 0 C15 4.95 15 9.9 15 15 C10.05 15 5.1 15 0 15 C0 10.05 0 5.1 0 0 Z " fill="#EEEEEE" transform="translate(135,420)"/>
<path d="M0 0 C4.95 0 9.9 0 15 0 C15 4.95 15 9.9 15 15 C10.05 15 5.1 15 0 15 C0 10.05 0 5.1 0 0 Z " fill="#FFFFFF" transform="translate(120,420)"/>
<path d="M0 0 C4.95 0 9.9 0 15 0 C15 4.95 15 9.9 15 15 C10.05 15 5.1 15 0 15 C0 10.05 0 5.1 0 0 Z " fill="#EEEEEE" transform="translate(105,420)"/>
<path d="M0 0 C4.95 0 9.9 0 15 0 C15 4.95 15 9.9 15 15 C10.05 15 5.1 15 0 15 C0 10.05 0 5.1 0 0 Z " fill="#FFFFFF" transform="translate(90,420)"/>
<path d="M0 0 C4.95 0 9.9 0 15 0 C15 4.95 15 9.9 15 15 C10.05 15 5.1 15 0 15 C0 10.05 0 5.1 0 0 Z " fill="#EEEEEE" transform="translate(75,420)"/>
<path d="M0 0 C4.95 0 9.9 0 15 0 C15 4.95 15 9.9 15 15 C10.05 15 5.1 15 0 15 C0 10.05 0 5.1 0 0 Z " fill="#FFFFFF" transform="translate(60,420)"/>
<path d="M0 0 C4.95 0 9.9 0 15 0 C15 4.95 15 9.9 15 15 C10.05 15 5.1 15 0 15 C0 10.05 0 5.1 0 0 Z " fill="#EEEEEE" transform="translate(45,420)"/>
<path d="M0 0 C4.95 0 9.9 0 15 0 C15 4.95 15 9.9 15 15 C10.05 15 5.1 15 0 15 C0 10.05 0 5.1 0 0 Z " fill="#FFFFFF" transform="translate(30,420)"/>
<path d="M0 0 C4.95 0 9.9 0 15 0 C15 4.95 15 9.9 15 15 C10.05 15 5.1 15 0 15 C0 10.05 0 5.1 0 0 Z " fill="#EEEEEE" transform="translate(15,420)"/>
<path d="M0 0 C4.95 0 9.9 0 15 0 C15 4.95 15 9.9 15 15 C10.05 15 5.1 15 0 15 C0 10.05 0 5.1 0 0 Z " fill="#EEEEEE" transform="translate(330,405)"/>
<path d="M0 0 C4.95 0 9.9 0 15 0 C15 4.95 15 9.9 15 15 C10.05 15 5.1 15 0 15 C0 10.05 0 5.1 0 0 Z " fill="#FFFFFF" transform="translate(315,405)"/>
<path d="M0 0 C4.95 0 9.9 0 15 0 C15 4.95 15 9.9 15 15 C10.05 15 5.1 15 0 15 C0 10.05 0 5.1 0 0 Z " fill="#EEEEEE" transform="translate(300,405)"/>
<path d="M0 0 C4.95 0 9.9 0 15 0 C15 4.95 15 9.9 15 15 C10.05 15 5.1 15 0 15 C0 10.05 0 5.1 0 0 Z " fill="#FFFFFF" transform="translate(285,405)"/>
<path d="M0 0 C4.95 0 9.9 0 15 0 C15 4.95 15 9.9 15 15 C10.05 15 5.1 15 0 15 C0 10.05 0 5.1 0 0 Z " fill="#FFFFFF" transform="translate(255,405)"/>
<path d="M0 0 C4.95 0 9.9 0 15 0 C15 4.95 15 9.9 15 15 C10.05 15 5.1 15 0 15 C0 10.05 0 5.1 0 0 Z " fill="#EEEEEE" transform="translate(240,405)"/>
<path d="M0 0 C4.95 0 9.9 0 15 0 C15 4.95 15 9.9 15 15 C10.05 15 5.1 15 0 15 C0 10.05 0 5.1 0 0 Z " fill="#FFFFFF" transform="translate(225,405)"/>
<path d="M0 0 C4.95 0 9.9 0 15 0 C15 4.95 15 9.9 15 15 C10.05 15 5.1 15 0 15 C0 10.05 0 5.1 0 0 Z " fill="#EEEEEE" transform="translate(210,405)"/>
<path d="M0 0 C4.95 0 9.9 0 15 0 C15 4.95 15 9.9 15 15 C10.05 15 5.1 15 0 15 C0 10.05 0 5.1 0 0 Z " fill="#FFFFFF" transform="translate(195,405)"/>
<path d="M0 0 C4.95 0 9.9 0 15 0 C15 4.95 15 9.9 15 15 C10.05 15 5.1 15 0 15 C0 10.05 0 5.1 0 0 Z " fill="#EEEEEE" transform="translate(180,405)"/>
<path d="M0 0 C4.95 0 9.9 0 15 0 C15 4.95 15 9.9 15 15 C10.05 15 5.1 15 0 15 C0 10.05 0 5.1 0 0 Z " fill="#FFFFFF" transform="translate(165,405)"/>
<path d="M0 0 C4.95 0 9.9 0 15 0 C15 4.95 15 9.9 15 15 C10.05 15 5.1 15 0 15 C0 10.05 0 5.1 0 0 Z " fill="#EEEEEE" transform="translate(150,405)"/>
<path d="M0 0 C4.95 0 9.9 0 15 0 C15 4.95 15 9.9 15 15 C10.05 15 5.1 15 0 15 C0 10.05 0 5.1 0 0 Z " fill="#FFFFFF" transform="translate(135,405)"/>
<path d="M0 0 C4.95 0 9.9 0 15 0 C15 4.95 15 9.9 15 15 C10.05 15 5.1 15 0 15 C0 10.05 0 5.1 0 0 Z " fill="#EEEEEE" transform="translate(120,405)"/>
<path d="M0 0 C4.95 0 9.9 0 15 0 C15 4.95 15 9.9 15 15 C10.05 15 5.1 15 0 15 C0 10.05 0 5.1 0 0 Z " fill="#FFFFFF" transform="translate(105,405)"/>
<path d="M0 0 C4.95 0 9.9 0 15 0 C15 4.95 15 9.9 15 15 C10.05 15 5.1 15 0 15 C0 10.05 0 5.1 0 0 Z " fill="#EEEEEE" transform="translate(90,405)"/>
<path d="M0 0 C4.95 0 9.9 0 15 0 C15 4.95 15 9.9 15 15 C10.05 15 5.1 15 0 15 C0 10.05 0 5.1 0 0 Z " fill="#FFFFFF" transform="translate(75,405)"/>
<path d="M0 0 C4.95 0 9.9 0 15 0 C15 4.95 15 9.9 15 15 C10.05 15 5.1 15 0 15 C0 10.05 0 5.1 0 0 Z " fill="#EEEEEE" transform="translate(60,405)"/>
<path d="M0 0 C4.95 0 9.9 0 15 0 C15 4.95 15 9.9 15 15 C10.05 15 5.1 15 0 15 C0 10.05 0 5.1 0 0 Z " fill="#FFFFFF" transform="translate(45,405)"/>
<path d="M0 0 C4.95 0 9.9 0 15 0 C15 4.95 15 9.9 15 15 C10.05 15 5.1 15 0 15 C0 10.05 0 5.1 0 0 Z " fill="#EEEEEE" transform="translate(30,405)"/>
<path d="M0 0 C4.95 0 9.9 0 15 0 C15 4.95 15 9.9 15 15 C10.05 15 5.1 15 0 15 C0 10.05 0 5.1 0 0 Z " fill="#FFFFFF" transform="translate(15,405)"/>
<path d="M0 0 C4.95 0 9.9 0 15 0 C15 4.95 15 9.9 15 15 C10.05 15 5.1 15 0 15 C0 10.05 0 5.1 0 0 Z " fill="#EEEEEE" transform="translate(0,405)"/>
<path d="M0 0 C4.95 0 9.9 0 15 0 C15 4.95 15 9.9 15 15 C10.05 15 5.1 15 0 15 C0 10.05 0 5.1 0 0 Z " fill="#FFFFFF" transform="translate(330,390)"/>
<path d="M0 0 C4.95 0 9.9 0 15 0 C15 4.95 15 9.9 15 15 C10.05 15 5.1 15 0 15 C0 10.05 0 5.1 0 0 Z " fill="#EEEEEE" transform="translate(315,390)"/>
<path d="M0 0 C4.95 0 9.9 0 15 0 C15 4.95 15 9.9 15 15 C10.05 15 5.1 15 0 15 C0 10.05 0 5.1 0 0 Z " fill="#FFFFFF" transform="translate(300,390)"/>
<path d="M0 0 C4.95 0 9.9 0 15 0 C15 4.95 15 9.9 15 15 C10.05 15 5.1 15 0 15 C0 10.05 0 5.1 0 0 Z " fill="#EEEEEE" transform="translate(285,390)"/>
<path d="M0 0 C4.95 0 9.9 0 15 0 C15 4.95 15 9.9 15 15 C10.05 15 5.1 15 0 15 C0 10.05 0 5.1 0 0 Z " fill="#FFFFFF" transform="translate(270,390)"/>
<path d="M0 0 C4.95 0 9.9 0 15 0 C15 4.95 15 9.9 15 15 C10.05 15 5.1 15 0 15 C0 10.05 0 5.1 0 0 Z " fill="#FFFFFF" transform="translate(240,390)"/>
<path d="M0 0 C4.95 0 9.9 0 15 0 C15 4.95 15 9.9 15 15 C10.05 15 5.1 15 0 15 C0 10.05 0 5.1 0 0 Z " fill="#EEEEEE" transform="translate(225,390)"/>
<path d="M0 0 C4.95 0 9.9 0 15 0 C15 4.95 15 9.9 15 15 C10.05 15 5.1 15 0 15 C0 10.05 0 5.1 0 0 Z " fill="#FFFFFF" transform="translate(210,390)"/>
<path d="M0 0 C4.95 0 9.9 0 15 0 C15 4.95 15 9.9 15 15 C10.05 15 5.1 15 0 15 C0 10.05 0 5.1 0 0 Z " fill="#EEEEEE" transform="translate(195,390)"/>
<path d="M0 0 C4.95 0 9.9 0 15 0 C15 4.95 15 9.9 15 15 C10.05 15 5.1 15 0 15 C0 10.05 0 5.1 0 0 Z " fill="#FFFFFF" transform="translate(180,390)"/>
<path d="M0 0 C4.95 0 9.9 0 15 0 C15 4.95 15 9.9 15 15 C10.05 15 5.1 15 0 15 C0 10.05 0 5.1 0 0 Z " fill="#EEEEEE" transform="translate(165,390)"/>
<path d="M0 0 C4.95 0 9.9 0 15 0 C15 4.95 15 9.9 15 15 C10.05 15 5.1 15 0 15 C0 10.05 0 5.1 0 0 Z " fill="#FFFFFF" transform="translate(150,390)"/>
<path d="M0 0 C4.95 0 9.9 0 15 0 C15 4.95 15 9.9 15 15 C10.05 15 5.1 15 0 15 C0 10.05 0 5.1 0 0 Z " fill="#EEEEEE" transform="translate(135,390)"/>
<path d="M0 0 C4.95 0 9.9 0 15 0 C15 4.95 15 9.9 15 15 C10.05 15 5.1 15 0 15 C0 10.05 0 5.1 0 0 Z " fill="#FFFFFF" transform="translate(120,390)"/>
<path d="M0 0 C4.95 0 9.9 0 15 0 C15 4.95 15 9.9 15 15 C10.05 15 5.1 15 0 15 C0 10.05 0 5.1 0 0 Z " fill="#EEEEEE" transform="translate(105,390)"/>
<path d="M0 0 C4.95 0 9.9 0 15 0 C15 4.95 15 9.9 15 15 C10.05 15 5.1 15 0 15 C0 10.05 0 5.1 0 0 Z " fill="#FFFFFF" transform="translate(90,390)"/>
<path d="M0 0 C4.95 0 9.9 0 15 0 C15 4.95 15 9.9 15 15 C10.05 15 5.1 15 0 15 C0 10.05 0 5.1 0 0 Z " fill="#EEEEEE" transform="translate(75,390)"/>
<path d="M0 0 C4.95 0 9.9 0 15 0 C15 4.95 15 9.9 15 15 C10.05 15 5.1 15 0 15 C0 10.05 0 5.1 0 0 Z " fill="#FFFFFF" transform="translate(60,390)"/>
<path d="M0 0 C4.95 0 9.9 0 15 0 C15 4.95 15 9.9 15 15 C10.05 15 5.1 15 0 15 C0 10.05 0 5.1 0 0 Z " fill="#EEEEEE" transform="translate(45,390)"/>
<path d="M0 0 C4.95 0 9.9 0 15 0 C15 4.95 15 9.9 15 15 C10.05 15 5.1 15 0 15 C0 10.05 0 5.1 0 0 Z " fill="#FFFFFF" transform="translate(30,390)"/>
<path d="M0 0 C4.95 0 9.9 0 15 0 C15 4.95 15 9.9 15 15 C10.05 15 5.1 15 0 15 C0 10.05 0 5.1 0 0 Z " fill="#EEEEEE" transform="translate(15,390)"/>
<path d="M0 0 C4.95 0 9.9 0 15 0 C15 4.95 15 9.9 15 15 C10.05 15 5.1 15 0 15 C0 10.05 0 5.1 0 0 Z " fill="#FFFFFF" transform="translate(0,390)"/>
<path d="M0 0 C4.95 0 9.9 0 15 0 C15 4.95 15 9.9 15 15 C10.05 15 5.1 15 0 15 C0 10.05 0 5.1 0 0 Z " fill="#EEEEEE" transform="translate(330,375)"/>
<path d="M0 0 C4.95 0 9.9 0 15 0 C15 4.95 15 9.9 15 15 C10.05 15 5.1 15 0 15 C0 10.05 0 5.1 0 0 Z " fill="#EEEEEE" transform="translate(0,375)"/>
<path d="M0 0 C4.95 0 9.9 0 15 0 C15 4.95 15 9.9 15 15 C10.05 15 5.1 15 0 15 C0 10.05 0 5.1 0 0 Z " fill="#FFFFFF" transform="translate(330,360)"/>
<path d="M0 0 C4.95 0 9.9 0 15 0 C15 4.95 15 9.9 15 15 C10.05 15 5.1 15 0 15 C0 10.05 0 5.1 0 0 Z " fill="#EEEEEE" transform="translate(0,345)"/>
<path d="M0 0 C4.95 0 9.9 0 15 0 C15 4.95 15 9.9 15 15 C10.05 15 5.1 15 0 15 C0 10.05 0 5.1 0 0 Z " fill="#FFFFFF" transform="translate(330,330)"/>
<path d="M0 0 C4.95 0 9.9 0 15 0 C15 4.95 15 9.9 15 15 C10.05 15 5.1 15 0 15 C0 10.05 0 5.1 0 0 Z " fill="#FFFFFF" transform="translate(0,330)"/>
<path d="M0 0 C4.95 0 9.9 0 15 0 C15 4.95 15 9.9 15 15 C10.05 15 5.1 15 0 15 C0 10.05 0 5.1 0 0 Z " fill="#FFFFFF" transform="translate(315,315)"/>
<path d="M0 0 C4.95 0 9.9 0 15 0 C15 4.95 15 9.9 15 15 C10.05 15 5.1 15 0 15 C0 10.05 0 5.1 0 0 Z " fill="#EEEEEE" transform="translate(270,315)"/>
<path d="M0 0 C4.95 0 9.9 0 15 0 C15 4.95 15 9.9 15 15 C10.05 15 5.1 15 0 15 C0 10.05 0 5.1 0 0 Z " fill="#FFFFFF" transform="translate(255,315)"/>
<path d="M0 0 C4.95 0 9.9 0 15 0 C15 4.95 15 9.9 15 15 C10.05 15 5.1 15 0 15 C0 10.05 0 5.1 0 0 Z " fill="#EEEEEE" transform="translate(240,315)"/>
<path d="M0 0 C4.95 0 9.9 0 15 0 C15 4.95 15 9.9 15 15 C10.05 15 5.1 15 0 15 C0 10.05 0 5.1 0 0 Z " fill="#FFFFFF" transform="translate(225,315)"/>
<path d="M0 0 C4.95 0 9.9 0 15 0 C15 4.95 15 9.9 15 15 C10.05 15 5.1 15 0 15 C0 10.05 0 5.1 0 0 Z " fill="#EEEEEE" transform="translate(210,315)"/>
<path d="M0 0 C4.95 0 9.9 0 15 0 C15 4.95 15 9.9 15 15 C10.05 15 5.1 15 0 15 C0 10.05 0 5.1 0 0 Z " fill="#FFFFFF" transform="translate(195,315)"/>
<path d="M0 0 C4.95 0 9.9 0 15 0 C15 4.95 15 9.9 15 15 C10.05 15 5.1 15 0 15 C0 10.05 0 5.1 0 0 Z " fill="#FFFFFF" transform="translate(165,315)"/>
<path d="M0 0 C4.95 0 9.9 0 15 0 C15 4.95 15 9.9 15 15 C10.05 15 5.1 15 0 15 C0 10.05 0 5.1 0 0 Z " fill="#EEEEEE" transform="translate(150,315)"/>
<path d="M0 0 C4.95 0 9.9 0 15 0 C15 4.95 15 9.9 15 15 C10.05 15 5.1 15 0 15 C0 10.05 0 5.1 0 0 Z " fill="#FFFFFF" transform="translate(135,315)"/>
<path d="M0 0 C4.95 0 9.9 0 15 0 C15 4.95 15 9.9 15 15 C10.05 15 5.1 15 0 15 C0 10.05 0 5.1 0 0 Z " fill="#FFFFFF" transform="translate(105,315)"/>
<path d="M0 0 C4.95 0 9.9 0 15 0 C15 4.95 15 9.9 15 15 C10.05 15 5.1 15 0 15 C0 10.05 0 5.1 0 0 Z " fill="#FFFFFF" transform="translate(45,315)"/>
<path d="M0 0 C4.95 0 9.9 0 15 0 C15 4.95 15 9.9 15 15 C10.05 15 5.1 15 0 15 C0 10.05 0 5.1 0 0 Z " fill="#EEEEEE" transform="translate(0,315)"/>
<path d="M0 0 C4.95 0 9.9 0 15 0 C15 4.95 15 9.9 15 15 C10.05 15 5.1 15 0 15 C0 10.05 0 5.1 0 0 Z " fill="#FFFFFF" transform="translate(330,300)"/>
<path d="M0 0 C4.95 0 9.9 0 15 0 C15 4.95 15 9.9 15 15 C10.05 15 5.1 15 0 15 C0 10.05 0 5.1 0 0 Z " fill="#EEEEEE" transform="translate(315,300)"/>
<path d="M0 0 C4.95 0 9.9 0 15 0 C15 4.95 15 9.9 15 15 C10.05 15 5.1 15 0 15 C0 10.05 0 5.1 0 0 Z " fill="#FFFFFF" transform="translate(300,300)"/>
<path d="M0 0 C4.95 0 9.9 0 15 0 C15 4.95 15 9.9 15 15 C10.05 15 5.1 15 0 15 C0 10.05 0 5.1 0 0 Z " fill="#EEEEEE" transform="translate(285,300)"/>
<path d="M0 0 C4.95 0 9.9 0 15 0 C15 4.95 15 9.9 15 15 C10.05 15 5.1 15 0 15 C0 10.05 0 5.1 0 0 Z " fill="#FFFFFF" transform="translate(270,300)"/>
<path d="M0 0 C4.95 0 9.9 0 15 0 C15 4.95 15 9.9 15 15 C10.05 15 5.1 15 0 15 C0 10.05 0 5.1 0 0 Z " fill="#EEEEEE" transform="translate(255,300)"/>
<path d="M0 0 C4.95 0 9.9 0 15 0 C15 4.95 15 9.9 15 15 C10.05 15 5.1 15 0 15 C0 10.05 0 5.1 0 0 Z " fill="#FFFFFF" transform="translate(240,300)"/>
<path d="M0 0 C4.95 0 9.9 0 15 0 C15 4.95 15 9.9 15 15 C10.05 15 5.1 15 0 15 C0 10.05 0 5.1 0 0 Z " fill="#EEEEEE" transform="translate(225,300)"/>
<path d="M0 0 C4.95 0 9.9 0 15 0 C15 4.95 15 9.9 15 15 C10.05 15 5.1 15 0 15 C0 10.05 0 5.1 0 0 Z " fill="#FFFFFF" transform="translate(210,300)"/>
<path d="M0 0 C4.95 0 9.9 0 15 0 C15 4.95 15 9.9 15 15 C10.05 15 5.1 15 0 15 C0 10.05 0 5.1 0 0 Z " fill="#EEEEEE" transform="translate(195,300)"/>
<path d="M0 0 C4.95 0 9.9 0 15 0 C15 4.95 15 9.9 15 15 C10.05 15 5.1 15 0 15 C0 10.05 0 5.1 0 0 Z " fill="#FFFFFF" transform="translate(180,300)"/>
<path d="M0 0 C4.95 0 9.9 0 15 0 C15 4.95 15 9.9 15 15 C10.05 15 5.1 15 0 15 C0 10.05 0 5.1 0 0 Z " fill="#EEEEEE" transform="translate(165,300)"/>
<path d="M0 0 C4.95 0 9.9 0 15 0 C15 4.95 15 9.9 15 15 C10.05 15 5.1 15 0 15 C0 10.05 0 5.1 0 0 Z " fill="#FFFFFF" transform="translate(150,300)"/>
<path d="M0 0 C4.95 0 9.9 0 15 0 C15 4.95 15 9.9 15 15 C10.05 15 5.1 15 0 15 C0 10.05 0 5.1 0 0 Z " fill="#EEEEEE" transform="translate(135,300)"/>
<path d="M0 0 C4.95 0 9.9 0 15 0 C15 4.95 15 9.9 15 15 C10.05 15 5.1 15 0 15 C0 10.05 0 5.1 0 0 Z " fill="#FFFFFF" transform="translate(120,300)"/>
<path d="M0 0 C4.95 0 9.9 0 15 0 C15 4.95 15 9.9 15 15 C10.05 15 5.1 15 0 15 C0 10.05 0 5.1 0 0 Z " fill="#EEEEEE" transform="translate(105,300)"/>
<path d="M0 0 C4.95 0 9.9 0 15 0 C15 4.95 15 9.9 15 15 C10.05 15 5.1 15 0 15 C0 10.05 0 5.1 0 0 Z " fill="#FFFFFF" transform="translate(90,300)"/>
<path d="M0 0 C4.95 0 9.9 0 15 0 C15 4.95 15 9.9 15 15 C10.05 15 5.1 15 0 15 C0 10.05 0 5.1 0 0 Z " fill="#EEEEEE" transform="translate(75,300)"/>
<path d="M0 0 C4.95 0 9.9 0 15 0 C15 4.95 15 9.9 15 15 C10.05 15 5.1 15 0 15 C0 10.05 0 5.1 0 0 Z " fill="#FFFFFF" transform="translate(60,300)"/>
<path d="M0 0 C4.95 0 9.9 0 15 0 C15 4.95 15 9.9 15 15 C10.05 15 5.1 15 0 15 C0 10.05 0 5.1 0 0 Z " fill="#EEEEEE" transform="translate(45,300)"/>
<path d="M0 0 C4.95 0 9.9 0 15 0 C15 4.95 15 9.9 15 15 C10.05 15 5.1 15 0 15 C0 10.05 0 5.1 0 0 Z " fill="#FFFFFF" transform="translate(30,300)"/>
<path d="M0 0 C4.95 0 9.9 0 15 0 C15 4.95 15 9.9 15 15 C10.05 15 5.1 15 0 15 C0 10.05 0 5.1 0 0 Z " fill="#EEEEEE" transform="translate(15,300)"/>
<path d="M0 0 C4.95 0 9.9 0 15 0 C15 4.95 15 9.9 15 15 C10.05 15 5.1 15 0 15 C0 10.05 0 5.1 0 0 Z " fill="#FFFFFF" transform="translate(0,300)"/>
<path d="M0 0 C4.95 0 9.9 0 15 0 C15 4.95 15 9.9 15 15 C10.05 15 5.1 15 0 15 C0 10.05 0 5.1 0 0 Z " fill="#EEEEEE" transform="translate(330,285)"/>
<path d="M0 0 C4.95 0 9.9 0 15 0 C15 4.95 15 9.9 15 15 C10.05 15 5.1 15 0 15 C0 10.05 0 5.1 0 0 Z " fill="#FFFFFF" transform="translate(315,285)"/>
<path d="M0 0 C4.95 0 9.9 0 15 0 C15 4.95 15 9.9 15 15 C10.05 15 5.1 15 0 15 C0 10.05 0 5.1 0 0 Z " fill="#EEEEEE" transform="translate(300,285)"/>
<path d="M0 0 C4.95 0 9.9 0 15 0 C15 4.95 15 9.9 15 15 C10.05 15 5.1 15 0 15 C0 10.05 0 5.1 0 0 Z " fill="#EEEEEE" transform="translate(30,285)"/>
<path d="M0 0 C4.95 0 9.9 0 15 0 C15 4.95 15 9.9 15 15 C10.05 15 5.1 15 0 15 C0 10.05 0 5.1 0 0 Z " fill="#FFFFFF" transform="translate(15,285)"/>
<path d="M0 0 C4.95 0 9.9 0 15 0 C15 4.95 15 9.9 15 15 C10.05 15 5.1 15 0 15 C0 10.05 0 5.1 0 0 Z " fill="#EEEEEE" transform="translate(0,285)"/>
<path d="M0 0 C4.95 0 9.9 0 15 0 C15 4.95 15 9.9 15 15 C10.05 15 5.1 15 0 15 C0 10.05 0 5.1 0 0 Z " fill="#FFFFFF" transform="translate(330,270)"/>
<path d="M0 0 C4.95 0 9.9 0 15 0 C15 4.95 15 9.9 15 15 C10.05 15 5.1 15 0 15 C0 10.05 0 5.1 0 0 Z " fill="#EEEEEE" transform="translate(315,270)"/>
<path d="M0 0 C4.95 0 9.9 0 15 0 C15 4.95 15 9.9 15 15 C10.05 15 5.1 15 0 15 C0 10.05 0 5.1 0 0 Z " fill="#FFFFFF" transform="translate(300,270)"/>
<path d="M0 0 C4.95 0 9.9 0 15 0 C15 4.95 15 9.9 15 15 C10.05 15 5.1 15 0 15 C0 10.05 0 5.1 0 0 Z " fill="#FFFFFF" transform="translate(30,270)"/>
<path d="M0 0 C4.95 0 9.9 0 15 0 C15 4.95 15 9.9 15 15 C10.05 15 5.1 15 0 15 C0 10.05 0 5.1 0 0 Z " fill="#EEEEEE" transform="translate(15,270)"/>
<path d="M0 0 C4.95 0 9.9 0 15 0 C15 4.95 15 9.9 15 15 C10.05 15 5.1 15 0 15 C0 10.05 0 5.1 0 0 Z " fill="#FFFFFF" transform="translate(0,270)"/>
<path d="M0 0 C4.95 0 9.9 0 15 0 C15 4.95 15 9.9 15 15 C10.05 15 5.1 15 0 15 C0 10.05 0 5.1 0 0 Z " fill="#EEEEEE" transform="translate(330,255)"/>
<path d="M0 0 C4.95 0 9.9 0 15 0 C15 4.95 15 9.9 15 15 C10.05 15 5.1 15 0 15 C0 10.05 0 5.1 0 0 Z " fill="#FFFFFF" transform="translate(315,255)"/>
<path d="M0 0 C4.95 0 9.9 0 15 0 C15 4.95 15 9.9 15 15 C10.05 15 5.1 15 0 15 C0 10.05 0 5.1 0 0 Z " fill="#EEEEEE" transform="translate(300,255)"/>
<path d="M0 0 C4.95 0 9.9 0 15 0 C15 4.95 15 9.9 15 15 C10.05 15 5.1 15 0 15 C0 10.05 0 5.1 0 0 Z " fill="#EEEEEE" transform="translate(30,255)"/>
<path d="M0 0 C4.95 0 9.9 0 15 0 C15 4.95 15 9.9 15 15 C10.05 15 5.1 15 0 15 C0 10.05 0 5.1 0 0 Z " fill="#FFFFFF" transform="translate(15,255)"/>
<path d="M0 0 C4.95 0 9.9 0 15 0 C15 4.95 15 9.9 15 15 C10.05 15 5.1 15 0 15 C0 10.05 0 5.1 0 0 Z " fill="#EEEEEE" transform="translate(0,255)"/>
<path d="M0 0 C4.95 0 9.9 0 15 0 C15 4.95 15 9.9 15 15 C10.05 15 5.1 15 0 15 C0 10.05 0 5.1 0 0 Z " fill="#FFFFFF" transform="translate(330,240)"/>
<path d="M0 0 C4.95 0 9.9 0 15 0 C15 4.95 15 9.9 15 15 C10.05 15 5.1 15 0 15 C0 10.05 0 5.1 0 0 Z " fill="#EEEEEE" transform="translate(315,240)"/>
<path d="M0 0 C4.95 0 9.9 0 15 0 C15 4.95 15 9.9 15 15 C10.05 15 5.1 15 0 15 C0 10.05 0 5.1 0 0 Z " fill="#FFFFFF" transform="translate(300,240)"/>
<path d="M0 0 C4.95 0 9.9 0 15 0 C15 4.95 15 9.9 15 15 C10.05 15 5.1 15 0 15 C0 10.05 0 5.1 0 0 Z " fill="#FFFFFF" transform="translate(30,240)"/>
<path d="M0 0 C4.95 0 9.9 0 15 0 C15 4.95 15 9.9 15 15 C10.05 15 5.1 15 0 15 C0 10.05 0 5.1 0 0 Z " fill="#EEEEEE" transform="translate(15,240)"/>
<path d="M0 0 C4.95 0 9.9 0 15 0 C15 4.95 15 9.9 15 15 C10.05 15 5.1 15 0 15 C0 10.05 0 5.1 0 0 Z " fill="#FFFFFF" transform="translate(0,240)"/>
<path d="M0 0 C4.95 0 9.9 0 15 0 C15 4.95 15 9.9 15 15 C10.05 15 5.1 15 0 15 C0 10.05 0 5.1 0 0 Z " fill="#EEEEEE" transform="translate(330,225)"/>
<path d="M0 0 C4.95 0 9.9 0 15 0 C15 4.95 15 9.9 15 15 C10.05 15 5.1 15 0 15 C0 10.05 0 5.1 0 0 Z " fill="#FFFFFF" transform="translate(315,225)"/>
<path d="M0 0 C4.95 0 9.9 0 15 0 C15 4.95 15 9.9 15 15 C10.05 15 5.1 15 0 15 C0 10.05 0 5.1 0 0 Z " fill="#EEEEEE" transform="translate(300,225)"/>
<path d="M0 0 C4.95 0 9.9 0 15 0 C15 4.95 15 9.9 15 15 C10.05 15 5.1 15 0 15 C0 10.05 0 5.1 0 0 Z " fill="#EEEEEE" transform="translate(30,225)"/>
<path d="M0 0 C4.95 0 9.9 0 15 0 C15 4.95 15 9.9 15 15 C10.05 15 5.1 15 0 15 C0 10.05 0 5.1 0 0 Z " fill="#FFFFFF" transform="translate(15,225)"/>
<path d="M0 0 C4.95 0 9.9 0 15 0 C15 4.95 15 9.9 15 15 C10.05 15 5.1 15 0 15 C0 10.05 0 5.1 0 0 Z " fill="#EEEEEE" transform="translate(0,225)"/>
<path d="M0 0 C4.95 0 9.9 0 15 0 C15 4.95 15 9.9 15 15 C10.05 15 5.1 15 0 15 C0 10.05 0 5.1 0 0 Z " fill="#FFFFFF" transform="translate(330,210)"/>
<path d="M0 0 C4.95 0 9.9 0 15 0 C15 4.95 15 9.9 15 15 C10.05 15 5.1 15 0 15 C0 10.05 0 5.1 0 0 Z " fill="#EEEEEE" transform="translate(315,210)"/>
<path d="M0 0 C4.95 0 9.9 0 15 0 C15 4.95 15 9.9 15 15 C10.05 15 5.1 15 0 15 C0 10.05 0 5.1 0 0 Z " fill="#FFFFFF" transform="translate(300,210)"/>
<path d="M0 0 C4.95 0 9.9 0 15 0 C15 4.95 15 9.9 15 15 C10.05 15 5.1 15 0 15 C0 10.05 0 5.1 0 0 Z " fill="#FFFFFF" transform="translate(30,210)"/>
<path d="M0 0 C4.95 0 9.9 0 15 0 C15 4.95 15 9.9 15 15 C10.05 15 5.1 15 0 15 C0 10.05 0 5.1 0 0 Z " fill="#EEEEEE" transform="translate(15,210)"/>
<path d="M0 0 C4.95 0 9.9 0 15 0 C15 4.95 15 9.9 15 15 C10.05 15 5.1 15 0 15 C0 10.05 0 5.1 0 0 Z " fill="#FFFFFF" transform="translate(0,210)"/>
<path d="M0 0 C4.95 0 9.9 0 15 0 C15 4.95 15 9.9 15 15 C10.05 15 5.1 15 0 15 C0 10.05 0 5.1 0 0 Z " fill="#EEEEEE" transform="translate(330,195)"/>
<path d="M0 0 C4.95 0 9.9 0 15 0 C15 4.95 15 9.9 15 15 C10.05 15 5.1 15 0 15 C0 10.05 0 5.1 0 0 Z " fill="#FFFFFF" transform="translate(315,195)"/>
<path d="M0 0 C4.95 0 9.9 0 15 0 C15 4.95 15 9.9 15 15 C10.05 15 5.1 15 0 15 C0 10.05 0 5.1 0 0 Z " fill="#EEEEEE" transform="translate(300,195)"/>
<path d="M0 0 C4.95 0 9.9 0 15 0 C15 4.95 15 9.9 15 15 C10.05 15 5.1 15 0 15 C0 10.05 0 5.1 0 0 Z " fill="#EEEEEE" transform="translate(30,195)"/>
<path d="M0 0 C4.95 0 9.9 0 15 0 C15 4.95 15 9.9 15 15 C10.05 15 5.1 15 0 15 C0 10.05 0 5.1 0 0 Z " fill="#FFFFFF" transform="translate(15,195)"/>
<path d="M0 0 C4.95 0 9.9 0 15 0 C15 4.95 15 9.9 15 15 C10.05 15 5.1 15 0 15 C0 10.05 0 5.1 0 0 Z " fill="#EEEEEE" transform="translate(0,195)"/>
<path d="M0 0 C4.95 0 9.9 0 15 0 C15 4.95 15 9.9 15 15 C10.05 15 5.1 15 0 15 C0 10.05 0 5.1 0 0 Z " fill="#FFFFFF" transform="translate(330,180)"/>
<path d="M0 0 C4.95 0 9.9 0 15 0 C15 4.95 15 9.9 15 15 C10.05 15 5.1 15 0 15 C0 10.05 0 5.1 0 0 Z " fill="#EEEEEE" transform="translate(315,180)"/>
<path d="M0 0 C4.95 0 9.9 0 15 0 C15 4.95 15 9.9 15 15 C10.05 15 5.1 15 0 15 C0 10.05 0 5.1 0 0 Z " fill="#FFFFFF" transform="translate(300,180)"/>
<path d="M0 0 C4.95 0 9.9 0 15 0 C15 4.95 15 9.9 15 15 C10.05 15 5.1 15 0 15 C0 10.05 0 5.1 0 0 Z " fill="#FFFFFF" transform="translate(30,180)"/>
<path d="M0 0 C4.95 0 9.9 0 15 0 C15 4.95 15 9.9 15 15 C10.05 15 5.1 15 0 15 C0 10.05 0 5.1 0 0 Z " fill="#EEEEEE" transform="translate(15,180)"/>
<path d="M0 0 C4.95 0 9.9 0 15 0 C15 4.95 15 9.9 15 15 C10.05 15 5.1 15 0 15 C0 10.05 0 5.1 0 0 Z " fill="#FFFFFF" transform="translate(0,180)"/>
<path d="M0 0 C4.95 0 9.9 0 15 0 C15 4.95 15 9.9 15 15 C10.05 15 5.1 15 0 15 C0 10.05 0 5.1 0 0 Z " fill="#EEEEEE" transform="translate(330,165)"/>
<path d="M0 0 C4.95 0 9.9 0 15 0 C15 4.95 15 9.9 15 15 C10.05 15 5.1 15 0 15 C0 10.05 0 5.1 0 0 Z " fill="#FFFFFF" transform="translate(315,165)"/>
<path d="M0 0 C4.95 0 9.9 0 15 0 C15 4.95 15 9.9 15 15 C10.05 15 5.1 15 0 15 C0 10.05 0 5.1 0 0 Z " fill="#EEEEEE" transform="translate(300,165)"/>
<path d="M0 0 C4.95 0 9.9 0 15 0 C15 4.95 15 9.9 15 15 C10.05 15 5.1 15 0 15 C0 10.05 0 5.1 0 0 Z " fill="#EEEEEE" transform="translate(30,165)"/>
<path d="M0 0 C4.95 0 9.9 0 15 0 C15 4.95 15 9.9 15 15 C10.05 15 5.1 15 0 15 C0 10.05 0 5.1 0 0 Z " fill="#FFFFFF" transform="translate(15,165)"/>
<path d="M0 0 C4.95 0 9.9 0 15 0 C15 4.95 15 9.9 15 15 C10.05 15 5.1 15 0 15 C0 10.05 0 5.1 0 0 Z " fill="#EEEEEE" transform="translate(0,165)"/>
<path d="M0 0 C4.95 0 9.9 0 15 0 C15 4.95 15 9.9 15 15 C10.05 15 5.1 15 0 15 C0 10.05 0 5.1 0 0 Z " fill="#FFFFFF" transform="translate(330,150)"/>
<path d="M0 0 C4.95 0 9.9 0 15 0 C15 4.95 15 9.9 15 15 C10.05 15 5.1 15 0 15 C0 10.05 0 5.1 0 0 Z " fill="#EEEEEE" transform="translate(315,150)"/>
<path d="M0 0 C4.95 0 9.9 0 15 0 C15 4.95 15 9.9 15 15 C10.05 15 5.1 15 0 15 C0 10.05 0 5.1 0 0 Z " fill="#FFFFFF" transform="translate(300,150)"/>
<path d="M0 0 C4.95 0 9.9 0 15 0 C15 4.95 15 9.9 15 15 C10.05 15 5.1 15 0 15 C0 10.05 0 5.1 0 0 Z " fill="#FFFFFF" transform="translate(30,150)"/>
<path d="M0 0 C4.95 0 9.9 0 15 0 C15 4.95 15 9.9 15 15 C10.05 15 5.1 15 0 15 C0 10.05 0 5.1 0 0 Z " fill="#EEEEEE" transform="translate(15,150)"/>
<path d="M0 0 C4.95 0 9.9 0 15 0 C15 4.95 15 9.9 15 15 C10.05 15 5.1 15 0 15 C0 10.05 0 5.1 0 0 Z " fill="#FFFFFF" transform="translate(0,150)"/>
<path d="M0 0 C4.95 0 9.9 0 15 0 C15 4.95 15 9.9 15 15 C10.05 15 5.1 15 0 15 C0 10.05 0 5.1 0 0 Z " fill="#EEEEEE" transform="translate(330,135)"/>
<path d="M0 0 C4.95 0 9.9 0 15 0 C15 4.95 15 9.9 15 15 C10.05 15 5.1 15 0 15 C0 10.05 0 5.1 0 0 Z " fill="#FFFFFF" transform="translate(315,135)"/>
<path d="M0 0 C4.95 0 9.9 0 15 0 C15 4.95 15 9.9 15 15 C10.05 15 5.1 15 0 15 C0 10.05 0 5.1 0 0 Z " fill="#EEEEEE" transform="translate(300,135)"/>
<path d="M0 0 C4.95 0 9.9 0 15 0 C15 4.95 15 9.9 15 15 C10.05 15 5.1 15 0 15 C0 10.05 0 5.1 0 0 Z " fill="#EEEEEE" transform="translate(30,135)"/>
<path d="M0 0 C4.95 0 9.9 0 15 0 C15 4.95 15 9.9 15 15 C10.05 15 5.1 15 0 15 C0 10.05 0 5.1 0 0 Z " fill="#FFFFFF" transform="translate(15,135)"/>
<path d="M0 0 C4.95 0 9.9 0 15 0 C15 4.95 15 9.9 15 15 C10.05 15 5.1 15 0 15 C0 10.05 0 5.1 0 0 Z " fill="#EEEEEE" transform="translate(0,135)"/>
<path d="M0 0 C4.95 0 9.9 0 15 0 C15 4.95 15 9.9 15 15 C10.05 15 5.1 15 0 15 C0 10.05 0 5.1 0 0 Z " fill="#FFFFFF" transform="translate(330,120)"/>
<path d="M0 0 C4.95 0 9.9 0 15 0 C15 4.95 15 9.9 15 15 C10.05 15 5.1 15 0 15 C0 10.05 0 5.1 0 0 Z " fill="#EEEEEE" transform="translate(315,120)"/>
<path d="M0 0 C4.95 0 9.9 0 15 0 C15 4.95 15 9.9 15 15 C10.05 15 5.1 15 0 15 C0 10.05 0 5.1 0 0 Z " fill="#FFFFFF" transform="translate(300,120)"/>
<path d="M0 0 C4.95 0 9.9 0 15 0 C15 4.95 15 9.9 15 15 C10.05 15 5.1 15 0 15 C0 10.05 0 5.1 0 0 Z " fill="#FFFFFF" transform="translate(30,120)"/>
<path d="M0 0 C4.95 0 9.9 0 15 0 C15 4.95 15 9.9 15 15 C10.05 15 5.1 15 0 15 C0 10.05 0 5.1 0 0 Z " fill="#EEEEEE" transform="translate(15,120)"/>
<path d="M0 0 C4.95 0 9.9 0 15 0 C15 4.95 15 9.9 15 15 C10.05 15 5.1 15 0 15 C0 10.05 0 5.1 0 0 Z " fill="#FFFFFF" transform="translate(0,120)"/>
<path d="M0 0 C4.95 0 9.9 0 15 0 C15 4.95 15 9.9 15 15 C10.05 15 5.1 15 0 15 C0 10.05 0 5.1 0 0 Z " fill="#EEEEEE" transform="translate(330,105)"/>
<path d="M0 0 C4.95 0 9.9 0 15 0 C15 4.95 15 9.9 15 15 C10.05 15 5.1 15 0 15 C0 10.05 0 5.1 0 0 Z " fill="#FFFFFF" transform="translate(315,105)"/>
<path d="M0 0 C4.95 0 9.9 0 15 0 C15 4.95 15 9.9 15 15 C10.05 15 5.1 15 0 15 C0 10.05 0 5.1 0 0 Z " fill="#EEEEEE" transform="translate(300,105)"/>
<path d="M0 0 C4.95 0 9.9 0 15 0 C15 4.95 15 9.9 15 15 C10.05 15 5.1 15 0 15 C0 10.05 0 5.1 0 0 Z " fill="#EEEEEE" transform="translate(30,105)"/>
<path d="M0 0 C4.95 0 9.9 0 15 0 C15 4.95 15 9.9 15 15 C10.05 15 5.1 15 0 15 C0 10.05 0 5.1 0 0 Z " fill="#FFFFFF" transform="translate(15,105)"/>
<path d="M0 0 C4.95 0 9.9 0 15 0 C15 4.95 15 9.9 15 15 C10.05 15 5.1 15 0 15 C0 10.05 0 5.1 0 0 Z " fill="#EEEEEE" transform="translate(0,105)"/>
<path d="M0 0 C4.95 0 9.9 0 15 0 C15 4.95 15 9.9 15 15 C10.05 15 5.1 15 0 15 C0 10.05 0 5.1 0 0 Z " fill="#FFFFFF" transform="translate(330,90)"/>
<path d="M0 0 C4.95 0 9.9 0 15 0 C15 4.95 15 9.9 15 15 C10.05 15 5.1 15 0 15 C0 10.05 0 5.1 0 0 Z " fill="#EEEEEE" transform="translate(315,90)"/>
<path d="M0 0 C4.95 0 9.9 0 15 0 C15 4.95 15 9.9 15 15 C10.05 15 5.1 15 0 15 C0 10.05 0 5.1 0 0 Z " fill="#FFFFFF" transform="translate(300,90)"/>
<path d="M0 0 C4.95 0 9.9 0 15 0 C15 4.95 15 9.9 15 15 C10.05 15 5.1 15 0 15 C0 10.05 0 5.1 0 0 Z " fill="#FFFFFF" transform="translate(30,90)"/>
<path d="M0 0 C4.95 0 9.9 0 15 0 C15 4.95 15 9.9 15 15 C10.05 15 5.1 15 0 15 C0 10.05 0 5.1 0 0 Z " fill="#EEEEEE" transform="translate(15,90)"/>
<path d="M0 0 C4.95 0 9.9 0 15 0 C15 4.95 15 9.9 15 15 C10.05 15 5.1 15 0 15 C0 10.05 0 5.1 0 0 Z " fill="#FFFFFF" transform="translate(0,90)"/>
<path d="M0 0 C4.95 0 9.9 0 15 0 C15 4.95 15 9.9 15 15 C10.05 15 5.1 15 0 15 C0 10.05 0 5.1 0 0 Z " fill="#EEEEEE" transform="translate(330,75)"/>
<path d="M0 0 C4.95 0 9.9 0 15 0 C15 4.95 15 9.9 15 15 C10.05 15 5.1 15 0 15 C0 10.05 0 5.1 0 0 Z " fill="#FFFFFF" transform="translate(315,75)"/>
<path d="M0 0 C4.95 0 9.9 0 15 0 C15 4.95 15 9.9 15 15 C10.05 15 5.1 15 0 15 C0 10.05 0 5.1 0 0 Z " fill="#EEEEEE" transform="translate(300,75)"/>
<path d="M0 0 C4.95 0 9.9 0 15 0 C15 4.95 15 9.9 15 15 C10.05 15 5.1 15 0 15 C0 10.05 0 5.1 0 0 Z " fill="#EEEEEE" transform="translate(30,75)"/>
<path d="M0 0 C4.95 0 9.9 0 15 0 C15 4.95 15 9.9 15 15 C10.05 15 5.1 15 0 15 C0 10.05 0 5.1 0 0 Z " fill="#FFFFFF" transform="translate(15,75)"/>
<path d="M0 0 C4.95 0 9.9 0 15 0 C15 4.95 15 9.9 15 15 C10.05 15 5.1 15 0 15 C0 10.05 0 5.1 0 0 Z " fill="#EEEEEE" transform="translate(0,75)"/>
<path d="M0 0 C4.95 0 9.9 0 15 0 C15 4.95 15 9.9 15 15 C10.05 15 5.1 15 0 15 C0 10.05 0 5.1 0 0 Z " fill="#FFFFFF" transform="translate(330,60)"/>
<path d="M0 0 C4.95 0 9.9 0 15 0 C15 4.95 15 9.9 15 15 C10.05 15 5.1 15 0 15 C0 10.05 0 5.1 0 0 Z " fill="#EEEEEE" transform="translate(315,60)"/>
<path d="M0 0 C4.95 0 9.9 0 15 0 C15 4.95 15 9.9 15 15 C10.05 15 5.1 15 0 15 C0 10.05 0 5.1 0 0 Z " fill="#FFFFFF" transform="translate(300,60)"/>
<path d="M0 0 C4.95 0 9.9 0 15 0 C15 4.95 15 9.9 15 15 C10.05 15 5.1 15 0 15 C0 10.05 0 5.1 0 0 Z " fill="#FFFFFF" transform="translate(30,60)"/>
<path d="M0 0 C4.95 0 9.9 0 15 0 C15 4.95 15 9.9 15 15 C10.05 15 5.1 15 0 15 C0 10.05 0 5.1 0 0 Z " fill="#EEEEEE" transform="translate(15,60)"/>
<path d="M0 0 C4.95 0 9.9 0 15 0 C15 4.95 15 9.9 15 15 C10.05 15 5.1 15 0 15 C0 10.05 0 5.1 0 0 Z " fill="#FFFFFF" transform="translate(0,60)"/>
<path d="M0 0 C4.95 0 9.9 0 15 0 C15 4.95 15 9.9 15 15 C10.05 15 5.1 15 0 15 C0 10.05 0 5.1 0 0 Z " fill="#EEEEEE" transform="translate(330,45)"/>
<path d="M0 0 C4.95 0 9.9 0 15 0 C15 4.95 15 9.9 15 15 C10.05 15 5.1 15 0 15 C0 10.05 0 5.1 0 0 Z " fill="#FFFFFF" transform="translate(315,45)"/>
<path d="M0 0 C4.95 0 9.9 0 15 0 C15 4.95 15 9.9 15 15 C10.05 15 5.1 15 0 15 C0 10.05 0 5.1 0 0 Z " fill="#EEEEEE" transform="translate(300,45)"/>
<path d="M0 0 C4.95 0 9.9 0 15 0 C15 4.95 15 9.9 15 15 C10.05 15 5.1 15 0 15 C0 10.05 0 5.1 0 0 Z " fill="#EEEEEE" transform="translate(30,45)"/>
<path d="M0 0 C4.95 0 9.9 0 15 0 C15 4.95 15 9.9 15 15 C10.05 15 5.1 15 0 15 C0 10.05 0 5.1 0 0 Z " fill="#FFFFFF" transform="translate(15,45)"/>
<path d="M0 0 C4.95 0 9.9 0 15 0 C15 4.95 15 9.9 15 15 C10.05 15 5.1 15 0 15 C0 10.05 0 5.1 0 0 Z " fill="#EEEEEE" transform="translate(0,45)"/>
<path d="M0 0 C4.95 0 9.9 0 15 0 C15 4.95 15 9.9 15 15 C10.05 15 5.1 15 0 15 C0 10.05 0 5.1 0 0 Z " fill="#FFFFFF" transform="translate(330,30)"/>
<path d="M0 0 C4.95 0 9.9 0 15 0 C15 4.95 15 9.9 15 15 C10.05 15 5.1 15 0 15 C0 10.05 0 5.1 0 0 Z " fill="#EEEEEE" transform="translate(315,30)"/>
<path d="M0 0 C4.95 0 9.9 0 15 0 C15 4.95 15 9.9 15 15 C10.05 15 5.1 15 0 15 C0 10.05 0 5.1 0 0 Z " fill="#FFFFFF" transform="translate(300,30)"/>
<path d="M0 0 C4.95 0 9.9 0 15 0 C15 4.95 15 9.9 15 15 C10.05 15 5.1 15 0 15 C0 10.05 0 5.1 0 0 Z " fill="#EEEEEE" transform="translate(285,30)"/>
<path d="M0 0 C4.95 0 9.9 0 15 0 C15 4.95 15 9.9 15 15 C10.05 15 5.1 15 0 15 C0 10.05 0 5.1 0 0 Z " fill="#FFFFFF" transform="translate(270,30)"/>
<path d="M0 0 C4.95 0 9.9 0 15 0 C15 4.95 15 9.9 15 15 C10.05 15 5.1 15 0 15 C0 10.05 0 5.1 0 0 Z " fill="#EEEEEE" transform="translate(255,30)"/>
<path d="M0 0 C4.95 0 9.9 0 15 0 C15 4.95 15 9.9 15 15 C10.05 15 5.1 15 0 15 C0 10.05 0 5.1 0 0 Z " fill="#FFFFFF" transform="translate(240,30)"/>
<path d="M0 0 C4.95 0 9.9 0 15 0 C15 4.95 15 9.9 15 15 C10.05 15 5.1 15 0 15 C0 10.05 0 5.1 0 0 Z " fill="#EEEEEE" transform="translate(225,30)"/>
<path d="M0 0 C4.95 0 9.9 0 15 0 C15 4.95 15 9.9 15 15 C10.05 15 5.1 15 0 15 C0 10.05 0 5.1 0 0 Z " fill="#FFFFFF" transform="translate(210,30)"/>
<path d="M0 0 C4.95 0 9.9 0 15 0 C15 4.95 15 9.9 15 15 C10.05 15 5.1 15 0 15 C0 10.05 0 5.1 0 0 Z " fill="#EEEEEE" transform="translate(195,30)"/>
<path d="M0 0 C4.95 0 9.9 0 15 0 C15 4.95 15 9.9 15 15 C10.05 15 5.1 15 0 15 C0 10.05 0 5.1 0 0 Z " fill="#FFFFFF" transform="translate(180,30)"/>
<path d="M0 0 C4.95 0 9.9 0 15 0 C15 4.95 15 9.9 15 15 C10.05 15 5.1 15 0 15 C0 10.05 0 5.1 0 0 Z " fill="#EEEEEE" transform="translate(165,30)"/>
<path d="M0 0 C4.95 0 9.9 0 15 0 C15 4.95 15 9.9 15 15 C10.05 15 5.1 15 0 15 C0 10.05 0 5.1 0 0 Z " fill="#FFFFFF" transform="translate(150,30)"/>
<path d="M0 0 C4.95 0 9.9 0 15 0 C15 4.95 15 9.9 15 15 C10.05 15 5.1 15 0 15 C0 10.05 0 5.1 0 0 Z " fill="#EEEEEE" transform="translate(135,30)"/>
<path d="M0 0 C4.95 0 9.9 0 15 0 C15 4.95 15 9.9 15 15 C10.05 15 5.1 15 0 15 C0 10.05 0 5.1 0 0 Z " fill="#FFFFFF" transform="translate(120,30)"/>
<path d="M0 0 C4.95 0 9.9 0 15 0 C15 4.95 15 9.9 15 15 C10.05 15 5.1 15 0 15 C0 10.05 0 5.1 0 0 Z " fill="#EEEEEE" transform="translate(105,30)"/>
<path d="M0 0 C4.95 0 9.9 0 15 0 C15 4.95 15 9.9 15 15 C10.05 15 5.1 15 0 15 C0 10.05 0 5.1 0 0 Z " fill="#FFFFFF" transform="translate(90,30)"/>
<path d="M0 0 C4.95 0 9.9 0 15 0 C15 4.95 15 9.9 15 15 C10.05 15 5.1 15 0 15 C0 10.05 0 5.1 0 0 Z " fill="#EEEEEE" transform="translate(75,30)"/>
<path d="M0 0 C4.95 0 9.9 0 15 0 C15 4.95 15 9.9 15 15 C10.05 15 5.1 15 0 15 C0 10.05 0 5.1 0 0 Z " fill="#FFFFFF" transform="translate(60,30)"/>
<path d="M0 0 C4.95 0 9.9 0 15 0 C15 4.95 15 9.9 15 15 C10.05 15 5.1 15 0 15 C0 10.05 0 5.1 0 0 Z " fill="#EEEEEE" transform="translate(45,30)"/>
<path d="M0 0 C4.95 0 9.9 0 15 0 C15 4.95 15 9.9 15 15 C10.05 15 5.1 15 0 15 C0 10.05 0 5.1 0 0 Z " fill="#FFFFFF" transform="translate(30,30)"/>
<path d="M0 0 C4.95 0 9.9 0 15 0 C15 4.95 15 9.9 15 15 C10.05 15 5.1 15 0 15 C0 10.05 0 5.1 0 0 Z " fill="#EEEEEE" transform="translate(15,30)"/>
<path d="M0 0 C4.95 0 9.9 0 15 0 C15 4.95 15 9.9 15 15 C10.05 15 5.1 15 0 15 C0 10.05 0 5.1 0 0 Z " fill="#FFFFFF" transform="translate(0,30)"/>
<path d="M0 0 C4.95 0 9.9 0 15 0 C15 4.95 15 9.9 15 15 C10.05 15 5.1 15 0 15 C0 10.05 0 5.1 0 0 Z " fill="#EEEEEE" transform="translate(330,15)"/>
<path d="M0 0 C4.95 0 9.9 0 15 0 C15 4.95 15 9.9 15 15 C10.05 15 5.1 15 0 15 C0 10.05 0 5.1 0 0 Z " fill="#FFFFFF" transform="translate(315,15)"/>
<path d="M0 0 C4.95 0 9.9 0 15 0 C15 4.95 15 9.9 15 15 C10.05 15 5.1 15 0 15 C0 10.05 0 5.1 0 0 Z " fill="#EEEEEE" transform="translate(300,15)"/>
<path d="M0 0 C4.95 0 9.9 0 15 0 C15 4.95 15 9.9 15 15 C10.05 15 5.1 15 0 15 C0 10.05 0 5.1 0 0 Z " fill="#FFFFFF" transform="translate(285,15)"/>
<path d="M0 0 C4.95 0 9.9 0 15 0 C15 4.95 15 9.9 15 15 C10.05 15 5.1 15 0 15 C0 10.05 0 5.1 0 0 Z " fill="#EEEEEE" transform="translate(270,15)"/>
<path d="M0 0 C4.95 0 9.9 0 15 0 C15 4.95 15 9.9 15 15 C10.05 15 5.1 15 0 15 C0 10.05 0 5.1 0 0 Z " fill="#FFFFFF" transform="translate(255,15)"/>
<path d="M0 0 C4.95 0 9.9 0 15 0 C15 4.95 15 9.9 15 15 C10.05 15 5.1 15 0 15 C0 10.05 0 5.1 0 0 Z " fill="#EEEEEE" transform="translate(240,15)"/>
<path d="M0 0 C4.95 0 9.9 0 15 0 C15 4.95 15 9.9 15 15 C10.05 15 5.1 15 0 15 C0 10.05 0 5.1 0 0 Z " fill="#FFFFFF" transform="translate(225,15)"/>
<path d="M0 0 C4.95 0 9.9 0 15 0 C15 4.95 15 9.9 15 15 C10.05 15 5.1 15 0 15 C0 10.05 0 5.1 0 0 Z " fill="#EEEEEE" transform="translate(210,15)"/>
<path d="M0 0 C4.95 0 9.9 0 15 0 C15 4.95 15 9.9 15 15 C10.05 15 5.1 15 0 15 C0 10.05 0 5.1 0 0 Z " fill="#FFFFFF" transform="translate(195,15)"/>
<path d="M0 0 C4.95 0 9.9 0 15 0 C15 4.95 15 9.9 15 15 C10.05 15 5.1 15 0 15 C0 10.05 0 5.1 0 0 Z " fill="#EEEEEE" transform="translate(180,15)"/>
<path d="M0 0 C4.95 0 9.9 0 15 0 C15 4.95 15 9.9 15 15 C10.05 15 5.1 15 0 15 C0 10.05 0 5.1 0 0 Z " fill="#FFFFFF" transform="translate(165,15)"/>
<path d="M0 0 C4.95 0 9.9 0 15 0 C15 4.95 15 9.9 15 15 C10.05 15 5.1 15 0 15 C0 10.05 0 5.1 0 0 Z " fill="#EEEEEE" transform="translate(150,15)"/>
<path d="M0 0 C4.95 0 9.9 0 15 0 C15 4.95 15 9.9 15 15 C10.05 15 5.1 15 0 15 C0 10.05 0 5.1 0 0 Z " fill="#FFFFFF" transform="translate(135,15)"/>
<path d="M0 0 C4.95 0 9.9 0 15 0 C15 4.95 15 9.9 15 15 C10.05 15 5.1 15 0 15 C0 10.05 0 5.1 0 0 Z " fill="#EEEEEE" transform="translate(120,15)"/>
<path d="M0 0 C4.95 0 9.9 0 15 0 C15 4.95 15 9.9 15 15 C10.05 15 5.1 15 0 15 C0 10.05 0 5.1 0 0 Z " fill="#FFFFFF" transform="translate(105,15)"/>
<path d="M0 0 C4.95 0 9.9 0 15 0 C15 4.95 15 9.9 15 15 C10.05 15 5.1 15 0 15 C0 10.05 0 5.1 0 0 Z " fill="#EEEEEE" transform="translate(90,15)"/>
<path d="M0 0 C4.95 0 9.9 0 15 0 C15 4.95 15 9.9 15 15 C10.05 15 5.1 15 0 15 C0 10.05 0 5.1 0 0 Z " fill="#FFFFFF" transform="translate(75,15)"/>
<path d="M0 0 C4.95 0 9.9 0 15 0 C15 4.95 15 9.9 15 15 C10.05 15 5.1 15 0 15 C0 10.05 0 5.1 0 0 Z " fill="#EEEEEE" transform="translate(60,15)"/>
<path d="M0 0 C4.95 0 9.9 0 15 0 C15 4.95 15 9.9 15 15 C10.05 15 5.1 15 0 15 C0 10.05 0 5.1 0 0 Z " fill="#FFFFFF" transform="translate(45,15)"/>
<path d="M0 0 C4.95 0 9.9 0 15 0 C15 4.95 15 9.9 15 15 C10.05 15 5.1 15 0 15 C0 10.05 0 5.1 0 0 Z " fill="#EEEEEE" transform="translate(30,15)"/>
<path d="M0 0 C4.95 0 9.9 0 15 0 C15 4.95 15 9.9 15 15 C10.05 15 5.1 15 0 15 C0 10.05 0 5.1 0 0 Z " fill="#FFFFFF" transform="translate(15,15)"/>
<path d="M0 0 C4.95 0 9.9 0 15 0 C15 4.95 15 9.9 15 15 C10.05 15 5.1 15 0 15 C0 10.05 0 5.1 0 0 Z " fill="#EEEEEE" transform="translate(0,15)"/>
<path d="M0 0 C4.95 0 9.9 0 15 0 C15 4.95 15 9.9 15 15 C10.05 15 5.1 15 0 15 C0 10.05 0 5.1 0 0 Z " fill="#EEEEEE" transform="translate(315,0)"/>
<path d="M0 0 C4.95 0 9.9 0 15 0 C15 4.95 15 9.9 15 15 C10.05 15 5.1 15 0 15 C0 10.05 0 5.1 0 0 Z " fill="#FFFFFF" transform="translate(300,0)"/>
<path d="M0 0 C4.95 0 9.9 0 15 0 C15 4.95 15 9.9 15 15 C10.05 15 5.1 15 0 15 C0 10.05 0 5.1 0 0 Z " fill="#EEEEEE" transform="translate(285,0)"/>
<path d="M0 0 C4.95 0 9.9 0 15 0 C15 4.95 15 9.9 15 15 C10.05 15 5.1 15 0 15 C0 10.05 0 5.1 0 0 Z " fill="#FFFFFF" transform="translate(270,0)"/>
<path d="M0 0 C4.95 0 9.9 0 15 0 C15 4.95 15 9.9 15 15 C10.05 15 5.1 15 0 15 C0 10.05 0 5.1 0 0 Z " fill="#EEEEEE" transform="translate(255,0)"/>
<path d="M0 0 C4.95 0 9.9 0 15 0 C15 4.95 15 9.9 15 15 C10.05 15 5.1 15 0 15 C0 10.05 0 5.1 0 0 Z " fill="#FFFFFF" transform="translate(240,0)"/>
<path d="M0 0 C4.95 0 9.9 0 15 0 C15 4.95 15 9.9 15 15 C10.05 15 5.1 15 0 15 C0 10.05 0 5.1 0 0 Z " fill="#EEEEEE" transform="translate(225,0)"/>
<path d="M0 0 C4.95 0 9.9 0 15 0 C15 4.95 15 9.9 15 15 C10.05 15 5.1 15 0 15 C0 10.05 0 5.1 0 0 Z " fill="#FFFFFF" transform="translate(210,0)"/>
<path d="M0 0 C4.95 0 9.9 0 15 0 C15 4.95 15 9.9 15 15 C10.05 15 5.1 15 0 15 C0 10.05 0 5.1 0 0 Z " fill="#EEEEEE" transform="translate(195,0)"/>
<path d="M0 0 C4.95 0 9.9 0 15 0 C15 4.95 15 9.9 15 15 C10.05 15 5.1 15 0 15 C0 10.05 0 5.1 0 0 Z " fill="#FFFFFF" transform="translate(180,0)"/>
<path d="M0 0 C4.95 0 9.9 0 15 0 C15 4.95 15 9.9 15 15 C10.05 15 5.1 15 0 15 C0 10.05 0 5.1 0 0 Z " fill="#EEEEEE" transform="translate(165,0)"/>
<path d="M0 0 C4.95 0 9.9 0 15 0 C15 4.95 15 9.9 15 15 C10.05 15 5.1 15 0 15 C0 10.05 0 5.1 0 0 Z " fill="#FFFFFF" transform="translate(150,0)"/>
<path d="M0 0 C4.95 0 9.9 0 15 0 C15 4.95 15 9.9 15 15 C10.05 15 5.1 15 0 15 C0 10.05 0 5.1 0 0 Z " fill="#EEEEEE" transform="translate(135,0)"/>
<path d="M0 0 C4.95 0 9.9 0 15 0 C15 4.95 15 9.9 15 15 C10.05 15 5.1 15 0 15 C0 10.05 0 5.1 0 0 Z " fill="#FFFFFF" transform="translate(120,0)"/>
<path d="M0 0 C4.95 0 9.9 0 15 0 C15 4.95 15 9.9 15 15 C10.05 15 5.1 15 0 15 C0 10.05 0 5.1 0 0 Z " fill="#EEEEEE" transform="translate(105,0)"/>
<path d="M0 0 C4.95 0 9.9 0 15 0 C15 4.95 15 9.9 15 15 C10.05 15 5.1 15 0 15 C0 10.05 0 5.1 0 0 Z " fill="#FFFFFF" transform="translate(90,0)"/>
<path d="M0 0 C4.95 0 9.9 0 15 0 C15 4.95 15 9.9 15 15 C10.05 15 5.1 15 0 15 C0 10.05 0 5.1 0 0 Z " fill="#EEEEEE" transform="translate(75,0)"/>
<path d="M0 0 C4.95 0 9.9 0 15 0 C15 4.95 15 9.9 15 15 C10.05 15 5.1 15 0 15 C0 10.05 0 5.1 0 0 Z " fill="#FFFFFF" transform="translate(60,0)"/>
<path d="M0 0 C4.95 0 9.9 0 15 0 C15 4.95 15 9.9 15 15 C10.05 15 5.1 15 0 15 C0 10.05 0 5.1 0 0 Z " fill="#EEEEEE" transform="translate(45,0)"/>
<path d="M0 0 C4.95 0 9.9 0 15 0 C15 4.95 15 9.9 15 15 C10.05 15 5.1 15 0 15 C0 10.05 0 5.1 0 0 Z " fill="#FFFFFF" transform="translate(30,0)"/>
<path d="M0 0 C4.95 0 9.9 0 15 0 C15 4.95 15 9.9 15 15 C10.05 15 5.1 15 0 15 C0 10.05 0 5.1 0 0 Z " fill="#FFFFFF" transform="translate(0,0)"/>
<path d="M0 0 C4.95 0 9.9 0 15 0 C15 4.95 15 9.9 15 15 C4.16015625 15.09765625 4.16015625 15.09765625 1 15 C0 14 0 14 -0.09765625 10.83984375 C-0.04882812 5.41992188 -0.04882812 5.41992188 0 0 Z " fill="#EEEEEE" transform="translate(45,330)"/>
<path d="M0 0 C0.33 0 0.66 0 1 0 C1.33 5.61 1.66 11.22 2 17 C5.63 17 9.26 17 13 17 C13 21.95 13 26.9 13 32 C8.05 32 3.1 32 -2 32 C-2 25 -2 25 -1 24 C-0.84235595 22.22130274 -0.74899323 20.43681524 -0.68359375 18.65234375 C-0.64169922 17.57275391 -0.59980469 16.49316406 -0.55664062 15.38085938 C-0.51732422 14.24455078 -0.47800781 13.10824219 -0.4375 11.9375 C-0.39431641 10.79732422 -0.35113281 9.65714844 -0.30664062 8.48242188 C-0.20017161 5.65507805 -0.09815793 2.82764262 0 0 Z " fill="#E7E9E9" transform="translate(152,358)"/>
<path d="M0 0 C4.95 0 9.9 0 15 0 C15 4.29 15 8.58 15 13 C6.75 16.125 6.75 16.125 0 15 C0 10.05 0 5.1 0 0 Z " fill="#FEFEFE" transform="translate(240,330)"/>
<path d="M0 0 C4.95 0 9.9 0 15 0 C15 4.95 15 9.9 15 15 C13.35 15 11.7 15 10 15 C9.67 17.64 9.34 20.28 9 23 C8.34 22.67 7.68 22.34 7 22 C7.33 19.36 7.66 16.72 8 14 C4.04 13.67 0.08 13.34 -4 13 C-2.68 12.34 -1.36 11.68 0 11 C0 7.37 0 3.74 0 0 Z " fill="#E9EAEB" transform="translate(225,330)"/>
<path d="M0 0 C4.62 0 9.24 0 14 0 C14 7.59 14 15.18 14 23 C13.67 23 13.34 23 13 23 C13 18.38 13 13.76 13 9 C10.36 9 7.72 9 5 9 C5 13.95 5 18.9 5 24 C3.35 24 1.7 24 0 24 C0 16.08 0 8.16 0 0 Z " fill="#F1F5F7" transform="translate(295,351)"/>
<path d="M0 0 C4.95 0 9.9 0 15 0 C15.125 11.75 15.125 11.75 14 14 C9.76594971 16.36608693 6.66466418 15.91464004 2 15 C2 14.34 2 13.68 2 13 C1.34 13 0.68 13 0 13 C0 8.71 0 4.42 0 0 Z " fill="#EDEDEE" transform="translate(165,330)"/>
<path d="M0 0 C4.95 0 9.9 0 15 0 C15 4.29 15 8.58 15 13 C12.75390625 13.45572917 10.5078125 13.91145833 8.26171875 14.3671875 C5.74698882 14.94478999 5.74698882 14.94478999 3 17 C3 15.68 3 14.36 3 13 C-0.3 13 -3.6 13 -7 13 C-7 12.67 -7 12.34 -7 12 C-4.69 12 -2.38 12 0 12 C0 8.04 0 4.08 0 0 Z " fill="#FEFEFE" transform="translate(150,330)"/>
<path d="M0 0 C4.29 0 8.58 0 13 0 C13.12375 1.134375 13.2475 2.26875 13.375 3.4375 C13.58125 4.613125 13.7875 5.78875 14 7 C14.66 7.33 15.32 7.66 16 8 C16 10.31 16 12.62 16 15 C11.05 15 6.1 15 1 15 C0.67 11.37 0.34 7.74 0 4 C-0.99 4.495 -0.99 4.495 -2 5 C-1.34 3.35 -0.68 1.7 0 0 Z " fill="#EDEDED" transform="translate(59,375)"/>
<path d="M0 0 C4.95 0 9.9 0 15 0 C15 3.96 15 7.92 15 12 C13.35 12 11.7 12 10 12 C9.67 12.66 9.34 13.32 9 14 C8 15 8 15 6.15234375 15.09765625 C4.1015625 15.06510417 2.05078125 15.03255208 0 15 C0 10.05 0 5.1 0 0 Z " fill="#EDEDED" transform="translate(60,315)"/>
<path d="M0 0 C2.92024144 2.15175685 4.81633178 4.55660155 6 8 C5.625 10.25 5.625 10.25 5 12 C5 11.34 5 10.68 5 10 C0.05 10 -4.9 10 -10 10 C-10 13.63 -10 17.26 -10 21 C-10.99 21 -11.98 21 -13 21 C-14.33827901 18.32344199 -14.20578556 16.17565948 -14.25 13.1875 C-14.27578125 12.14980469 -14.3015625 11.11210937 -14.328125 10.04296875 C-13.95408344 6.57417855 -13.07568054 4.77889007 -11 2 C-7.32477453 -0.45015031 -4.27195026 -0.70767661 0 0 Z " fill="#ECEDEE" transform="translate(190,350)"/>
<path d="M0 0 C4.95 0 9.9 0 15 0 C15 4.29 15 8.58 15 13 C15.66 13.33 16.32 13.66 17 14 C10.73 13.67 4.46 13.34 -2 13 C-1.34 12.67 -0.68 12.34 0 12 C0 8.04 0 4.08 0 0 Z " fill="#FBFCFC" transform="translate(180,330)"/>
<path d="M0 0 C4.95 0 9.9 0 15 0 C15 3.96 15 7.92 15 12 C13.865625 12.12375 12.73125 12.2475 11.5625 12.375 C9.7990625 12.684375 9.7990625 12.684375 8 13 C7.67 13.66 7.34 14.32 7 15 C4.03 14.67 1.06 14.34 -2 14 C-1.34 13.67 -0.68 13.34 0 13 C0 8.71 0 4.42 0 0 Z " fill="#EDEDED" transform="translate(135,330)"/>
<path d="M0 0 C4.95 0 9.9 0 15 0 C15 4.29 15 8.58 15 13 C5.595 13.495 5.595 13.495 -4 14 C-2.68 13.34 -1.36 12.68 0 12 C0 8.04 0 4.08 0 0 Z " fill="#FCFCFC" transform="translate(120,330)"/>
<path d="M0 0 C4.95 0 9.9 0 15 0 C15 4.95 15 9.9 15 15 C12.69 14.67 10.38 14.34 8 14 C8 13.34 8 12.68 8 12 C5.36 12 2.72 12 0 12 C0 8.04 0 4.08 0 0 Z " fill="#EEEEEE" transform="translate(30,315)"/>
<path d="M0 0 C0.33 0 0.66 0 1 0 C1 1.98 1 3.96 1 6 C1.99 6.33 2.98 6.66 4 7 C4 11.95 4 16.9 4 22 C-0.95 22 -5.9 22 -11 22 C-11 20.02 -11 18.04 -11 16 C-14.3 16 -17.6 16 -21 16 C-21 15.67 -21 15.34 -21 15 C-20.11957031 14.90203125 -19.23914063 14.8040625 -18.33203125 14.703125 C-17.17058594 14.55359375 -16.00914062 14.4040625 -14.8125 14.25 C-13.08966797 14.04117187 -13.08966797 14.04117187 -11.33203125 13.828125 C-7.55024426 12.88822014 -5.72395881 11.76287251 -3 9 C-1.79252087 6.68934206 -1.79252087 6.68934206 -1.1875 4.25 C-0.95417969 3.45078125 -0.72085938 2.6515625 -0.48046875 1.828125 C-0.24263672 0.92320312 -0.24263672 0.92320312 0 0 Z " fill="#FEFEFE" transform="translate(236,368)"/>
<path d="M0 0 C4.95 0 9.9 0 15 0 C15 4.29 15 8.58 15 13 C10.05 13 5.1 13 0 13 C0 8.71 0 4.42 0 0 Z " fill="#ECECED" transform="translate(255,330)"/>
<path d="M0 0 C4.95 0 9.9 0 15 0 C15 4.29 15 8.58 15 13 C10.05 13 5.1 13 0 13 C0 8.71 0 4.42 0 0 Z " fill="#EEEEEE" transform="translate(270,45)"/>
<path d="M0 0 C4.95 0 9.9 0 15 0 C15 4.29 15 8.58 15 13 C10.05 13 5.1 13 0 13 C0 8.71 0 4.42 0 0 Z " fill="#EEEEEE" transform="translate(240,45)"/>
<path d="M0 0 C4.95 0 9.9 0 15 0 C15 4.29 15 8.58 15 13 C10.05 13 5.1 13 0 13 C0 8.71 0 4.42 0 0 Z " fill="#EEEEEE" transform="translate(210,45)"/>
<path d="M0 0 C4.95 0 9.9 0 15 0 C15 4.29 15 8.58 15 13 C10.05 13 5.1 13 0 13 C0 8.71 0 4.42 0 0 Z " fill="#EEEEEE" transform="translate(180,45)"/>
<path d="M0 0 C4.95 0 9.9 0 15 0 C15 4.29 15 8.58 15 13 C10.05 13 5.1 13 0 13 C0 8.71 0 4.42 0 0 Z " fill="#EEEEEE" transform="translate(150,45)"/>
<path d="M0 0 C4.95 0 9.9 0 15 0 C15 4.29 15 8.58 15 13 C10.05 13 5.1 13 0 13 C0 8.71 0 4.42 0 0 Z " fill="#EEEEEE" transform="translate(120,45)"/>
<path d="M0 0 C4.95 0 9.9 0 15 0 C15 4.29 15 8.58 15 13 C10.05 13 5.1 13 0 13 C0 8.71 0 4.42 0 0 Z " fill="#EEEEEE" transform="translate(90,45)"/>
<path d="M0 0 C4.95 0 9.9 0 15 0 C15 4.29 15 8.58 15 13 C10.05 13 5.1 13 0 13 C0 8.71 0 4.42 0 0 Z " fill="#EEEEEE" transform="translate(60,45)"/>
<path d="M0 0 C0.99 0.66 1.98 1.32 3 2 C3.40843923 4.71203652 3.13336867 7.2437142 3 10 C-1.95 10 -6.9 10 -12 10 C-12 13.3 -12 16.6 -12 20 C-12.99 20 -13.98 20 -15 20 C-16.68600001 14.94199996 -16.58520639 10.63241784 -14.8125 5.6875 C-10.83843678 -0.2050765 -6.6519149 -0.53644475 0 0 Z " fill="#EBECED" transform="translate(132,350)"/>
<path d="M0 0 C4.95 0 9.9 0 15 0 C15 4.95 15 9.9 15 15 C11.7 15 8.4 15 5 15 C5 13.35 5 11.7 5 10 C2.525 9.01 2.525 9.01 0 8 C0 5.36 0 2.72 0 0 Z " fill="#ECECED" transform="translate(300,315)"/>
<path d="M0 0 C0 2.64 0 5.28 0 8 C2.64 8 5.28 8 8 8 C7.01 8.495 7.01 8.495 6 9 C6 11.31 6 13.62 6 16 C1.05 16 -3.9 16 -9 16 C-9 11.05 -9 6.1 -9 1 C-1.125 0 -1.125 0 0 0 Z " fill="#FFFFFF" transform="translate(24,374)"/>
<path d="M0 0 C4.29 0 8.58 0 13 0 C14.34400949 7.20877817 14.34400949 7.20877817 12.75 10.875 C11 13 11 13 8 15 C5.66800612 15.07905064 3.33167378 15.08798769 1 15 C-1.13079691 10.73840618 -0.04502317 4.59236298 0 0 Z " fill="#EEEEEE" transform="translate(255,360)"/>
<path d="M0 0 C0.33 0 0.66 0 1 0 C1.33 10.23 1.66 20.46 2 31 C2.99 31 3.98 31 5 31 C5 35.95 5 40.9 5 46 C0.05 46 -4.9 46 -10 46 C-10 43.03 -10 40.06 -10 37 C-6.7 37.33 -3.4 37.66 0 38 C0 25.46 0 12.92 0 0 Z " fill="#E8EBEC" transform="translate(100,344)"/>
<path d="M0 0 C-0.33 5.28 -0.66 10.56 -1 16 C-5.95 16 -10.9 16 -16 16 C-16 13.69 -16 11.38 -16 9 C-16.99 8.67 -17.98 8.34 -19 8 C-15.37 8 -11.74 8 -8 8 C-8 5.69 -8 3.38 -8 1 C-1.125 0 -1.125 0 0 0 Z " fill="#FFFFFF" transform="translate(91,374)"/>
<path d="M0 0 C0.33 0 0.66 0 1 0 C1 2.31 1 4.62 1 7 C3.97 7 6.94 7 10 7 C10 4.69 10 2.38 10 0 C11.65 0 13.3 0 15 0 C15 4.95 15 9.9 15 15 C10.05 15 5.1 15 0 15 C-1.125 3.375 -1.125 3.375 0 0 Z " fill="#FDFEFE" transform="translate(285,375)"/>
<path d="M0 0 C2.89932357 2.39509338 3.50168276 4.31245243 4 8 C6.31 8 8.62 8 11 8 C11.66 6.68 12.32 5.36 13 4 C13.33 4 13.66 4 14 4 C14 7.96 14 11.92 14 16 C9.05 16 4.1 16 -1 16 C-1.020625 13.545625 -1.04125 11.09125 -1.0625 8.5625 C-1.071604 7.78849854 -1.08070801 7.01449707 -1.09008789 6.21704102 C-1.09724913 4.47778283 -1.05024702 2.73854696 -1 1 C-0.67 0.67 -0.34 0.34 0 0 Z " fill="#FEFEFE" transform="translate(46,374)"/>
<path d="M0 0 C3.63 0 7.26 0 11 0 C11 4.95 11 9.9 11 15 C7.7 15 4.4 15 1 15 C-0.28579416 9.85682338 -0.06311236 5.30143797 0 0 Z " fill="#EEEEEE" transform="translate(319,360)"/>
<path d="M0 0 C3.3 0 6.6 0 10 0 C10 4.95 10 9.9 10 15 C6.7 15 3.4 15 0 15 C0 10.05 0 5.1 0 0 Z " fill="#EEEEEE" transform="translate(45,270)"/>
<path d="M0 0 C3.3 0 6.6 0 10 0 C10 4.95 10 9.9 10 15 C6.7 15 3.4 15 0 15 C0 10.05 0 5.1 0 0 Z " fill="#EEEEEE" transform="translate(45,240)"/>
<path d="M0 0 C3.3 0 6.6 0 10 0 C10 4.95 10 9.9 10 15 C6.7 15 3.4 15 0 15 C0 10.05 0 5.1 0 0 Z " fill="#EEEEEE" transform="translate(45,210)"/>
<path d="M0 0 C3.3 0 6.6 0 10 0 C10 4.95 10 9.9 10 15 C6.7 15 3.4 15 0 15 C0 10.05 0 5.1 0 0 Z " fill="#EEEEEE" transform="translate(45,180)"/>
<path d="M0 0 C3.3 0 6.6 0 10 0 C10 4.95 10 9.9 10 15 C6.7 15 3.4 15 0 15 C0 10.05 0 5.1 0 0 Z " fill="#EEEEEE" transform="translate(45,150)"/>
<path d="M0 0 C3.3 0 6.6 0 10 0 C10 4.95 10 9.9 10 15 C6.7 15 3.4 15 0 15 C0 10.05 0 5.1 0 0 Z " fill="#EEEEEE" transform="translate(45,120)"/>
<path d="M0 0 C3.3 0 6.6 0 10 0 C10 4.95 10 9.9 10 15 C6.7 15 3.4 15 0 15 C0 10.05 0 5.1 0 0 Z " fill="#EEEEEE" transform="translate(45,90)"/>
<path d="M0 0 C3.3 0 6.6 0 10 0 C10 4.95 10 9.9 10 15 C6.7 15 3.4 15 0 15 C0 10.05 0 5.1 0 0 Z " fill="#EEEEEE" transform="translate(45,60)"/>
<path d="M0 0 C0.99 0.33 1.98 0.66 3 1 C3 5.95 3 10.9 3 16 C-0.63 16 -4.26 16 -8 16 C-7.855625 17.753125 -7.71125 19.50625 -7.5625 21.3125 C-7.48128906 22.29863281 -7.40007812 23.28476562 -7.31640625 24.30078125 C-7.08187441 27.09375599 -7.08187441 27.09375599 -6 30 C-6.99 29.67 -7.98 29.34 -9 29 C-9 21.74 -9 14.48 -9 7 C-6.03 7 -3.06 7 0 7 C0 4.69 0 2.38 0 0 Z " fill="#FEFEFE" transform="translate(327,344)"/>
<path d="M0 0 C0.99 0 1.98 0 3 0 C3 4.95 3 9.9 3 15 C-1.95 15 -6.9 15 -12 15 C-12 12.69 -12 10.38 -12 8 C-12.66 7.67 -13.32 7.34 -14 7 C-9.38 7 -4.76 7 0 7 C0 4.69 0 2.38 0 0 Z " fill="#FAFAFB" transform="translate(327,375)"/>
<path d="M0 0 C4.95 0 9.9 0 15 0 C15 2.97 15 5.94 15 9 C10.05 9 5.1 9 0 9 C0 6.03 0 3.06 0 0 Z " fill="#EEEEEE" transform="translate(330,435)"/>
<path d="M0 0 C4.95 0 9.9 0 15 0 C15 2.97 15 5.94 15 9 C10.05 9 5.1 9 0 9 C0 6.03 0 3.06 0 0 Z " fill="#FFFFFF" transform="translate(315,435)"/>
<path d="M0 0 C4.95 0 9.9 0 15 0 C15 2.97 15 5.94 15 9 C10.05 9 5.1 9 0 9 C0 6.03 0 3.06 0 0 Z " fill="#EEEEEE" transform="translate(300,435)"/>
<path d="M0 0 C4.95 0 9.9 0 15 0 C15 2.97 15 5.94 15 9 C10.05 9 5.1 9 0 9 C0 6.03 0 3.06 0 0 Z " fill="#FFFFFF" transform="translate(285,435)"/>
<path d="M0 0 C4.95 0 9.9 0 15 0 C15 2.97 15 5.94 15 9 C10.05 9 5.1 9 0 9 C0 6.03 0 3.06 0 0 Z " fill="#EEEEEE" transform="translate(270,435)"/>
<path d="M0 0 C4.95 0 9.9 0 15 0 C15 2.97 15 5.94 15 9 C10.05 9 5.1 9 0 9 C0 6.03 0 3.06 0 0 Z " fill="#FFFFFF" transform="translate(255,435)"/>
<path d="M0 0 C4.95 0 9.9 0 15 0 C15 2.97 15 5.94 15 9 C10.05 9 5.1 9 0 9 C0 6.03 0 3.06 0 0 Z " fill="#EEEEEE" transform="translate(240,435)"/>
<path d="M0 0 C4.95 0 9.9 0 15 0 C15 2.97 15 5.94 15 9 C10.05 9 5.1 9 0 9 C0 6.03 0 3.06 0 0 Z " fill="#FFFFFF" transform="translate(225,435)"/>
<path d="M0 0 C4.95 0 9.9 0 15 0 C15 2.97 15 5.94 15 9 C10.05 9 5.1 9 0 9 C0 6.03 0 3.06 0 0 Z " fill="#EEEEEE" transform="translate(210,435)"/>
<path d="M0 0 C4.95 0 9.9 0 15 0 C15 2.97 15 5.94 15 9 C10.05 9 5.1 9 0 9 C0 6.03 0 3.06 0 0 Z " fill="#FFFFFF" transform="translate(195,435)"/>
<path d="M0 0 C4.95 0 9.9 0 15 0 C15 2.97 15 5.94 15 9 C10.05 9 5.1 9 0 9 C0 6.03 0 3.06 0 0 Z " fill="#EEEEEE" transform="translate(180,435)"/>
<path d="M0 0 C4.95 0 9.9 0 15 0 C15 2.97 15 5.94 15 9 C10.05 9 5.1 9 0 9 C0 6.03 0 3.06 0 0 Z " fill="#FFFFFF" transform="translate(165,435)"/>
<path d="M0 0 C4.95 0 9.9 0 15 0 C15 2.97 15 5.94 15 9 C10.05 9 5.1 9 0 9 C0 6.03 0 3.06 0 0 Z " fill="#EEEEEE" transform="translate(150,435)"/>
<path d="M0 0 C4.95 0 9.9 0 15 0 C15 2.97 15 5.94 15 9 C10.05 9 5.1 9 0 9 C0 6.03 0 3.06 0 0 Z " fill="#FFFFFF" transform="translate(135,435)"/>
<path d="M0 0 C4.95 0 9.9 0 15 0 C15 2.97 15 5.94 15 9 C10.05 9 5.1 9 0 9 C0 6.03 0 3.06 0 0 Z " fill="#EEEEEE" transform="translate(120,435)"/>
<path d="M0 0 C4.95 0 9.9 0 15 0 C15 2.97 15 5.94 15 9 C10.05 9 5.1 9 0 9 C0 6.03 0 3.06 0 0 Z " fill="#FFFFFF" transform="translate(105,435)"/>
<path d="M0 0 C4.95 0 9.9 0 15 0 C15 2.97 15 5.94 15 9 C10.05 9 5.1 9 0 9 C0 6.03 0 3.06 0 0 Z " fill="#EEEEEE" transform="translate(90,435)"/>
<path d="M0 0 C4.95 0 9.9 0 15 0 C15 2.97 15 5.94 15 9 C10.05 9 5.1 9 0 9 C0 6.03 0 3.06 0 0 Z " fill="#FFFFFF" transform="translate(75,435)"/>
<path d="M0 0 C4.95 0 9.9 0 15 0 C15 2.97 15 5.94 15 9 C10.05 9 5.1 9 0 9 C0 6.03 0 3.06 0 0 Z " fill="#EEEEEE" transform="translate(60,435)"/>
<path d="M0 0 C4.95 0 9.9 0 15 0 C15 2.97 15 5.94 15 9 C10.05 9 5.1 9 0 9 C0 6.03 0 3.06 0 0 Z " fill="#FFFFFF" transform="translate(45,435)"/>
<path d="M0 0 C4.95 0 9.9 0 15 0 C15 2.97 15 5.94 15 9 C10.05 9 5.1 9 0 9 C0 6.03 0 3.06 0 0 Z " fill="#EEEEEE" transform="translate(30,435)"/>
<path d="M0 0 C4.95 0 9.9 0 15 0 C15 2.97 15 5.94 15 9 C10.05 9 5.1 9 0 9 C0 6.03 0 3.06 0 0 Z " fill="#FFFFFF" transform="translate(15,435)"/>
<path d="M0 0 C4.95 0 9.9 0 15 0 C15 2.97 15 5.94 15 9 C10.05 9 5.1 9 0 9 C0 6.03 0 3.06 0 0 Z " fill="#EEEEEE" transform="translate(0,435)"/>
<path d="M0 0 C2.64 0 5.28 0 8 0 C8.33 4.95 8.66 9.9 9 15 C6.03 15 3.06 15 0 15 C0 10.05 0 5.1 0 0 Z " fill="#FFFFFF" transform="translate(300,360)"/>
<path d="M0 0 C2.64 0 5.28 0 8 0 C8 4.95 8 9.9 8 15 C5.36 15 2.72 15 0 15 C0 10.05 0 5.1 0 0 Z " fill="#EEEEEE" transform="translate(15,360)"/>
<path d="M0 0 C2.64 0 5.28 0 8 0 C8 4.95 8 9.9 8 15 C5.36 15 2.72 15 0 15 C0 10.05 0 5.1 0 0 Z " fill="#EEEEEE" transform="translate(15,330)"/>
<path d="M0 0 C0 2.97 0 5.94 0 9 C-4.95 9 -9.9 9 -15 9 C-15 6.69 -15 4.38 -15 2 C-13.43883181 1.66048381 -11.87598662 1.32867456 -10.3125 1 C-9.44238281 0.814375 -8.57226562 0.62875 -7.67578125 0.4375 C-5.06287036 0.01027953 -2.64186962 -0.07616201 0 0 Z " fill="#FCFDFD" transform="translate(270,381)"/>
<path d="M0 0 C0 2.97 0 5.94 0 9 C-4.95 9 -9.9 9 -15 9 C-15 6.36 -15 3.72 -15 1 C-14.07767578 1.01740234 -14.07767578 1.01740234 -13.13671875 1.03515625 C-11.92435547 1.04869141 -11.92435547 1.04869141 -10.6875 1.0625 C-9.88699219 1.07410156 -9.08648437 1.08570313 -8.26171875 1.09765625 C-5.32251011 0.97074741 -2.98897366 0 0 0 Z " fill="#EDEEEE" transform="translate(195,381)"/>
<path d="M0 0 C0 2.97 0 5.94 0 9 C-4.95 9 -9.9 9 -15 9 C-15 6.36 -15 3.72 -15 1 C-14.11248047 1.01740234 -14.11248047 1.01740234 -13.20703125 1.03515625 C-8.72936058 1.08628789 -4.35151122 0 0 0 Z " fill="#EEEFEF" transform="translate(135,381)"/>
<path d="M0 0 C4.95 0.33 9.9 0.66 15 1 C15 3.64 15 6.28 15 9 C10.05 9 5.1 9 0 9 C0 6.03 0 3.06 0 0 Z " fill="#E8E9E9" transform="translate(210,381)"/>
<path d="M0 0 C2.97 0 5.94 0 9 0 C9 1.65 9 3.3 9 5 C8.67 3.68 8.34 2.36 8 1 C6.02 1 4.04 1 2 1 C2 12.55 2 24.1 2 36 C4.31 36 6.62 36 9 36 C9 36.66 9 37.32 9 38 C6.03 38 3.06 38 0 38 C0 25.46 0 12.92 0 0 Z " fill="#7F7F7F" transform="translate(143,344)"/>
<path d="M0 0 C1 1 1 1 1.25 3.875 C1 7 1 7 -0.125 8.9375 C-2 10 -2 10 -5.0625 9.8125 C-8 9 -8 9 -10 7 C-10.35877543 4.20155166 -10.33812547 2.596692 -8.9375 0.125 C-5.85798867 -1.66310335 -3.35666727 -0.74592606 0 0 Z " fill="#777778" transform="translate(100,328)"/>
<path d="M0 0 C2.31 0 4.62 0 7 0 C7 4.95 7 9.9 7 15 C5.68 15 4.36 15 3 15 C3 14.01 3 13.02 3 12 C2.01 12 1.02 12 0 12 C0 8.04 0 4.08 0 0 Z " fill="#EEEEEE" transform="translate(135,360)"/>
<path d="M0 0 C-0.33 2.64 -0.66 5.28 -1 8 C-4.63 8 -8.26 8 -12 8 C-13 3 -13 3 -11.625 0.625 C-7.70844613 -1.79953335 -4.37701008 -0.86043788 0 0 Z " fill="#EBECED" transform="translate(166,352)"/>
<path d="M0 0 C1.98 0 3.96 0 6 0 C6 4.95 6 9.9 6 15 C4.02 15 2.04 15 0 15 C0 10.05 0 5.1 0 0 Z " fill="#EEEEEE" transform="translate(84,360)"/>
<path d="M0 0 C1.65 0 3.3 0 5 0 C6.32286246 4.96073422 6.08893197 9.91111512 6 15 C4.02 15 2.04 15 0 15 C0 10.05 0 5.1 0 0 Z " fill="#EEEEEE" transform="translate(84,330)"/>
<path d="M0 0 C0.33 0 0.66 0 1 0 C1 7.59 1 15.18 1 23 C0.67 23 0.34 23 0 23 C0 18.38 0 13.76 0 9 C-2.64 9 -5.28 9 -8 9 C-8 6.36 -8 3.72 -8 1 C-6.865625 1.020625 -5.73125 1.04125 -4.5625 1.0625 C-1.18424326 1.41577477 -1.18424326 1.41577477 0 0 Z " fill="#E2E7E9" transform="translate(308,351)"/>
<path d="M0 0 C0.33 0 0.66 0 1 0 C1.33 2.31 1.66 4.62 2 7 C3.32 7.33 4.64 7.66 6 8 C6 10.64 6 13.28 6 16 C3.6875 16.3125 3.6875 16.3125 1 16 C-1.67844384 12.70345374 -2.94097693 8.73585519 -4.3515625 4.76953125 C-4.98775835 2.93101587 -4.98775835 2.93101587 -6 1 C-4.7934375 1.0309375 -4.7934375 1.0309375 -3.5625 1.0625 C-1.06645115 1.29633621 -1.06645115 1.29633621 0 0 Z " fill="#E8EAEC" transform="translate(279,344)"/>
<path d="M0 0 C0.66 0.66 1.32 1.32 2 2 C2.99 2 3.98 2 5 2 C5 8.93 5 15.86 5 23 C4.67 23 4.34 23 4 23 C3.67 21.02 3.34 19.04 3 17 C1.35 16.67 -0.3 16.34 -2 16 C-1.34 10.72 -0.68 5.44 0 0 Z " fill="#E3E6E7" transform="translate(205,358)"/>
<path d="M0 0 C1.65 0 3.3 0 5 0 C5 4.95 5 9.9 5 15 C3.35 14.67 1.7 14.34 0 14 C0 9.38 0 4.76 0 0 Z " fill="#EEEEEE" transform="translate(295,270)"/>
<path d="M0 0 C1.65 0 3.3 0 5 0 C5 4.95 5 9.9 5 15 C3.35 14.67 1.7 14.34 0 14 C0 9.38 0 4.76 0 0 Z " fill="#EEEEEE" transform="translate(295,240)"/>
<path d="M0 0 C1.65 0 3.3 0 5 0 C5 4.95 5 9.9 5 15 C3.35 14.67 1.7 14.34 0 14 C0 9.38 0 4.76 0 0 Z " fill="#EEEEEE" transform="translate(295,210)"/>
<path d="M0 0 C1.65 0 3.3 0 5 0 C5 4.95 5 9.9 5 15 C3.35 15 1.7 15 0 15 C0 10.05 0 5.1 0 0 Z " fill="#EEEEEE" transform="translate(295,180)"/>
<path d="M0 0 C1.65 0 3.3 0 5 0 C5 4.95 5 9.9 5 15 C3.35 14.67 1.7 14.34 0 14 C0 9.38 0 4.76 0 0 Z " fill="#EEEEEE" transform="translate(295,150)"/>
<path d="M0 0 C1.65 0 3.3 0 5 0 C5 4.95 5 9.9 5 15 C3.35 14.67 1.7 14.34 0 14 C0 9.38 0 4.76 0 0 Z " fill="#EEEEEE" transform="translate(295,120)"/>
<path d="M0 0 C1.65 0 3.3 0 5 0 C5 4.95 5 9.9 5 15 C3.35 14.67 1.7 14.34 0 14 C0 9.38 0 4.76 0 0 Z " fill="#EEEEEE" transform="translate(295,90)"/>
<path d="M0 0 C1.65 0 3.3 0 5 0 C5 4.95 5 9.9 5 15 C3.35 15 1.7 15 0 15 C0 10.05 0 5.1 0 0 Z " fill="#EEEEEE" transform="translate(295,60)"/>
<path d="M0 0 C0 5.61 0 11.22 0 17 C-0.99 17 -1.98 17 -3 17 C-4.35281371 14.29437257 -4.20609362 12.08106345 -4.25 9.0625 C-4.27578125 8.00160156 -4.3015625 6.94070313 -4.328125 5.84765625 C-4 3 -4 3 -2.546875 1.12109375 C-1 0 -1 0 0 0 Z " fill="#EDEEEE" transform="translate(180,354)"/>
<path d="M0 0 C0 4.95 0 9.9 0 15 C-0.99 15 -1.98 15 -3 15 C-3.89214652 12.32356043 -4.13540211 10.74615622 -4.125 8 C-4.12757812 7.319375 -4.13015625 6.63875 -4.1328125 5.9375 C-4 4 -4 4 -3 1 C-1 0 -1 0 0 0 Z " fill="#F1F2F3" transform="translate(120,355)"/>
<path d="M0 0 C3 1 3 1 4.203125 2.99609375 C4.54859375 3.80175781 4.8940625 4.60742188 5.25 5.4375 C5.78367187 6.64212891 5.78367187 6.64212891 6.328125 7.87109375 C7 10 7 10 6 12 C3.03 11.505 3.03 11.505 0 11 C0 7.37 0 3.74 0 0 Z " fill="#E8EAEB" transform="translate(35,349)"/>
<path d="M0 0 C0.99 0 1.98 0 3 0 C3 3.96 3 7.92 3 12 C1.35 12 -0.3 12 -2 12 C-2.17835515 7.45194365 -1.99785435 4.1205746 0 0 Z " fill="#EAEAEB" transform="translate(69,348)"/>
<path d="M0 0 C0.99 0 1.98 0 3 0 C3 4.95 3 9.9 3 15 C2.01 15 1.02 15 0 15 C0 10.05 0 5.1 0 0 Z " fill="#FFFFFF" transform="translate(345,405)"/>
<path d="M0 0 C0.99 0 1.98 0 3 0 C3 4.95 3 9.9 3 15 C2.01 15 1.02 15 0 15 C0 10.05 0 5.1 0 0 Z " fill="#EEEEEE" transform="translate(345,390)"/>
<path d="M0 0 C0.66 0 1.32 0 2 0 C2.29296875 6.0546875 2.29296875 6.0546875 2 8 C-2.87793583 11.25195722 -7.22391379 11.11325659 -13 11 C-13.33 10.34 -13.66 9.68 -14 9 C-9.71 8.34 -5.42 7.68 -1 7 C-0.67 5.68 -0.34 4.36 0 3 C-0.66 2.67 -1.32 2.34 -2 2 C-1.34 1.34 -0.68 0.68 0 0 Z " fill="#7D7D7D" transform="translate(135,372)"/>
<path d="M0 0 C0.99 0 1.98 0 3 0 C3 4.95 3 9.9 3 15 C2.01 15 1.02 15 0 15 C0 10.05 0 5.1 0 0 Z " fill="#FFFFFF" transform="translate(345,375)"/>
<path d="M0 0 C0.99 0 1.98 0 3 0 C3 4.95 3 9.9 3 15 C2.01 15 1.02 15 0 15 C0 10.05 0 5.1 0 0 Z " fill="#EEEEEE" transform="translate(345,360)"/>
<path d="M0 0 C0.99 0 1.98 0 3 0 C3 4.95 3 9.9 3 15 C2.01 15 1.02 15 0 15 C0 10.05 0 5.1 0 0 Z " fill="#EEEEEE" transform="translate(297,360)"/>
<path d="M0 0 C0.99 0 1.98 0 3 0 C3 4.95 3 9.9 3 15 C2.01 15 1.02 15 0 15 C0 10.05 0 5.1 0 0 Z " fill="#FFFFFF" transform="translate(345,345)"/>
<path d="M0 0 C0.99 0 1.98 0 3 0 C3 4.95 3 9.9 3 15 C2.01 15 1.02 15 0 15 C0 10.05 0 5.1 0 0 Z " fill="#EEEEEE" transform="translate(102,345)"/>
<path d="M0 0 C0.99 0 1.98 0 3 0 C3 4.95 3 9.9 3 15 C2.01 15 1.02 15 0 15 C0 10.05 0 5.1 0 0 Z " fill="#EEEEEE" transform="translate(345,330)"/>
<path d="M0 0 C0.99 0 1.98 0 3 0 C3 4.95 3 9.9 3 15 C2.01 15 1.02 15 0 15 C0 10.05 0 5.1 0 0 Z " fill="#FFFFFF" transform="translate(345,315)"/>
<path d="M0 0 C0.99 0 1.98 0 3 0 C3 4.95 3 9.9 3 15 C2.01 15 1.02 15 0 15 C0 10.05 0 5.1 0 0 Z " fill="#EEEEEE" transform="translate(345,300)"/>
<path d="M0 0 C0.99 0 1.98 0 3 0 C3 4.95 3 9.9 3 15 C2.01 15 1.02 15 0 15 C0 10.05 0 5.1 0 0 Z " fill="#FFFFFF" transform="translate(345,285)"/>
<path d="M0 0 C0.99 0 1.98 0 3 0 C3 4.95 3 9.9 3 15 C2.01 15 1.02 15 0 15 C0 10.05 0 5.1 0 0 Z " fill="#EEEEEE" transform="translate(345,270)"/>
<path d="M0 0 C0.99 0 1.98 0 3 0 C3 4.95 3 9.9 3 15 C2.01 15 1.02 15 0 15 C0 10.05 0 5.1 0 0 Z " fill="#FFFFFF" transform="translate(345,255)"/>
<path d="M0 0 C0.99 0 1.98 0 3 0 C3 4.95 3 9.9 3 15 C2.01 15 1.02 15 0 15 C0 10.05 0 5.1 0 0 Z " fill="#EEEEEE" transform="translate(345,240)"/>
<path d="M0 0 C0.99 0 1.98 0 3 0 C3 4.95 3 9.9 3 15 C2.01 15 1.02 15 0 15 C0 10.05 0 5.1 0 0 Z " fill="#FFFFFF" transform="translate(345,225)"/>
<path d="M0 0 C0.99 0 1.98 0 3 0 C3 4.95 3 9.9 3 15 C2.01 15 1.02 15 0 15 C0 10.05 0 5.1 0 0 Z " fill="#EEEEEE" transform="translate(345,210)"/>
<path d="M0 0 C0.99 0 1.98 0 3 0 C3 4.95 3 9.9 3 15 C2.01 15 1.02 15 0 15 C0 10.05 0 5.1 0 0 Z " fill="#FFFFFF" transform="translate(345,195)"/>
<path d="M0 0 C0.99 0 1.98 0 3 0 C3 4.95 3 9.9 3 15 C2.01 15 1.02 15 0 15 C0 10.05 0 5.1 0 0 Z " fill="#EEEEEE" transform="translate(345,180)"/>
<path d="M0 0 C0.99 0 1.98 0 3 0 C3 4.95 3 9.9 3 15 C2.01 15 1.02 15 0 15 C0 10.05 0 5.1 0 0 Z " fill="#FFFFFF" transform="translate(345,165)"/>
<path d="M0 0 C0.99 0 1.98 0 3 0 C3 4.95 3 9.9 3 15 C2.01 15 1.02 15 0 15 C0 10.05 0 5.1 0 0 Z " fill="#EEEEEE" transform="translate(345,150)"/>
<path d="M0 0 C0.99 0 1.98 0 3 0 C3 4.95 3 9.9 3 15 C2.01 15 1.02 15 0 15 C0 10.05 0 5.1 0 0 Z " fill="#FFFFFF" transform="translate(345,135)"/>
<path d="M0 0 C0.99 0 1.98 0 3 0 C3 4.95 3 9.9 3 15 C2.01 15 1.02 15 0 15 C0 10.05 0 5.1 0 0 Z " fill="#EEEEEE" transform="translate(345,120)"/>
<path d="M0 0 C0.99 0 1.98 0 3 0 C3 4.95 3 9.9 3 15 C2.01 15 1.02 15 0 15 C0 10.05 0 5.1 0 0 Z " fill="#FFFFFF" transform="translate(345,105)"/>
<path d="M0 0 C0.99 0 1.98 0 3 0 C3 4.95 3 9.9 3 15 C2.01 15 1.02 15 0 15 C0 10.05 0 5.1 0 0 Z " fill="#EEEEEE" transform="translate(345,90)"/>
<path d="M0 0 C0.99 0 1.98 0 3 0 C3 4.95 3 9.9 3 15 C2.01 15 1.02 15 0 15 C0 10.05 0 5.1 0 0 Z " fill="#FFFFFF" transform="translate(345,75)"/>
<path d="M0 0 C0.99 0 1.98 0 3 0 C3 4.95 3 9.9 3 15 C2.01 15 1.02 15 0 15 C0 10.05 0 5.1 0 0 Z " fill="#EEEEEE" transform="translate(345,60)"/>
<path d="M0 0 C0.99 0 1.98 0 3 0 C3 4.95 3 9.9 3 15 C2.01 15 1.02 15 0 15 C0 10.05 0 5.1 0 0 Z " fill="#EEEEEE" transform="translate(345,30)"/>
<path d="M0 0 C0.99 0 1.98 0 3 0 C3 4.95 3 9.9 3 15 C2.01 15 1.02 15 0 15 C0 10.05 0 5.1 0 0 Z " fill="#EEEEEE" transform="translate(345,0)"/>
<path d="M0 0 C1.65 0.33 3.3 0.66 5 1 C5 2.98 5 4.96 5 7 C3.35 7 1.7 7 0 7 C-1.125 2.25 -1.125 2.25 0 0 Z " fill="#EBECED" transform="translate(220,350)"/>
<path d="M0 0 C0.66 0 1.32 0 2 0 C2 3.3 2 6.6 2 10 C1.01 10 0.02 10 -1 10 C-1.9765625 3.9453125 -1.9765625 3.9453125 -2 2 C-1.34 1.34 -0.68 0.68 0 0 Z " fill="#EBEDEE" transform="translate(298,332)"/>
<path d="M0 0 C1.98 0 3.96 0 6 0 C4.79618552 2.49361571 3.54571278 4.68143083 2 7 C1.34 7 0.68 7 0 7 C0 4.69 0 2.38 0 0 Z " fill="#EEEFEF" transform="translate(240,345)"/>
<path d="M0 0 C2.00773956 2.00773956 2.99392854 3.36873617 4 6 C3.69763061 7.34069446 3.35918825 8.67339807 3 10 C2.78807905 11.58025005 2.60076629 13.16398461 2.4375 14.75 C2.31181641 15.94882812 2.31181641 15.94882812 2.18359375 17.171875 C2.12300781 17.77515625 2.06242187 18.3784375 2 19 C1.67 19 1.34 19 1 19 C0.67 12.73 0.34 6.46 0 0 Z " fill="#F5F6F6" transform="translate(33,341)"/>
<path d="M0 0 C0.99 0 1.98 0 3 0 C3 2.97 3 5.94 3 9 C2.01 9 1.02 9 0 9 C0 6.03 0 3.06 0 0 Z " fill="#FFFFFF" transform="translate(345,435)"/>
<path d="M0 0 C0 2.31 0 4.62 0 7 C-1.98 7 -3.96 7 -6 7 C-5.60799596 4.15797072 -5.2043974 3.17884772 -3 1.25 C-1 0 -1 0 0 0 Z " fill="#E9EAEA" transform="translate(255,353)"/>
<path d="M0 0 C1.64826111 2.96687001 2.44271087 5.65626525 3 9 C1.68 9.33 0.36 9.66 -1 10 C-1.125 2.25 -1.125 2.25 0 0 Z " fill="#E7E8E9" transform="translate(106,365)"/>
<path d="M0 0 C0 1.98 0 3.96 0 6 C-0.99 6 -1.98 6 -3 6 C-3 7.98 -3 9.96 -3 12 C-3.33 12 -3.66 12 -4 12 C-4.08131463 10.56344146 -4.13933559 9.1255517 -4.1875 7.6875 C-4.22230469 6.88699219 -4.25710937 6.08648437 -4.29296875 5.26171875 C-3.98428663 2.87869278 -2.85980321 0 0 0 Z " fill="#FEFEFE" transform="translate(180,354)"/>
<path d="M0 0 C1.32 0.33 2.64 0.66 4 1 C4 3.64 4 6.28 4 9 C2.68 8.67 1.36 8.34 0 8 C0 7.34 0 6.68 0 6 C0.66 6 1.32 6 2 6 C2 4.35 2 2.7 2 1 C1.34 0.67 0.68 0.34 0 0 Z " fill="#808080" transform="translate(133,344)"/>
<path d="M0 0 C0.99 0 1.98 0 3 0 C3.6875 1.8125 3.6875 1.8125 4 4 C2.5625 5.75 2.5625 5.75 1 7 C0.34 5.02 -0.32 3.04 -1 1 C-0.67 0.67 -0.34 0.34 0 0 Z " fill="#E9ECED" transform="translate(52,360)"/>
</svg>
