<svg xmlns="http://www.w3.org/2000/svg" width="256" height="256" viewBox="0 0 256 256">
<defs><linearGradient id="g" x1="0" y1="0" x2="1" y2="1"><stop stop-color="#0f2a5f"/><stop offset="1" stop-color="#1f4fbf"/></linearGradient></defs>
<rect width="256" height="256" rx="32" fill="url(#g)"/>
<g fill="#fff">
<path d="M60 132h68a8 8 0 0 0 0-16H60a8 8 0 0 0 0 16zM60 164h52a8 8 0 0 0 0-16H60a8 8 0 0 0 0 16z"/>
<path d="M180 92a8 8 0 0 0-8 8v56a8 8 0 0 0 16 0v-56a8 8 0 0 0-8-8z"/>
<circle cx="180" cy="76" r="10"/>
</g>
</svg>