<?xml version="1.0" encoding="UTF-8"?>
<svg version="1.1" xmlns="http://www.w3.org/2000/svg" width="203" height="248">
<path d="M0 0 C66.99 0 133.98 0 203 0 C203 81.84 203 163.68 203 248 C136.01 248 69.02 248 0 248 C0 166.16 0 84.32 0 0 Z " fill="#DC4A02" transform="translate(0,0)"/>
<path d="M0 0 C0 49.5 0 99 0 150 C-42.125 150.25 -42.125 150.25 -55.40673828 150.29785156 C-59.34913063 150.33108775 -59.34913063 150.33108775 -63.29147339 150.36956787 C-65.04199769 150.38414413 -66.79259749 150.39095192 -68.54318237 150.39154053 C-71.20132888 150.39396323 -73.85819013 150.42133901 -76.51611328 150.45410156 C-77.67819652 150.44656546 -77.67819652 150.44656546 -78.86375618 150.43887711 C-84.04596437 150.5386963 -87.02287055 151.69939185 -91 155 C-93.4194197 158.62912955 -93.71985285 161.77376713 -93 166 C-90.88994386 170.86760243 -87.52560187 172.8128204 -83 175.1875 C-82.29649414 175.56986816 -81.59298828 175.95223633 -80.86816406 176.34619141 C-78.58681222 177.57988167 -76.29523725 178.79235948 -74 180 C-73.24525391 180.39880371 -72.49050781 180.79760742 -71.71289062 181.20849609 C-68.60656337 182.84838795 -65.49825115 184.48430926 -62.38452148 186.11010742 C-55.36605296 189.78006725 -48.42468452 193.58311398 -41.49707031 197.42138672 C-40.70526367 197.8598291 -39.91345703 198.29827148 -39.09765625 198.75 C-38.05363647 199.33007812 -38.05363647 199.33007812 -36.98852539 199.921875 C-35.01543268 200.99163282 -33.00748134 201.99625933 -31 203 C-64 203 -97 203 -131 203 C-131 182.54 -131 162.08 -131 141 C-129.02 143.475 -129.02 143.475 -127 146 C-124.37228899 148.72155783 -123.19459966 148.98442372 -119.33984375 149.29296875 C-114.67885708 149.21446016 -111.35453017 147.69675553 -107.3125 145.5 C-106.62768555 145.1405127 -105.94287109 144.78102539 -105.23730469 144.41064453 C-103.14433538 143.29727017 -101.07032702 142.15486281 -99 141 C-98.04262939 140.47164551 -98.04262939 140.47164551 -97.06591797 139.93261719 C-87.09696305 134.55349973 -87.09696305 134.55349973 -81.40176105 125.04793262 C-80.72344041 121.59026802 -80.85582683 118.08948261 -80.8581543 114.57885742 C-80.85467987 113.73120316 -80.85120544 112.88354889 -80.84762573 112.01020813 C-80.84028101 110.17141054 -80.8349288 108.33260415 -80.83133507 106.49379539 C-80.82415711 103.58045171 -80.80848055 100.66727523 -80.78999329 97.75398254 C-80.73758609 89.47134693 -80.68955323 81.18880374 -80.67407227 72.90600586 C-80.66397798 67.83727521 -80.63461803 62.76896685 -80.59275246 57.70040321 C-80.58045966 55.77199819 -80.57531805 53.84353348 -80.57755089 51.91509056 C-80.57990996 49.21271231 -80.55769229 46.511541 -80.5300293 43.80932617 C-80.53993141 42.62220535 -80.53993141 42.62220535 -80.55003357 41.41110229 C-80.43933062 34.8024135 -78.49492887 30.4241212 -73.66015625 25.7265625 C-70.65336354 23.77501716 -67.81520127 22.58370539 -64.4375 21.375 C-63.76404541 21.13120605 -63.09059082 20.88741211 -62.39672852 20.63623047 C-60.83772595 20.07392269 -59.27695527 19.51650295 -57.71484375 18.96289062 C-54.65000677 17.87586571 -51.5906252 16.77417608 -48.53125 15.671875 C-42.5470794 13.51996274 -36.55618922 11.38753576 -30.56201172 9.26367188 C-28.22415735 8.43428639 -25.88721006 7.60233869 -23.55126953 6.76757812 C-20.36963145 5.6306454 -17.18525919 4.50174092 -14 3.375 C-13.04536865 3.03227051 -12.0907373 2.68954102 -11.10717773 2.33642578 C-10.22618408 2.02688965 -9.34519043 1.71735352 -8.4375 1.3984375 C-7.67308594 1.12692871 -6.90867187 0.85541992 -6.12109375 0.57568359 C-4 0 -4 0 0 0 Z " fill="#FEFDFD" transform="translate(131,45)"/>
<path d="M0 0 C14.20401623 -0.07020008 28.4080054 -0.12284222 42.61215973 -0.15543652 C49.20797245 -0.17108142 55.80366849 -0.19229861 62.39941406 -0.22631836 C68.76660812 -0.25895315 75.13369005 -0.27686186 81.5009613 -0.28463173 C83.92819483 -0.29016779 86.35542233 -0.30097834 88.78260803 -0.31719017 C92.18658635 -0.33901868 95.59010339 -0.34196458 98.99414062 -0.34057617 C99.99395966 -0.351362 100.99377869 -0.36214783 102.02389526 -0.3732605 C109.77349078 -0.33913618 116.69611577 1.18914098 123 6 C128.34660138 12.10294986 130.1360713 16.15288529 130.09765625 24.296875 C130.09443359 25.50214844 130.09121094 26.70742188 130.08789062 27.94921875 C130.07951172 29.20347656 130.07113281 30.45773438 130.0625 31.75 C130.05798828 33.01972656 130.05347656 34.28945313 130.04882812 35.59765625 C130.03704556 38.73181836 130.02059416 41.86588541 130 45 C125.28066765 46.66296919 120.56083364 48.32450574 115.84066772 49.98510742 C113.31183435 50.8752343 110.78348 51.76671294 108.25512695 52.65820312 C100.30778975 55.45689626 92.35569322 58.23486822 84.3671875 60.9140625 C83.05034579 61.358151 81.73353184 61.80232182 80.41674805 62.24658203 C77.99401266 63.06087489 75.5685159 63.86701385 73.13989258 64.66357422 C61.02330324 68.66562684 61.02330324 68.66562684 52.86411762 77.96015358 C51.3611881 81.50798702 51.45449165 84.94108389 51.50170898 88.74584961 C51.49619019 89.59233566 51.49067139 90.43882172 51.48498535 91.31095886 C51.47570143 93.13822555 51.47553021 94.96555697 51.48357964 96.79282951 C51.49625916 99.6901395 51.48487424 102.58650369 51.46754456 105.48377991 C51.44088493 110.59184381 51.4352472 115.69967434 51.43664551 120.80780029 C51.43887651 128.97917913 51.42463599 137.15026886 51.38105965 145.32153511 C51.37126001 148.16657503 51.37991857 151.01115578 51.38975525 153.85618591 C51.38360749 155.6123789 51.37669458 157.36856943 51.36889648 159.12475586 C51.37661575 159.90786133 51.38433502 160.6909668 51.39228821 161.49780273 C51.33796054 167.45777445 50.28560147 173.00551837 46.57128906 177.87182617 C41.33057009 182.02771961 35.65141776 185.18661711 29.75 188.3125 C28.75742187 188.84939453 27.76484375 189.38628906 26.7421875 189.93945312 C14.81762767 196.3460764 14.81762767 196.3460764 8 195 C4.12566847 192.6591037 1.44232828 190.32698484 0 186 C-0.09334183 183.51642297 -0.13037215 181.06140244 -0.12025452 178.57795715 C-0.12110894 177.81585314 -0.12196337 177.05374913 -0.12284368 176.26855105 C-0.12449464 173.70741203 -0.11898338 171.14633809 -0.11352539 168.58520508 C-0.11324341 166.75227358 -0.11340147 164.91934196 -0.1139679 163.08641052 C-0.11425545 158.10326617 -0.10836553 153.12014577 -0.10139394 148.137007 C-0.09515338 142.93197135 -0.09455604 137.72693518 -0.09336853 132.52189636 C-0.09025729 122.66218566 -0.08204669 112.80248602 -0.07201904 102.9427802 C-0.06085148 91.71922554 -0.05534583 80.49567036 -0.05032361 69.27211154 C-0.03986392 46.18140156 -0.02226847 23.0907014 0 0 Z " fill="#B02534" transform="translate(0,0)"/>
<path d="M0 0 C1.32 0 2.64 0 4 0 C4 34.65 4 69.3 4 105 C3.34 105 2.68 105 2 105 C2 106.98 2 108.96 2 111 C1.34 111 0.68 111 0 111 C0.01047363 111.81154541 0.02094727 112.62309082 0.03173828 113.45922852 C0.0734865 117.16028711 0.09938613 120.86129601 0.125 124.5625 C0.14175781 125.83931641 0.15851563 127.11613281 0.17578125 128.43164062 C0.22422227 137.75653668 -0.07202934 144.40478759 -6 152 C-6.66 152 -7.32 152 -8 152 C-8.33 152.99 -8.66 153.98 -9 155 C-9.66 155 -10.32 155 -11 155 C-11 155.66 -11 156.32 -11 157 C-25.03791387 160.93061588 -33.29979552 160.4222438 -46.12890625 153.22265625 C-47.94312161 152.17447622 -49.75420237 151.12085646 -51.5625 150.0625 C-61.19886906 144.50075617 -70.97876168 139.2992025 -80.92602539 134.31469727 C-82.4225061 133.55370728 -82.4225061 133.55370728 -83.94921875 132.77734375 C-84.82924561 132.33640381 -85.70927246 131.89546387 -86.6159668 131.44116211 C-90.35449114 129.18120213 -92.60816172 127.17551484 -94 123 C-94.75040308 115.37090201 -94.75040308 115.37090201 -91.75 111.625 C-86.90929392 107.00432601 -83.30284413 106.71257862 -76.74316406 106.77294922 C-75.47863718 106.77258761 -75.47863718 106.77258761 -74.1885643 106.7722187 C-71.46414324 106.77370954 -68.73999701 106.78893179 -66.015625 106.8046875 C-64.33186983 106.80762865 -62.64811283 106.80966865 -60.96435547 106.81079102 C-54.72620906 106.82127006 -48.48810182 106.84919252 -42.25 106.875 C-28.3075 106.91625 -14.365 106.9575 0 107 C0 71.69 0 36.38 0 0 Z " fill="#C31929" transform="translate(131,88)"/>
<path d="M0 0 C33.99 0 67.98 0 103 0 C103 0.33 103 0.66 103 1 C101.80375 1.165 100.6075 1.33 99.375 1.5 C93.46507552 2.7988845 88.65535784 5.87257588 83.52734375 8.9296875 C80.5014462 10.73134202 77.41963617 12.33634167 74.25 13.875 C68.59688041 16.64962825 63.1173668 19.68162661 57.62695312 22.76074219 C51.83894095 25.99830712 46.01259198 29.1587586 40.16772461 32.29248047 C35.73844274 34.66737794 31.31619543 37.05521964 26.89404297 39.44335938 C24.42615344 40.77078165 21.95105918 42.08300839 19.47265625 43.390625 C11.51353159 47.65820866 5.0879657 51.91625742 1.5625 60.5 C1.376875 61.325 1.19125 62.15 1 63 C0.67 63 0.34 63 0 63 C0 42.21 0 21.42 0 0 Z " fill="#FDFDFD" transform="translate(0,0)"/>
<path d="M0 0 C0.33 0 0.66 0 1 0 C1 13.2 1 26.4 1 40 C-30.35 40 -61.7 40 -94 40 C-94 39.67 -94 39.34 -94 39 C-93.33395752 38.82984375 -92.66791504 38.6596875 -91.98168945 38.484375 C-75.11026104 34.16492171 -58.28980625 29.69177155 -41.52148438 24.98632812 C-39.17759186 24.32983022 -36.8325361 23.67747106 -34.48632812 23.02929688 C-31.17525934 22.11362936 -27.86847712 21.18386016 -24.5625 20.25 C-23.57999268 19.98058594 -22.59748535 19.71117187 -21.58520508 19.43359375 C-13.89789944 17.23199171 -8.25530261 14.24954904 -3 8 C-1.77286964 5.36412398 -0.89460751 2.77799173 0 0 Z " fill="#FDFDFC" transform="translate(202,208)"/>
<path d="M0 0 C30.69 0 61.38 0 93 0 C93 13.2 93 26.4 93 40 C91 37 91 37 89.875 34.25 C82.1768421 20.9065263 65.58751356 19.11850322 51.875 15.4375 C49.59120098 14.83182328 47.30734844 14.22634832 45.0234375 13.62109375 C40.81793945 12.50035218 36.64701665 11.32363682 32.5 10 C28.17062187 8.64534056 23.82924452 7.38348901 19.44921875 6.203125 C18.25941406 5.88214844 17.06960937 5.56117188 15.84375 5.23046875 C10.56400361 3.81463932 5.28312927 2.4031556 0 1 C0 0.67 0 0.34 0 0 Z " fill="#FDFCFB" transform="translate(110,0)"/>
<path d="M0 0 C1.32 0 2.64 0 4 0 C4 34.65 4 69.3 4 105 C3.34 105 2.68 105 2 105 C2 106.98 2 108.96 2 111 C1.34 111 0.68 111 0 111 C0 120.24 0 129.48 0 139 C-0.33 139 -0.66 139 -1 139 C-1 128.77 -1 118.54 -1 108 C-18.49 108.33 -35.98 108.66 -54 109 C-54 109.66 -54 110.32 -54 111 C-58.01441875 111.96769416 -61.69062383 112.07145181 -65.8125 112 C-73.91159822 111.93610179 -81.92572784 112.40583543 -90 113 C-90.04898438 113.85464844 -90.09796875 114.70929688 -90.1484375 115.58984375 C-90.22320312 116.69457031 -90.29796875 117.79929687 -90.375 118.9375 C-90.44460937 120.03964844 -90.51421875 121.14179688 -90.5859375 122.27734375 C-90.72257812 123.17582031 -90.85921875 124.07429688 -91 125 C-91.99 125.495 -91.99 125.495 -93 126 C-94.24443369 122.26669892 -94.65860234 118.8711182 -94 115 C-91.92963091 111.2153653 -89.06104448 108.47275908 -85 107 C-82.21281286 106.81921432 -79.52877505 106.74731245 -76.74316406 106.77294922 C-75.47863718 106.77258761 -75.47863718 106.77258761 -74.1885643 106.7722187 C-71.46414324 106.77370954 -68.73999701 106.78893179 -66.015625 106.8046875 C-64.33186983 106.80762865 -62.64811283 106.80966865 -60.96435547 106.81079102 C-54.72620906 106.82127006 -48.48810182 106.84919252 -42.25 106.875 C-28.3075 106.91625 -14.365 106.9575 0 107 C0 71.69 0 36.38 0 0 Z " fill="#D63308" transform="translate(131,88)"/>
<path d="M0 0 C1.299375 0.5878125 1.299375 0.5878125 2.625 1.1875 C7.182198 4.66536163 10.92078007 9.29800878 12 15 C12.08120233 17.0976396 12.10755808 19.19768762 12.09765625 21.296875 C12.09282227 23.10478516 12.09282227 23.10478516 12.08789062 24.94921875 C12.07532227 26.83060547 12.07532227 26.83060547 12.0625 28.75 C12.05798828 30.01972656 12.05347656 31.28945313 12.04882812 32.59765625 C12.03704556 35.73181836 12.02059416 38.86588541 12 42 C9.03 42.66 6.06 43.32 3 44 C2 39.25 2 39.25 2 37 C4.31 37 6.62 37 9 37 C9.86963087 34.00293305 10.11763099 31.35043474 10.09765625 28.234375 C10.09443359 27.34492188 10.09121094 26.45546875 10.08789062 25.5390625 C10.07951172 24.61867188 10.07113281 23.69828125 10.0625 22.75 C10.05798828 21.81414063 10.05347656 20.87828125 10.04882812 19.9140625 C10.03706918 17.60930959 10.02063426 15.30468773 10 13 C7.36 13 4.72 13 2 13 C2 10.69 2 8.38 2 6 C-1.3 5.67 -4.6 5.34 -8 5 C-7.67 3.68 -7.34 2.36 -7 1 C-8.32 1 -9.64 1 -11 1 C-11.66 2.32 -12.32 3.64 -13 5 C-18.28 5 -23.56 5 -29 5 C-29.33 6.65 -29.66 8.3 -30 10 C-30.33 10.99 -30.66 11.98 -31 13 C-31.33 12.34 -31.66 11.68 -32 11 C-32.99 11.495 -32.99 11.495 -34 12 C-34 12.33 -34 12.66 -34 13 C-37.63 13.33 -41.26 13.66 -45 14 C-45.33 16.31 -45.66 18.62 -46 21 C-49.96 21 -53.92 21 -58 21 C-57 17 -57 17 -53.89453125 14.88671875 C-52.54159897 14.13944887 -51.18028609 13.40722164 -49.8125 12.6875 C-49.09795654 12.29868652 -48.38341309 11.90987305 -47.6472168 11.50927734 C-41.83125674 8.36964848 -35.93111873 5.39892263 -29.98828125 2.5078125 C-27.00609586 1.05587337 -27.00609586 1.05587337 -24.31640625 -0.65234375 C-16.75345768 -5.05237285 -7.55005844 -3.42311972 0 0 Z " fill="#710806" transform="translate(118,3)"/>
<path d="M0 0 C0.33 0 0.66 0 1 0 C1.06962887 10.94441678 1.1228767 21.88878053 1.15543652 32.83337402 C1.17106664 37.9158513 1.19225642 42.99817659 1.22631836 48.08056641 C1.25900646 52.98889655 1.27687296 57.89708085 1.28463173 62.80551147 C1.29015829 64.67453302 1.30095026 66.54354694 1.31719017 68.4125061 C1.3390902 71.03819794 1.3419617 73.66329347 1.34057617 76.2890625 C1.351362 77.05511307 1.36214783 77.82116364 1.3732605 78.61042786 C1.33965271 84.52847595 0.25646849 90.04368696 -3.42871094 94.87182617 C-8.66942991 99.02771961 -14.34858224 102.18661711 -20.25 105.3125 C-21.24257813 105.84939453 -22.23515625 106.38628906 -23.2578125 106.93945312 C-35.1482742 113.32775674 -35.1482742 113.32775674 -42 112 C-45.89496705 109.78068799 -48.53691471 107.42012823 -49.9375 103.125 C-49.958125 102.42375 -49.97875 101.7225 -50 101 C-47.36 101 -44.72 101 -42 101 C-42 103.64 -42 106.28 -42 109 C-39.36 109 -36.72 109 -34 109 C-34 107.02 -34 105.04 -34 103 C-32.2984375 102.7834375 -32.2984375 102.7834375 -30.5625 102.5625 C-27.19222799 102.38828522 -27.19222799 102.38828522 -26 101 C-25.030625 101.020625 -24.06125 101.04125 -23.0625 101.0625 C-19.88968786 101.35137574 -19.88968786 101.35137574 -18 99 C-17.83318891 95.91652174 -17.83318891 95.91652174 -18 93 C-17.16855469 92.97421875 -16.33710937 92.9484375 -15.48046875 92.921875 C-13.85044922 92.83679688 -13.85044922 92.83679688 -12.1875 92.75 C-11.10855469 92.70359375 -10.02960937 92.6571875 -8.91796875 92.609375 C-5.92000124 92.25114093 -5.92000124 92.25114093 -4.05078125 90.140625 C-2.64207693 87.90392308 -2.64207693 87.90392308 -4 85 C-3.34 85 -2.68 85 -2 85 C-1.12157288 67.02968758 -0.72664276 49.06244171 -0.46777344 31.07476807 C-0.41639692 27.55371571 -0.36133446 24.03272086 -0.30664062 20.51171875 C-0.20094853 13.67452941 -0.09913253 6.83728753 0 0 Z " fill="#C06283" transform="translate(50,83)"/>
<path d="M0 0 C1.01044795 3.03134384 1.05032949 4.74395943 0.87890625 7.88671875 C0.83056641 8.82451172 0.78222656 9.76230469 0.73242188 10.72851562 C0.67634766 11.70498047 0.62027344 12.68144531 0.5625 13.6875 C0.51029297 14.67556641 0.45808594 15.66363281 0.40429688 16.68164062 C0.27464694 19.12141676 0.13968258 21.56078105 0 24 C-0.66 24.33 -1.32 24.66 -2 25 C-2.40729228 27.32156597 -2.74438677 29.6568787 -3 32 C-1.68 32.33 -0.36 32.66 1 33 C1 35.64 1 38.28 1 41 C2.16402344 40.75443359 2.16402344 40.75443359 3.3515625 40.50390625 C8.0492078 39.855088 12.64013661 39.89359613 17.375 39.9375 C18.76525391 39.94426758 18.76525391 39.94426758 20.18359375 39.95117188 C22.45579709 39.96288426 24.72786388 39.97928628 27 40 C24.17568213 42.82431787 20.82373215 43.3794391 17.0703125 44.41796875 C15.89020096 44.75022209 15.89020096 44.75022209 14.68624878 45.08918762 C13.02111469 45.5556302 11.35499546 46.018568 9.68798828 46.47827148 C7.1386914 47.18371133 4.59477814 47.90657139 2.05078125 48.63085938 C0.43258946 49.08179917 -1.18589131 49.53170349 -2.8046875 49.98046875 C-3.5652243 50.19809372 -4.32576111 50.41571869 -5.10934448 50.63993835 C-8.82232845 51.6479069 -11.32756062 52.13950714 -15 51 C-14.236875 50.443125 -13.47375 49.88625 -12.6875 49.3125 C-7.22367549 44.6110696 -5.30466347 38.83395083 -4.74633789 31.80786133 C-4.58008513 28.05945634 -4.46588686 24.31347659 -4.375 20.5625 C-4.33632812 19.25861328 -4.29765625 17.95472656 -4.2578125 16.61132812 C-4.16393299 13.40769001 -4.07824846 10.20405168 -4 7 C-3.34 7 -2.68 7 -2 7 C-2 5.02 -2 3.04 -2 1 C-1.34 0.67 -0.68 0.34 0 0 Z " fill="#D63906" transform="translate(135,192)"/>
<path d="M0 0 C8.58 0 17.16 0 26 0 C26.06885239 5.21493112 26.12858954 10.42828712 26.16479492 15.64331055 C26.17988641 17.41745343 26.20036191 19.19155898 26.22631836 20.96557617 C26.26268641 23.51490487 26.27972238 26.06374059 26.29296875 28.61328125 C26.30845261 29.40712723 26.32393646 30.20097321 26.33988953 31.01887512 C26.34158304 36.55354548 26.34158304 36.55354548 24.5559082 38.88745117 C23.78573364 39.43816284 23.78573364 39.43816284 23 40 C21.82425289 42.09989652 21.82425289 42.09989652 21 44 C20.34 44 19.68 44 19 44 C18.67 44.99 18.34 45.98 18 47 C17.34 47 16.68 47 16 47 C16 47.66 16 48.32 16 49 C11.8803623 50.29243536 8.33168317 51.26252625 4 51 C4.33 50.34 4.66 49.68 5 49 C2.36 49 -0.28 49 -3 49 C-2.67 48.34 -2.34 47.68 -2 47 C-4.31 47 -6.62 47 -9 47 C-8 45 -8 45 -6.23535156 44.38110352 C-3.85434347 43.97516712 -1.64935012 43.88686314 0.765625 43.90234375 C1.65507813 43.90556641 2.54453125 43.90878906 3.4609375 43.91210938 C4.84152344 43.92467773 4.84152344 43.92467773 6.25 43.9375 C7.18585938 43.94201172 8.12171875 43.94652344 9.0859375 43.95117188 C11.39069041 43.96293082 13.69531227 43.97936574 16 44 C16.268125 43.195625 16.53625 42.39125 16.8125 41.5625 C17.204375 40.716875 17.59625 39.87125 18 39 C19.485 38.505 19.485 38.505 21 38 C21.33 37.34 21.66 36.68 22 36 C22.66 36 23.32 36 24 36 C24 25.11 24 14.22 24 3 C18.72 3.66 13.44 4.32 8 5 C8 3.68 8 2.36 8 1 C5.36 1 2.72 1 0 1 C0 0.67 0 0.34 0 0 Z " fill="#8C0A0D" transform="translate(104,196)"/>
<path d="M0 0 C0 2.31 0 4.62 0 7 C-2.97 7 -5.94 7 -9 7 C-9 8.65 -9 10.3 -9 12 C-9.99 12 -10.98 12 -12 12 C-12 12.66 -12 13.32 -12 14 C-13.60875 14.2165625 -13.60875 14.2165625 -15.25 14.4375 C-17.91662949 14.83749442 -20.41399729 15.27591924 -23 16 C-23.66 18.31 -24.32 20.62 -25 23 C-26.98 22.67 -28.96 22.34 -31 22 C-32.17571451 25.67410785 -32.07366746 29.16929183 -32 33 C-32.66 32.34 -33.32 31.68 -34 31 C-34.66 31.33 -35.32 31.66 -36 32 C-37.63023814 28.73952371 -37.4673535 26.62198965 -37 23 C-32.46430928 15.55483902 -25.29330135 11.95104948 -17.75 8.125 C-15.59854839 7.00339016 -13.44748832 5.88102886 -11.296875 4.7578125 C-10.35166992 4.2745752 -9.40646484 3.79133789 -8.43261719 3.29345703 C-2.2385806 0 -2.2385806 0 0 0 Z " fill="#B81B20" transform="translate(40,33)"/>
<path d="M0 0 C0.8296376 -0.00029205 1.65927521 -0.00058411 2.51405334 -0.00088501 C5.25198889 0.00050658 7.98965115 0.01605975 10.72753906 0.03173828 C12.62754162 0.03546902 14.5275461 0.0383157 16.42755127 0.04031372 C21.42528608 0.04794539 26.42290443 0.06758993 31.42059326 0.08972168 C36.52159042 0.11019011 41.62260642 0.11931758 46.72363281 0.12939453 C56.73019437 0.15083622 66.73666952 0.18496659 76.74316406 0.22705078 C76.74316406 0.55705078 76.74316406 0.88705078 76.74316406 1.22705078 C58.92316406 1.55705078 41.10316406 1.88705078 22.74316406 2.22705078 C22.74316406 2.88705078 22.74316406 3.54705078 22.74316406 4.22705078 C18.72874531 5.19474494 15.05254024 5.29850259 10.93066406 5.22705078 C2.83156584 5.16315257 -5.18256378 5.63288621 -13.25683594 6.22705078 C-13.30582031 7.08169922 -13.35480469 7.93634766 -13.40527344 8.81689453 C-13.48003906 9.92162109 -13.55480469 11.02634766 -13.63183594 12.16455078 C-13.73625 13.81777344 -13.73625 13.81777344 -13.84277344 15.50439453 C-13.97941406 16.40287109 -14.11605469 17.30134766 -14.25683594 18.22705078 C-14.91683594 18.55705078 -15.57683594 18.88705078 -16.25683594 19.22705078 C-17.50126963 15.4937497 -17.91543828 12.09816898 -17.25683594 8.22705078 C-13.20808916 0.82594167 -7.81915941 -0.07204227 0 0 Z " fill="#DA3649" transform="translate(54.2568359375,194.77294921875)"/>
<path d="M0 0 C7.55461629 -0.70972387 12.97392728 0.20444213 19 5 C24.53149614 10.86849906 26.13548929 15.27626977 26.09765625 23.296875 C26.09443359 24.50214844 26.09121094 25.70742188 26.08789062 26.94921875 C26.07951172 28.20347656 26.07113281 29.45773438 26.0625 30.75 C26.05798828 32.01972656 26.05347656 33.28945313 26.04882812 34.59765625 C26.03704556 37.73181836 26.02059416 40.86588541 26 44 C23.03 44.66 20.06 45.32 17 46 C16 41.25 16 41.25 16 39 C18.31 39 20.62 39 23 39 C23.86963087 36.00293305 24.11763099 33.35043474 24.09765625 30.234375 C24.09282227 28.90019531 24.09282227 28.90019531 24.08789062 27.5390625 C24.07951172 26.61867188 24.07113281 25.69828125 24.0625 24.75 C24.05798828 23.81414063 24.05347656 22.87828125 24.04882812 21.9140625 C24.03706918 19.60930959 24.02063426 17.30468773 24 15 C21.36 15 18.72 15 16 15 C16 12.69 16 10.38 16 8 C12.7 7.67 9.4 7.34 6 7 C6.33 5.68 6.66 4.36 7 3 C5.35 3 3.7 3 2 3 C2 3.66 2 4.32 2 5 C0.68 4.34 -0.64 3.68 -2 3 C-1.34 2.34 -0.68 1.68 0 1 C0 0.67 0 0.34 0 0 Z " fill="#6E0807" transform="translate(104,1)"/>
<path d="M0 0 C6.3724242 1.1126455 12.54284097 2.63806103 18.75 4.4375 C19.47050537 4.64270264 20.19101074 4.84790527 20.93334961 5.05932617 C26.82322325 6.79900584 32.22395748 8.8071937 36.6875 13.1875 C37.24824219 13.71730469 37.80898437 14.24710938 38.38671875 14.79296875 C43.1491076 21.3081012 43.40761557 27.73387125 43.1875 35.5 C43.16719727 36.87671875 43.16719727 36.87671875 43.14648438 38.28125 C43.11148097 40.52146803 43.06238869 42.76040594 43 45 C42.67 45 42.34 45 42 45 C41.93941406 43.75863281 41.87882812 42.51726563 41.81640625 41.23828125 C41.73196377 39.59634423 41.64731764 37.95441768 41.5625 36.3125 C41.52318359 35.49587891 41.48386719 34.67925781 41.44335938 33.83789062 C41.23101997 29.80344189 40.95552078 25.94252691 40 22 C39.34 22 38.68 22 38 22 C37.505 20.515 37.505 20.515 37 19 C36.01 18.67 35.02 18.34 34 18 C33.34 18.66 32.68 19.32 32 20 C31.67 17.03 31.34 14.06 31 11 C29.35 11.33 27.7 11.66 26 12 C25.67 11.01 25.34 10.02 25 9 C23.97519531 9.02320313 22.95039063 9.04640625 21.89453125 9.0703125 C20.53386149 9.08908036 19.1731838 9.10727947 17.8125 9.125 C16.80219727 9.15013672 16.80219727 9.15013672 15.77148438 9.17578125 C11.71192193 9.21538674 8.65001185 8.80020002 5 7 C5 6.34 5 5.68 5 5 C3.35 5 1.7 5 0 5 C0 3.35 0 1.7 0 0 Z " fill="#F08C0B" transform="translate(160,15)"/>
<path d="M0 0 C6.48825128 0.67815056 12.51663267 2.49878744 18.75 4.375 C20.80700393 4.98794562 22.86429451 5.5999301 24.921875 6.2109375 C25.92283203 6.50838867 26.92378906 6.80583984 27.95507812 7.11230469 C32.61943855 8.47211983 37.30682795 9.74377031 42 11 C42 11.33 42 11.66 42 12 C39.9174133 12.19561869 37.83388144 12.38119313 35.75 12.5625 C34.00976562 12.71912109 34.00976562 12.71912109 32.234375 12.87890625 C29 13 29 13 26.875 12.4375 C24.29193496 11.83478482 22.71374207 12.53171248 20.25 13.4375 C19.45078125 13.72496094 18.6515625 14.01242188 17.828125 14.30859375 C17.22484375 14.53675781 16.6215625 14.76492187 16 15 C16.875 10.25 16.875 10.25 18 8 C17.01 8 16.02 8 15 8 C14.34 7.34 13.68 6.68 13 6 C12.30840599 7.84725052 12.30840599 7.84725052 12 10 C12.99 11.485 12.99 11.485 14 13 C13.625 15.6875 13.625 15.6875 13 18 C11 15 11 15 9.625 11.625 C7.3445546 6.53785257 4.60811574 3.12693568 0 0 Z " fill="#F49607" transform="translate(118,3)"/>
<path d="M0 0 C1.98 0.99 1.98 0.99 4 2 C4 1.34 4 0.68 4 0 C4.99 0 5.98 0 7 0 C6.71125 0.70125 6.4225 1.4025 6.125 2.125 C5.75375 3.07375 5.3825 4.0225 5 5 C4.65533691 5.83418457 4.31067383 6.66836914 3.95556641 7.52783203 C2.67206016 12.1916097 2.64430186 16.61271936 2.5859375 21.4296875 C2.56657135 22.42001984 2.5472052 23.41035217 2.5272522 24.43069458 C2.46770447 27.5787101 2.4211703 30.72676268 2.375 33.875 C2.3367974 36.01564052 2.29774435 38.15626604 2.2578125 40.296875 C2.16202348 45.5311164 2.07690405 50.7654489 2 56 C1.34 56 0.68 56 0 56 C0 37.52 0 19.04 0 0 Z " fill="#BD191F" transform="translate(48,72)"/>
<path d="M0 0 C-3.20997966 3.20997966 -7.4089656 3.89328141 -11.6875 5.1875 C-12.57373047 5.47302734 -13.45996094 5.75855469 -14.37304688 6.05273438 C-19.72096592 7.67967348 -23.53601325 8.29311862 -29 7 C-27.68 4.69 -26.36 2.38 -25 0 C-18.84765625 -0.09765625 -18.84765625 -0.09765625 -17 0 C-16.67 0.33 -16.34 0.66 -16 1 C-13.92522297 0.93559081 -13.92522297 0.93559081 -11.5625 0.625 C-10.75941406 0.53476563 -9.95632812 0.44453125 -9.12890625 0.3515625 C-2.87567568 -0.68108108 -2.87567568 -0.68108108 0 0 Z " fill="#D73907" transform="translate(190,224)"/>
<path d="M0 0 C0 2.31 0 4.62 0 7 C-2.97 7 -5.94 7 -9 7 C-9 8.65 -9 10.3 -9 12 C-9.99 12 -10.98 12 -12 12 C-12 12.66 -12 13.32 -12 14 C-14.66666667 12.66666667 -17.33333333 11.33333333 -20 10 C-16.67193894 7.99111003 -13.33681552 5.99430665 -10 4 C-9.30132812 3.57460938 -8.60265625 3.14921875 -7.8828125 2.7109375 C-3.33857914 0 -3.33857914 0 0 0 Z M-18 14 C-14 15 -14 15 -14 15 Z " fill="#AB1619" transform="translate(40,33)"/>
<path d="M0 0 C7.5347385 -0.70785644 12.9827341 0.21461531 19 5 C20.98688171 7.24684754 22.43223796 9.42077857 24 12 C23.34 12.66 22.68 13.32 22 14 C22 13.01 22 12.02 22 11 C20.68 11.33 19.36 11.66 18 12 C17.77570313 11.35546875 17.55140625 10.7109375 17.3203125 10.046875 C16.17110544 7.75611148 16.17110544 7.75611148 13.6171875 7.390625 C12.71226563 7.34421875 11.80734375 7.2978125 10.875 7.25 C9.96492188 7.19328125 9.05484375 7.1365625 8.1171875 7.078125 C7.41851562 7.05234375 6.71984375 7.0265625 6 7 C6.33 5.68 6.66 4.36 7 3 C5.35 3 3.7 3 2 3 C2 3.66 2 4.32 2 5 C0.68 4.34 -0.64 3.68 -2 3 C-1.34 2.34 -0.68 1.68 0 1 C0 0.67 0 0.34 0 0 Z " fill="#660D07" transform="translate(104,1)"/>
<path d="M0 0 C7.26 0 14.52 0 22 0 C20.27520669 3.44958662 16.16463471 3.93071709 12.6875 5.125 C11.52831055 5.54072266 11.52831055 5.54072266 10.34570312 5.96484375 C6.58806398 7.27662491 4.06386359 8 0 8 C0 5.36 0 2.72 0 0 Z " fill="#A51516" transform="translate(72,56)"/>
<path d="M0 0 C0.33 0 0.66 0 1 0 C1.4330211 7.97079583 0.88379178 13.61154466 -4.5 19.9375 C-7 22 -7 22 -10 22 C-9.67 18.04 -9.34 14.08 -9 10 C-6.36 9.34 -3.72 8.68 -1 8 C-0.67 5.36 -0.34 2.72 0 0 Z " fill="#D63707" transform="translate(201,200)"/>
<path d="M0 0 C2.64 0 5.28 0 8 0 C8 2.64 8 5.28 8 8 C10.64 8 13.28 8 16 8 C16 6.02 16 4.04 16 2 C18.97 3.485 18.97 3.485 22 5 C18.95977538 9.14576085 15.43008513 10.24349513 10.546875 11.07421875 C6.71442171 10.96253683 4.89153877 9.41169452 2.2734375 6.73828125 C0.66168573 4.53819065 0.08009184 2.72312249 0 0 Z " fill="#B95A9C" transform="translate(0,184)"/>
<path d="M0 0 C0.66 0.33 1.32 0.66 2 1 C1.67 1.99 1.34 2.98 1 4 C1.99 4.33 2.98 4.66 4 5 C1.36 5.33 -1.28 5.66 -4 6 C-4.33 8.31 -4.66 10.62 -5 13 C-8.96 13 -12.92 13 -17 13 C-16 9 -16 9 -14.44946289 7.70385742 C-13.4709436 7.16015503 -13.4709436 7.16015503 -12.47265625 6.60546875 C-11.76302734 6.20779297 -11.05339844 5.81011719 -10.32226562 5.40039062 C-9.20368164 4.80000977 -9.20368164 4.80000977 -8.0625 4.1875 C-6.9497168 3.55811523 -6.9497168 3.55811523 -5.81445312 2.91601562 C-1.73150902 0.66910078 -1.73150902 0.66910078 0 0 Z " fill="#991211" transform="translate(77,11)"/>
<path d="M0 0 C5.52675903 0.63854985 10.62367351 1.93693354 15.9375 3.5625 C16.71673828 3.79646484 17.49597656 4.03042969 18.29882812 4.27148438 C20.20057187 4.84317421 22.10048226 5.42095691 24 6 C23.39414063 6.15082031 22.78828125 6.30164063 22.1640625 6.45703125 C20.5654103 6.85813713 18.96942628 7.26991216 17.375 7.6875 C16.199375 7.8421875 16.199375 7.8421875 15 8 C14.34 7.34 13.68 6.68 13 6 C12.30840599 7.84725052 12.30840599 7.84725052 12 10 C12.99 11.485 12.99 11.485 14 13 C13.625 15.6875 13.625 15.6875 13 18 C11 15 11 15 9.625 11.625 C7.3445546 6.53785257 4.60811574 3.12693568 0 0 Z " fill="#EE9F14" transform="translate(118,3)"/>
<path d="M0 0 C1.72089844 -0.02126953 1.72089844 -0.02126953 3.4765625 -0.04296875 C6.375 0.1875 6.375 0.1875 8.375 2.1875 C10.3681567 2.21125926 10.3681567 2.21125926 12.5 1.8125 C14.418125 1.503125 14.418125 1.503125 16.375 1.1875 C16.045 1.8475 15.715 2.5075 15.375 3.1875 C14.715 3.1875 14.055 3.1875 13.375 3.1875 C13.375 3.8475 13.375 4.5075 13.375 5.1875 C9.2553623 6.47993536 5.70668317 7.45002625 1.375 7.1875 C1.705 6.5275 2.035 5.8675 2.375 5.1875 C-0.265 5.1875 -2.905 5.1875 -5.625 5.1875 C-5.295 4.5275 -4.965 3.8675 -4.625 3.1875 C-6.935 3.1875 -9.245 3.1875 -11.625 3.1875 C-10.625 1.1875 -10.625 1.1875 -8.9765625 0.57421875 C-5.96293126 0.07862159 -3.05379961 0.01723363 0 0 Z " fill="#A71219" transform="translate(106.625,239.8125)"/>
<path d="M0 0 C4.83229566 -0.0947509 9.25758034 -0.0374043 14 1 C14.33 0.67 14.66 0.34 15 0 C17.33297433 -0.04092937 19.66705225 -0.04241723 22 0 C19.87738924 2.12261076 18.73100098 2.58711498 15.9375 3.5078125 C14.74253906 3.90419922 14.74253906 3.90419922 13.5234375 4.30859375 C12.69070312 4.57800781 11.85796875 4.84742188 11 5.125 C10.16726562 5.40214844 9.33453125 5.67929687 8.4765625 5.96484375 C2.28086515 8 2.28086515 8 0 8 C0 5.36 0 2.72 0 0 Z " fill="#9B1111" transform="translate(96,48)"/>
<path d="M0 0 C-0.99 0.99 -1.98 1.98 -3 3 C-2.67 3.99 -2.34 4.98 -2 6 C-9.92 6 -17.84 6 -26 6 C-26 5.67 -26 5.34 -26 5 C-22.04454668 3.96777523 -18.08524752 2.95116154 -14.125 1.9375 C-12.99707031 1.64294922 -11.86914062 1.34839844 -10.70703125 1.04492188 C-9.63066406 0.77099609 -8.55429688 0.49707031 -7.4453125 0.21484375 C-6.45031738 -0.04176025 -5.45532227 -0.29836426 -4.43017578 -0.56274414 C-2 -1 -2 -1 0 0 Z " fill="#F7F1EC" transform="translate(134,242)"/>
<path d="M0 0 C8.58 0 17.16 0 26 0 C26 0.66 26 1.32 26 2 C16.93453875 6.44720741 9.24930815 3.87756254 0 1 C0 0.67 0 0.34 0 0 Z " fill="#FAF9F5" transform="translate(110,0)"/>
<path d="M0 0 C5.28 0 10.56 0 16 0 C16 6 16 6 14 9 C7.07 5.04 7.07 5.04 0 1 C0 0.67 0 0.34 0 0 Z " fill="#E11F37" transform="translate(56,224)"/>
<path d="M0 0 C0.77085938 0.17144531 1.54171875 0.34289062 2.3359375 0.51953125 C4.625 1.1875 4.625 1.1875 8.625 3.1875 C0.705 3.6825 0.705 3.6825 -7.375 4.1875 C-7.49875 6.146875 -7.6225 8.10625 -7.75 10.125 C-7.9609375 13.46484375 -7.9609375 13.46484375 -8.375 16.1875 C-9.035 16.5175 -9.695 16.8475 -10.375 17.1875 C-11.61800105 13.45849684 -12.0461674 10.05400786 -11.375 6.1875 C-8.48322244 1.15925992 -5.73285683 -1.3236995 0 0 Z " fill="#F02544" transform="translate(48.375,196.8125)"/>
<path d="M0 0 C0 0.33 0 0.66 0 1 C-2.31 1 -4.62 1 -7 1 C-7.144375 1.763125 -7.28875 2.52625 -7.4375 3.3125 C-8 6 -8 6 -9 9 C-9.33 8.34 -9.66 7.68 -10 7 C-10.99 7.495 -10.99 7.495 -12 8 C-15 9 -15 9 -18 8 C-17.63302158 5.35210956 -17.33134019 4.27016969 -15.22265625 2.55078125 C-14.15337891 1.93783203 -14.15337891 1.93783203 -13.0625 1.3125 C-12.35222656 0.89613281 -11.64195313 0.47976562 -10.91015625 0.05078125 C-6.57872529 -2.33194867 -4.75482614 -1.49688971 0 0 Z " fill="#870C0C" transform="translate(96,7)"/>
<path d="M0 0 C0.33 0 0.66 0 1 0 C1.11647041 4.54144994 1.18734502 9.08251394 1.25 13.625 C1.28351562 14.91019531 1.31703125 16.19539063 1.3515625 17.51953125 C1.47376043 29.31163114 1.47376043 29.31163114 -3 34 C-6.4 37 -6.4 37 -9 37 C-8.505 34.03 -8.505 34.03 -8 31 C-7.071875 30.87625 -7.071875 30.87625 -6.125 30.75 C-3.84284382 30.18113701 -3.84284382 30.18113701 -2.6875 28.0625 C-2.460625 27.381875 -2.23375 26.70125 -2 26 C-2.33 25.34 -2.66 24.68 -3 24 C-2.34 24 -1.68 24 -1 24 C-0.67 16.08 -0.34 8.16 0 0 Z " fill="#BE3F6A" transform="translate(49,144)"/>
<path d="M0 0 C0.66 0 1.32 0 2 0 C2 0.66 2 1.32 2 2 C3.670625 1.7215625 3.670625 1.7215625 5.375 1.4375 C9 1 9 1 11 2 C11 2.33 11 2.66 11 3 C13.64 3.33 16.28 3.66 19 4 C17.68 4.33 16.36 4.66 15 5 C15 5.66 15 6.32 15 7 C9.06556211 7.31233884 5.24073059 6.88774951 0 4 C-0.33 3.01 -0.66 2.02 -1 1 C-0.67 0.67 -0.34 0.34 0 0 Z " fill="#B71B26" transform="translate(93,241)"/>
<path d="M0 0 C4.62 0 9.24 0 14 0 C14.33 2.31 14.66 4.62 15 7 C12 8 12 8 9.08203125 6.6015625 C8.00308594 5.94929687 6.92414062 5.29703125 5.8125 4.625 C4.72582031 3.97789062 3.63914063 3.33078125 2.51953125 2.6640625 C1.68808594 2.11492187 0.85664062 1.56578125 0 1 C0 0.67 0 0.34 0 0 Z " fill="#ED2943" transform="translate(41,216)"/>
<path d="M0 0 C0.33 0.66 0.66 1.32 1 2 C0.505 2.391875 0.01 2.78375 -0.5 3.1875 C-2.53130643 5.24988005 -2.53130643 5.24988005 -2 10 C-6.62 10 -11.24 10 -16 10 C-12.99228545 6.99228545 -10.02687582 5.24011216 -6.3125 3.3125 C-5.70599609 2.99216797 -5.09949219 2.67183594 -4.47460938 2.34179688 C-2.98565434 1.55628516 -1.49316953 0.77747058 0 0 Z " fill="#A21415" transform="translate(58,22)"/>
<path d="M0 0 C2.97 0 5.94 0 9 0 C9.33 0.99 9.66 1.98 10 3 C9.34 3 8.68 3 8 3 C8.33 3.99 8.66 4.98 9 6 C5.14243493 8.15305957 2.44870215 9.39253254 -2 9 C-1.34 8.01 -0.68 7.02 0 6 C0.16699232 2.87478167 0.16699232 2.87478167 0 0 Z " fill="#BB4D83" transform="translate(32,176)"/>
<path d="M0 0 C4.62 0 9.24 0 14 0 C14 0.99 14 1.98 14 3 C14.66 3.33 15.32 3.66 16 4 C11.86010363 6.55440415 11.86010363 6.55440415 9 7 C5.69280597 5.77550094 2.88664734 4.00952547 0 2 C0 1.34 0 0.68 0 0 Z " fill="#D72133" transform="translate(72,232)"/>
<path d="M0 0 C3.41664873 -0.02908357 6.8332655 -0.04682691 10.25 -0.0625 C11.70212891 -0.07506836 11.70212891 -0.07506836 13.18359375 -0.08789062 C14.11816406 -0.09111328 15.05273438 -0.09433594 16.015625 -0.09765625 C16.87446289 -0.10289307 17.73330078 -0.10812988 18.61816406 -0.11352539 C20.88670744 -0.00539986 22.82631715 0.36417577 25 1 C24.67 1.99 24.34 2.98 24 4 C22.845 3.979375 21.69 3.95875 20.5 3.9375 C16.25649453 3.92992231 12.19823356 4.40025235 8 5 C8 3.68 8 2.36 8 1 C5.36 1 2.72 1 0 1 C0 0.67 0 0.34 0 0 Z " fill="#A30A14" transform="translate(104,196)"/>
<path d="M0 0 C1.76923828 0.01353516 1.76923828 0.01353516 3.57421875 0.02734375 C4.47785156 0.03894531 5.38148437 0.05054688 6.3125 0.0625 C3.84868323 2.52631677 1.54006913 3.32543791 -1.6875 4.625 C-5.73478325 6.23913682 -5.73478325 6.23913682 -9.6875 8.0625 C-9.6875 5.7525 -9.6875 3.4425 -9.6875 1.0625 C-6.26517028 -0.07827657 -3.60076783 -0.03565117 0 0 Z " fill="#AC181A" transform="translate(65.6875,63.9375)"/>
<path d="M0 0 C0.66 0 1.32 0 2 0 C1.46450888 4.55167451 -0.08616 7.47272 -3 11 C-6.01216087 12.940392 -8.79017073 14.15510632 -12.4375 13.6875 C-12.953125 13.460625 -13.46875 13.23375 -14 13 C-13.67 12.34 -13.34 11.68 -13 11 C-11.35 11 -9.7 11 -8 11 C-7.5978125 9.7934375 -7.5978125 9.7934375 -7.1875 8.5625 C-6.795625 7.716875 -6.40375 6.87125 -6 6 C-5.01 5.67 -4.02 5.34 -3 5 C-2.67 4.34 -2.34 3.68 -2 3 C-1.34 3 -0.68 3 0 3 C0 2.01 0 1.02 0 0 Z " fill="#950D16" transform="translate(128,229)"/>
<path d="M0 0 C3.3 0.33 6.6 0.66 10 1 C10 2.32 10 3.64 10 5 C7.03 5.66 4.06 6.32 1 7 C0 2.25 0 2.25 0 0 Z " fill="#890E0D" transform="translate(120,40)"/>
<path d="M0 0 C3.92719924 2.61813283 4.92421226 5.56910496 6 10 C6.32790029 13.51389629 6.28740874 16.97501458 6.1875 20.5 C6.17396484 21.4178125 6.16042969 22.335625 6.14648438 23.28125 C6.11148097 25.52146803 6.06238869 27.76040594 6 30 C5.67 30 5.34 30 5 30 C4.93941406 28.75863281 4.87882813 27.51726563 4.81640625 26.23828125 C4.73196377 24.59634423 4.64731764 22.95441768 4.5625 21.3125 C4.52318359 20.49587891 4.48386719 19.67925781 4.44335938 18.83789062 C4.23101997 14.80344189 3.95552078 10.94252691 3 7 C2.34 7 1.68 7 1 7 C0.01 5.02 -0.98 3.04 -2 1 C-1.34 0.67 -0.68 0.34 0 0 Z " fill="#E97F20" transform="translate(197,30)"/>
<path d="M0 0 C1.74216797 0.02707031 1.74216797 0.02707031 3.51953125 0.0546875 C4.39996094 0.07789062 5.28039062 0.10109375 6.1875 0.125 C6.1875 0.455 6.1875 0.785 6.1875 1.125 C4.90875 1.351875 3.63 1.57875 2.3125 1.8125 C-3.19918828 3.01297901 -7.89075159 5.43293719 -12.8125 8.125 C-13.1425 7.465 -13.4725 6.805 -13.8125 6.125 C-12.4925 5.795 -11.1725 5.465 -9.8125 5.125 C-9.8125 4.465 -9.8125 3.805 -9.8125 3.125 C-10.4725 2.795 -11.1325 2.465 -11.8125 2.125 C-7.73526266 0.17468308 -4.49557578 -0.09081971 0 0 Z " fill="#F0E8E6" transform="translate(96.8125,-0.12499999999999999)"/>
<path d="M0 0 C-0.33 0.66 -0.66 1.32 -1 2 C-2.65 2 -4.3 2 -6 2 C-6 2.66 -6 3.32 -6 4 C-4.68 4.33 -3.36 4.66 -2 5 C-10.57142857 6.42857143 -10.57142857 6.42857143 -14 4 C-14 3.34 -14 2.68 -14 2 C-12.04396149 1.47061343 -10.08507711 0.95173199 -8.125 0.4375 C-7.03445312 0.14746094 -5.94390625 -0.14257812 -4.8203125 -0.44140625 C-2 -1 -2 -1 0 0 Z " fill="#F6EEE6" transform="translate(166,233)"/>
<path d="M0 0 C0.66 0.33 1.32 0.66 2 1 C1.67 1.66 1.34 2.32 1 3 C0.92907158 5.2072923 0.91584975 7.41667452 0.9375 9.625 C0.94652344 10.81351563 0.95554687 12.00203125 0.96484375 13.2265625 C0.97644531 14.14179688 0.98804688 15.05703125 1 16 C-0.98 16 -2.96 16 -5 16 C-4 13 -4 13 -2.875 11.1875 C-1.67942018 8.19855046 -2.2994432 6.08244993 -3 3 C-2.34 3 -1.68 3 -1 3 C-0.67 2.01 -0.34 1.02 0 0 Z " fill="#F2FAF8" transform="translate(37,200)"/>
<path d="M0 0 C2.60444348 -0.05394705 5.20776998 -0.09364469 7.8125 -0.125 C8.55048828 -0.14175781 9.28847656 -0.15851563 10.04882812 -0.17578125 C13.91246426 -0.21074628 15.70903668 -0.19397555 19 2 C14.126739 3.5912689 10.19209404 4.21192221 5 4 C5 3.01 5 2.02 5 1 C3.35 1 1.7 1 0 1 C0 0.67 0 0.34 0 0 Z " fill="#D71D2C" transform="translate(72,196)"/>
<path d="M0 0 C3.33333333 0.66666667 6.66666667 1.33333333 10 2 C11.40185547 2.28037109 11.40185547 2.28037109 12.83203125 2.56640625 C13.54746094 2.70949219 14.26289063 2.85257813 15 3 C13 5 13 5 9.9609375 5.1953125 C8.77757812 5.17210937 7.59421875 5.14890625 6.375 5.125 C5.18648437 5.10695313 3.99796875 5.08890625 2.7734375 5.0703125 C1.85820312 5.04710937 0.94296875 5.02390625 0 5 C0 3.35 0 1.7 0 0 Z " fill="#F49205" transform="translate(160,15)"/>
<path d="M0 0 C1.32 0 2.64 0 4 0 C4 0.66 4 1.32 4 2 C5.32 2.33 6.64 2.66 8 3 C8.33 2.34 8.66 1.68 9 1 C9.66 1.99 10.32 2.98 11 4 C4.25 8 4.25 8 2 8 C1.34 6.68 0.68 5.36 0 4 C0.66 3.01 1.32 2.02 2 1 C1.34 0.67 0.68 0.34 0 0 Z " fill="#F5F4F2" transform="translate(8,40)"/>
<path d="M0 0 C1.32 0.33 2.64 0.66 4 1 C3.75 4.375 3.75 4.375 3 8 C0.9375 9.4375 0.9375 9.4375 -1 10 C-2.23076923 4.58461538 -2.23076923 4.58461538 -1.0625 1.625 C-0.5365625 0.820625 -0.5365625 0.820625 0 0 Z " fill="#EC7608" transform="translate(132,40)"/>
<path d="M0 0 C5.28 0 10.56 0 16 0 C16 0.99 16 1.98 16 3 C10.21101581 3.20674944 5.57067277 2.59162079 0 1 C0 0.67 0 0.34 0 0 Z " fill="#B2161F" transform="translate(96,197)"/>
<path d="M0 0 C-0.66 1.98 -1.32 3.96 -2 6 C-5.375 5.6875 -5.375 5.6875 -9 5 C-9.66 4.01 -10.32 3.02 -11 2 C-9.73392393 1.46770674 -8.46189588 0.94955456 -7.1875 0.4375 C-6.47980469 0.14746094 -5.77210937 -0.14257812 -5.04296875 -0.44140625 C-3 -1 -3 -1 0 0 Z " fill="#F2EBEA" transform="translate(75,65)"/>
<path d="M0 0 C0.33 0 0.66 0 1 0 C1.31199371 4.57590769 0.91247585 6.50502897 -2 10 C-2.70514846 12.14733927 -2.70514846 12.14733927 -3 14 C-4.65 13.67 -6.3 13.34 -8 13 C-7.59007812 12.56429687 -7.18015625 12.12859375 -6.7578125 11.6796875 C-3.38909998 7.95637366 -1.21759521 4.99214035 0 0 Z " fill="#F4E7DE" transform="translate(201,210)"/>
<path d="M0 0 C4 1 4 1 5.3125 2.9375 C5.539375 3.618125 5.76625 4.29875 6 5 C5.67 5.66 5.34 6.32 5 7 C4.34 7 3.68 7 3 7 C2.34 7.66 1.68 8.32 1 9 C0.67 6.03 0.34 3.06 0 0 Z " fill="#EE8004" transform="translate(191,26)"/>
<path d="M0 0 C-0.33 0.99 -0.66 1.98 -1 3 C-1.99 3 -2.98 3 -4 3 C-4.33 3.99 -4.66 4.98 -5 6 C-5.33 5.01 -5.66 4.02 -6 3 C-6.99 3 -7.98 3 -9 3 C-9.33 3.66 -9.66 4.32 -10 5 C-10.33 4.01 -10.66 3.02 -11 2 C-7.17010894 0.19769832 -4.21878192 -0.19622241 0 0 Z " fill="#F2EEED" transform="translate(118,50)"/>
<path d="M0 0 C2.97 0 5.94 0 9 0 C9.66 1.32 10.32 2.64 11 4 C8.03 3.67 5.06 3.34 2 3 C2 3.66 2 4.32 2 5 C0.68 4.34 -0.64 3.68 -2 3 C-1.34 2.34 -0.68 1.68 0 1 C0 0.67 0 0.34 0 0 Z " fill="#5D0301" transform="translate(104,1)"/>
<path d="M0 0 C0.33 0 0.66 0 1 0 C1.22174933 1.45635371 1.42698698 2.91522956 1.625 4.375 C1.74101563 5.18710937 1.85703125 5.99921875 1.9765625 6.8359375 C1.98429688 7.55007812 1.99203125 8.26421875 2 9 C1.34 9.66 0.68 10.32 0 11 C-0.69748583 12.31747324 -1.36959957 13.64914193 -2 15 C-2.21755666 9.5610835 -2.10428384 5.12919186 0 0 Z " fill="#BF292C" transform="translate(2,57)"/>
<path d="M0 0 C0 0.33 0 0.66 0 1 C-1.35544922 1.29003906 -1.35544922 1.29003906 -2.73828125 1.5859375 C-3.91777344 1.84632812 -5.09726563 2.10671875 -6.3125 2.375 C-7.48425781 2.63023438 -8.65601562 2.88546875 -9.86328125 3.1484375 C-13.12920445 3.85695531 -13.12920445 3.85695531 -16 6 C-16.99 5.34 -17.98 4.68 -19 4 C-13.03805597 -0.15529432 -7.08206207 -0.14453188 0 0 Z " fill="#711E1E" transform="translate(110,0)"/>
<path d="M0 0 C0.66 0 1.32 0 2 0 C1.46968862 4.5076467 -0.25221116 7.41954788 -3 11 C-3.66 11 -4.32 11 -5 11 C-4.37240135 8.07120629 -3.41377341 5.63904371 -2 3 C-1.34 3 -0.68 3 0 3 C0 2.01 0 1.02 0 0 Z " fill="#990F09" transform="translate(128,229)"/>
<path d="M0 0 C0.66 0.33 1.32 0.66 2 1 C1.67 1.99 1.34 2.98 1 4 C1.99 4.33 2.98 4.66 4 5 C0.37 5 -3.26 5 -7 5 C-4.7060466 3.27953495 -2.38585576 1.5905705 0 0 Z " fill="#93191C" transform="translate(77,11)"/>
<path d="M0 0 C0.33 0 0.66 0 1 0 C3.60869565 7.47826087 3.60869565 7.47826087 4 11 C3.34 11.66 2.68 12.32 2 13 C1.52014033 11.72942818 1.0411407 10.45853152 0.5625 9.1875 C0.16224609 8.12595703 0.16224609 8.12595703 -0.24609375 7.04296875 C-0.86225186 5.37327604 -1.43719235 3.68842296 -2 2 C-1.34 1.34 -0.68 0.68 0 0 Z " fill="#ED9109" transform="translate(128,8)"/>
<path d="M0 0 C1.1875 1.5625 1.1875 1.5625 2 4 C0.625 7.75 0.625 7.75 -1 11 C-1.33 11 -1.66 11 -2 11 C-2 8.36 -2 5.72 -2 3 C-1.34 3 -0.68 3 0 3 C0 2.01 0 1.02 0 0 Z " fill="#ED8703" transform="translate(133,21)"/>
<path d="M0 0 C2.475 0.99 2.475 0.99 5 2 C4.67 3.65 4.34 5.3 4 7 C2.0625 6.25 2.0625 6.25 0 5 C-0.8125 2.9375 -0.8125 2.9375 -1 1 C-0.67 0.67 -0.34 0.34 0 0 Z " fill="#E2253A" transform="translate(67,226)"/>
<path d="M0 0 C-2.95183101 2.95183101 -5.95511947 3.08663988 -10 4 C-10 3.01 -10 2.02 -10 1 C-6.21812119 -0.83691257 -4.05431692 -1.15837626 0 0 Z " fill="#D43B15" transform="translate(190,224)"/>
<path d="M0 0 C0.66 0.33 1.32 0.66 2 1 C1.67 1.66 1.34 2.32 1 3 C0.93003986 4.70702735 0.91559846 6.41668003 0.9375 8.125 C0.95103516 9.49011719 0.95103516 9.49011719 0.96484375 10.8828125 C0.97644531 11.58148438 0.98804688 12.28015625 1 13 C0.34 12.67 -0.32 12.34 -1 12 C-1.6328125 9.93359375 -1.6328125 9.93359375 -2.125 7.4375 C-2.29257812 6.61121094 -2.46015625 5.78492188 -2.6328125 4.93359375 C-2.75398438 4.29550781 -2.87515625 3.65742188 -3 3 C-2.34 3 -1.68 3 -1 3 C-0.67 2.01 -0.34 1.02 0 0 Z " fill="#F8E2E2" transform="translate(37,200)"/>
<path d="M0 0 C0.33 0.66 0.66 1.32 1 2 C0.01 2 -0.98 2 -2 2 C-1.67 2.99 -1.34 3.98 -1 5 C-2.32 5.33 -3.64 5.66 -5 6 C-5 5.34 -5 4.68 -5 4 C-6.32 4.33 -7.64 4.66 -9 5 C-9 4.34 -9 3.68 -9 3 C-6.03 2.01 -3.06 1.02 0 0 Z " fill="#F0E8E3" transform="translate(96,56)"/>
<path d="M0 0 C1.32 0.66 2.64 1.32 4 2 C2.68 4.97 1.36 7.94 0 11 C-0.33 11 -0.66 11 -1 11 C-1.14285714 3.57142857 -1.14285714 3.57142857 0 0 Z " fill="#F6F0EC" transform="translate(1,52)"/>
<path d="M0 0 C3.68266103 0.59950296 7.34543185 1.24758891 11 2 C9 4 9 4 6.375 4.125 C5.59125 4.08375 4.8075 4.0425 4 4 C4 3.34 4 2.68 4 2 C2.68 2 1.36 2 0 2 C0 1.34 0 0.68 0 0 Z " fill="#F19721" transform="translate(164,16)"/>
<path d="M0 0 C0 0.33 0 0.66 0 1 C-1.134375 0.979375 -2.26875 0.95875 -3.4375 0.9375 C-6.81575674 0.58422523 -6.81575674 0.58422523 -8 2 C-9.66617115 2.04063832 -11.33388095 2.042721 -13 2 C-7.81984888 -1.97144919 -6.38492168 -2.01006794 0 0 Z " fill="#7D1113" transform="translate(96,7)"/>
<path d="M0 0 C1.125 1.5625 1.125 1.5625 2 4 C1.125 7.75 1.125 7.75 0 11 C-2.40914637 7.38628044 -2 5.22199845 -2 1 C-1.34 0.67 -0.68 0.34 0 0 Z " fill="#B92026" transform="translate(15,45)"/>
<path d="M0 0 C3.45925163 1.2491742 6.14693203 2.67527795 9 5 C6.36 4.67 3.72 4.34 1 4 C0.67 2.68 0.34 1.36 0 0 Z " fill="#F7F0EB" transform="translate(44,219)"/>
<path d="M0 0 C0.66 0.66 1.32 1.32 2 2 C1.625 5.125 1.625 5.125 1 8 C0.01 8.33 -0.98 8.66 -2 9 C-1.7215625 7.824375 -1.7215625 7.824375 -1.4375 6.625 C-0.74037734 4.02910225 -0.74037734 4.02910225 -2 2 C-1.34 2 -0.68 2 0 2 C0 1.34 0 0.68 0 0 Z " fill="#B6446C" transform="translate(48,166)"/>
<path d="M0 0 C0.66 0.33 1.32 0.66 2 1 C2.625 3.0625 2.625 3.0625 3 5 C1.02 5.99 1.02 5.99 -1 7 C-1.33 6.34 -1.66 5.68 -2 5 C-1.0625 2.375 -1.0625 2.375 0 0 Z " fill="#AB1514" transform="translate(12,47)"/>
<path d="M0 0 C-2.93127462 1.95418308 -4.55834679 2.64700993 -8 3 C-8.66 2.34 -9.32 1.68 -10 1 C-3.375 -1.125 -3.375 -1.125 0 0 Z " fill="#F3E0D4" transform="translate(127,244)"/>
<path d="M0 0 C2.475 0.99 2.475 0.99 5 2 C2 4 2 4 -1 4 C-1.33 4.66 -1.66 5.32 -2 6 C-2.33 4.68 -2.66 3.36 -3 2 C-2.01 2 -1.02 2 0 2 C0 1.34 0 0.68 0 0 Z " fill="#FBF0F0" transform="translate(67,231)"/>
<path d="M0 0 C5.28089024 -0.30466674 6.577168 -0.317124 11 3 C7.37 2.67 3.74 2.34 0 2 C0 1.34 0 0.68 0 0 Z " fill="#DF182B" transform="translate(72,232)"/>
<path d="M0 0 C-0.99 1.485 -0.99 1.485 -2 3 C-5.125 3.1875 -5.125 3.1875 -8 3 C-8.33 2.34 -8.66 1.68 -9 1 C-2.25 -1.125 -2.25 -1.125 0 0 Z " fill="#F9EBE3" transform="translate(187,227)"/>
<path d="M0 0 C6.0546875 -0.1953125 6.0546875 -0.1953125 8 0 C8.66 0.66 9.32 1.32 10 2 C5.545 2.495 5.545 2.495 1 3 C0.67 2.01 0.34 1.02 0 0 Z " fill="#F7A31A" transform="translate(132,8)"/>
<path d="M0 0 C0.66 0 1.32 0 2 0 C2 2.31 2 4.62 2 7 C0.68 6.67 -0.64 6.34 -2 6 C-1.49396008 3.83125748 -1.00016187 2.00032373 0 0 Z " fill="#F2F0EC" transform="translate(54,74)"/>
<path d="M0 0 C3.63 0 7.26 0 11 0 C10.01 0.495 10.01 0.495 9 1 C9 1.66 9 2.32 9 3 C4.545 2.01 4.545 2.01 0 1 C0 0.67 0 0.34 0 0 Z " fill="#F5E9E0" transform="translate(110,0)"/>
<path d="M0 0 C4.455 0.99 4.455 0.99 9 2 C9 2.33 9 2.66 9 3 C5.7 3 2.4 3 -1 3 C-0.67 2.01 -0.34 1.02 0 0 Z " fill="#F9F6F3" transform="translate(91,245)"/>
<path d="M0 0 C1.98 0.99 3.96 1.98 6 3 C3 5 3 5 0.8125 4.625 C0.214375 4.41875 -0.38375 4.2125 -1 4 C-0.67 2.68 -0.34 1.36 0 0 Z " fill="#F8EDEA" transform="translate(73,234)"/>
<path d="M0 0 C0.33 0 0.66 0 1 0 C1.49230769 6.4 1.49230769 6.4 -1 9.4375 C-1.99 10.2109375 -1.99 10.2109375 -3 11 C-3 8 -3 8 -1 6 C-0.60235737 4.01178687 -0.26224651 2.01055661 0 0 Z " fill="#CD360D" transform="translate(130,227)"/>
<path d="M0 0 C0 1.32 0 2.64 0 4 C-1.98 4.99 -1.98 4.99 -4 6 C-4 4.35 -4 2.7 -4 1 C-2 0 -2 0 0 0 Z " fill="#E46A05" transform="translate(135,44)"/>
<path d="M0 0 C0.33 0.66 0.66 1.32 1 2 C-1.97 4.475 -1.97 4.475 -5 7 C-5.33 5.68 -5.66 4.36 -6 3 C-4.02 2.01 -2.04 1.02 0 0 Z " fill="#9B0C0F" transform="translate(58,22)"/>
</svg>
