<?xml version="1.0" encoding="UTF-8"?>
<svg version="1.1" xmlns="http://www.w3.org/2000/svg" width="225" height="225">
<path d="M0 0 C74.25 0 148.5 0 225 0 C225 74.25 225 148.5 225 225 C150.75 225 76.5 225 0 225 C0 150.75 0 76.5 0 0 Z " fill="#FDFEFE" transform="translate(0,0)"/>
<path d="M0 0 C21.12 0 42.24 0 64 0 C64 21.45 64 42.9 64 65 C55.70875 65.061875 55.70875 65.061875 47.25 65.125 C45.53200195 65.14320801 43.81400391 65.16141602 42.04394531 65.18017578 C17.12186508 65.33603066 17.12186508 65.33603066 7 58 C0.35239659 50.69545696 -0.30665707 41.45433236 -0.1953125 32.03125 C-0.19329834 31.21366211 -0.19128418 30.39607422 -0.18920898 29.55371094 C-0.1788428 26.5357492 -0.15092118 23.51786822 -0.125 20.5 C-0.08375 13.735 -0.0425 6.97 0 0 Z " fill="#3091FE" transform="translate(43,118)"/>
<path d="M0 0 C0.83724609 0.00201416 1.67449219 0.00402832 2.53710938 0.00610352 C5.62896294 0.01647322 8.72073767 0.04439491 11.8125 0.0703125 C22.2075 0.1321875 22.2075 0.1321875 32.8125 0.1953125 C32.8125 21.3153125 32.8125 42.4353125 32.8125 64.1953125 C11.6925 64.1953125 -9.4275 64.1953125 -31.1875 64.1953125 C-31.249375 57.3065625 -31.31125 50.4178125 -31.375 43.3203125 C-31.40231201 41.1664502 -31.42962402 39.01258789 -31.45776367 36.79345703 C-31.46653887 35.05501869 -31.47418035 33.31657411 -31.48046875 31.578125 C-31.49581665 30.7008374 -31.51116455 29.8235498 -31.52697754 28.91967773 C-31.53007074 21.48157232 -30.53145325 13.77521398 -25.8125 7.7578125 C-18.38160203 0.50384067 -9.90563666 -0.11419897 0 0 Z " fill="#4EBDFD" transform="translate(74.1875,42.8046875)"/>
<path d="M0 0 C9.838125 -0.0928125 9.838125 -0.0928125 19.875 -0.1875 C21.92444824 -0.21481201 23.97389648 -0.24212402 26.08544922 -0.27026367 C27.74185602 -0.27903986 29.39826938 -0.2866811 31.0546875 -0.29296875 C31.8887915 -0.30831665 32.72289551 -0.32366455 33.58227539 -0.33947754 C42.00812956 -0.34315267 50.46512218 1.39867615 57 7 C65.06882791 17.75843722 63.24897425 32.98613764 63.125 45.75 C63.08375 51.7725 63.0425 57.795 63 64 C42.21 64 21.42 64 0 64 C0 42.88 0 21.76 0 0 Z " fill="#3192FE" transform="translate(119,43)"/>
<path d="M0 0 C20.79 0 41.58 0 63 0 C63.04125 6.043125 63.0825 12.08625 63.125 18.3125 C63.14320801 20.19622314 63.16141602 22.07994629 63.18017578 24.02075195 C63.32228056 48.80601937 63.32228056 48.80601937 56 57 C48.9306719 62.77615833 39.99241412 63.30125588 31.25 63.1953125 C30.45207031 63.19329834 29.65414062 63.19128418 28.83203125 63.18920898 C25.88796127 63.17884649 22.94397407 63.15092496 20 63.125 C13.4 63.08375 6.8 63.0425 0 63 C0 42.21 0 21.42 0 0 Z " fill="#1465FE" transform="translate(119,119)"/>
<path d="M0 0 C1.32 0 2.64 0 4 0 C4.04990393 5.21035408 4.08595515 10.42056518 4.10986328 15.63110352 C4.11984339 17.39903186 4.13343228 19.16694403 4.15087891 20.93481445 C4.41776833 48.69916401 4.41776833 48.69916401 -3 57 C-10.00208503 62.72121582 -18.86368353 63.3026362 -27.53125 63.1953125 C-28.84603333 63.19106766 -28.84603333 63.19106766 -30.18737793 63.18673706 C-32.95839699 63.17563492 -35.72908035 63.15054954 -38.5 63.125 C-40.3906203 63.11495729 -42.28124571 63.10583371 -44.171875 63.09765625 C-48.78137729 63.07572835 -53.39063194 63.04126845 -58 63 C-58 61.35 -58 59.7 -58 58 C-27.92608084 56.83831995 -27.92608084 56.83831995 -16.10595703 57.03710938 C-12.43049724 57.14613205 -12.43049724 57.14613205 -9 56 C-7.86649466 53.98330173 -7.86649466 53.98330173 -7 52 C-6.34 52 -5.68 52 -5 52 C-4.67 51.01 -4.34 50.02 -4 49 C-3.34 49 -2.68 49 -2 49 C-2.01160156 47.87207031 -2.02320313 46.74414062 -2.03515625 45.58203125 C-2.0974265 36.66684787 -1.98417278 27.78133731 -1.5625 18.875 C-1.52326416 18.02397705 -1.48402832 17.1729541 -1.44360352 16.29614258 C-1.16465501 10.83228561 -0.65033829 5.43223752 0 0 Z " fill="#0B52FB" transform="translate(178,119)"/>
<path d="M0 0 C21.12 0 42.24 0 64 0 C64 21.45 64 42.9 64 65 C52.45 65 40.9 65 29 65 C29 64.67 29 64.34 29 64 C40.22 64 51.44 64 63 64 C63 43.21 63 22.42 63 1 C43.86 1.66 24.72 2.32 5 3 C5.0395242 14.33840294 5.0395242 14.33840294 5.09008789 25.67675781 C5.09300955 27.10221278 5.09555752 28.52766858 5.09765625 29.953125 C5.10277222 30.68837402 5.10788818 31.42362305 5.11315918 32.18115234 C5.11374345 35.6143015 5.00254511 38.70740994 4 42 C4 42.66 4 43.32 4 44 C3.34 44 2.68 44 2 44 C0 42 0 42 -0.24050903 40.16500854 C-0.23606781 39.42332428 -0.23162659 38.68164001 -0.22705078 37.91748047 C-0.22680908 37.06500732 -0.22656738 36.21253418 -0.22631836 35.33422852 C-0.21608643 34.43760498 -0.20585449 33.54098145 -0.1953125 32.6171875 C-0.19329834 31.79355713 -0.19128418 30.96992676 -0.18920898 30.12133789 C-0.17873023 27.03916876 -0.1508077 23.9570789 -0.125 20.875 C-0.08375 13.98625 -0.0425 7.0975 0 0 Z " fill="#62B1FB" transform="translate(43,118)"/>
<path d="M0 0 C0.33 0 0.66 0 1 0 C1 20.46 1 40.92 1 62 C-11.54 62 -24.08 62 -37 62 C-35.02 61.505 -35.02 61.505 -33 61 C-33 60.01 -33 59.02 -33 58 C-34.32 57.67 -35.64 57.34 -37 57 C-33.17254277 55.75993819 -29.36654408 55.87307798 -25.390625 55.90234375 C-24.66381531 55.9037587 -23.93700562 55.90517365 -23.18817139 55.90663147 C-20.87540506 55.91221208 -18.56273688 55.92476096 -16.25 55.9375 C-14.67838682 55.94251751 -13.10677211 55.94707998 -11.53515625 55.95117188 C-7.69006657 55.96217515 -3.8450499 55.97942639 0 56 C-0.16749756 54.91267578 -0.33499512 53.82535156 -0.50756836 52.70507812 C-1.17118773 47.36331928 -1.0228749 42.0900757 -0.87890625 36.71875 C-0.84348976 35.13761414 -0.84348976 35.13761414 -0.80735779 33.52453613 C-0.73124878 30.18286876 -0.64699957 26.84146467 -0.5625 23.5 C-0.50922641 21.22397089 -0.45648644 18.94792922 -0.40429688 16.671875 C-0.27570574 11.11442314 -0.14044431 5.55716428 0 0 Z " fill="#1675FB" transform="translate(105,120)"/>
<path d="M0 0 C2.125 0.375 2.125 0.375 4 1 C3.01 1.66 2.02 2.32 1 3 C1.99 3.33 2.98 3.66 4 4 C3.67 12.91 3.34 21.82 3 31 C2.67 31 2.34 31 2 31 C2 22.75 2 14.5 2 6 C-18.79 6 -39.58 6 -61 6 C-61 5.01 -61 4.02 -61 3 C-59.89792709 2.98786972 -59.89792709 2.98786972 -58.77359009 2.97549438 C-51.8574793 2.89762907 -44.94154454 2.81036306 -38.02569008 2.71247292 C-34.46996607 2.66247696 -30.91427224 2.61614756 -27.35839844 2.578125 C-23.27259361 2.53427667 -19.18715419 2.47461194 -15.1015625 2.4140625 C-13.82133209 2.40251129 -12.54110168 2.39096008 -11.22207642 2.37905884 C-10.04100311 2.35918915 -8.85992981 2.33931946 -7.64306641 2.31884766 C-6.59937897 2.30552399 -5.55569153 2.29220032 -4.4803772 2.2784729 C-1.82569038 2.24155741 -1.82569038 2.24155741 0 0 Z " fill="#DDE7FB" transform="translate(180,113)"/>
<path d="M0 0 C0.66 0 1.32 0 2 0 C4.52558509 9.68472393 4.22527215 19.19616514 4.125 29.125 C4.11495032 30.86197401 4.10582798 32.59895364 4.09765625 34.3359375 C4.07751499 38.55754653 4.0383398 42.77836183 4 47 C-5.9 47 -15.8 47 -26 47 C-26 46.67 -26 46.34 -26 46 C-17.42 45.67 -8.84 45.34 0 45 C-0.495 42.525 -0.495 42.525 -1 40 C-1 39.01 -1 38.02 -1 37 C-1.30216857 34.97465392 -1.63247634 32.95613879 -1.9765625 30.9375 C-2 29 -2 29 0 26 C0.117731 23.15435561 0.14118589 20.40234534 0.0625 17.5625 C0.02788003 16.04306802 -0.00221516 14.52352484 -0.02734375 13.00390625 C-0.05429321 11.99565796 -0.05429321 11.99565796 -0.08178711 10.96704102 C0.00580754 8.86032439 0.42377726 7.02341421 1 5 C0.01 4.67 -0.98 4.34 -2 4 C-1 1 -1 1 0 0 Z " fill="#1371FB" transform="translate(178,59)"/>
<path d="M0 0 C1.88146002 0.06336355 3.76297123 0.12522579 5.64453125 0.18554688 C10.22212845 0.33554215 14.7985519 0.50590501 19.375 0.6875 C19.375 1.0175 19.375 1.3475 19.375 1.6875 C11.455 2.1825 11.455 2.1825 3.375 2.6875 C3.375 3.0175 3.375 3.3475 3.375 3.6875 C-3.95833333 3.6875 -11.29166667 3.6875 -18.625 3.6875 C-19.96341672 3.99979724 -21.29639075 4.33580932 -22.625 4.6875 C-23.470625 4.81125 -24.31625 4.935 -25.1875 5.0625 C-27.67091938 5.47875893 -27.67091938 5.47875893 -29.125 7.1875 C-31.12401075 9.18651075 -32.87893258 9.31640981 -35.625 9.6875 C-35.625 10.3475 -35.625 11.0075 -35.625 11.6875 C-34.965 12.0175 -34.305 12.3475 -33.625 12.6875 C-34.615 13.1825 -34.615 13.1825 -35.625 13.6875 C-36.03229228 16.00906597 -36.36938677 18.3443787 -36.625 20.6875 C-37.285 20.6875 -37.945 20.6875 -38.625 20.6875 C-38.955 23.3275 -39.285 25.9675 -39.625 28.6875 C-42.44826111 24.45260834 -41.56003758 21.52769452 -40.625 16.6875 C-39.11686491 10.13245614 -36.28366014 6.30428116 -30.625 2.6875 C-21.25072258 -2.0312374 -10.13344914 -0.40658352 0 0 Z " fill="#5DD1FA" transform="translate(84.625,43.3125)"/>
<path d="M0 0 C5.74747403 -0.02475554 11.49491689 -0.04288638 17.24243164 -0.05493164 C19.19686423 -0.05995422 21.15129306 -0.06677349 23.10571289 -0.07543945 C25.91814093 -0.08759589 28.73051919 -0.09324913 31.54296875 -0.09765625 C32.41398727 -0.10281754 33.2850058 -0.10797882 34.18241882 -0.11329651 C38.25625539 -0.11367154 42.02589439 -0.02821533 46 1 C44.24135754 3.1793144 43.30604 3.93686419 40.51953125 4.51171875 C39.17955078 4.59873047 39.17955078 4.59873047 37.8125 4.6875 C36.46091797 4.78611328 36.46091797 4.78611328 35.08203125 4.88671875 C34.05142578 4.94279297 34.05142578 4.94279297 33 5 C33 4.67 33 4.34 33 4 C16.14148993 1.78837998 16.14148993 1.78837998 0 5 C0 3.35 0 1.7 0 0 Z " fill="#38A5FB" transform="translate(119,43)"/>
<path d="M0 0 C2 2 2 2 2.3125 5.5625 C2.13202812 11.76622082 0.59457575 17.06972409 -3.375 21.875 C-8.69092132 26.17836488 -12.26239948 27.4290169 -19 28 C-17.49270263 24.98540526 -14.90669065 24.37334321 -11.875 23.125 C-9.57968441 21.74781064 -8.97920598 20.44801496 -8 18 C-7.34 18 -6.68 18 -6 18 C-5.67 17.01 -5.34 16.02 -5 15 C-4.34 15 -3.68 15 -3 15 C-2.95101562 14.08476562 -2.90203125 13.16953125 -2.8515625 12.2265625 C-2.77679688 11.03804687 -2.70203125 9.84953125 -2.625 8.625 C-2.55539063 7.44164062 -2.48578125 6.25828125 -2.4140625 5.0390625 C-2 2 -2 2 0 0 Z " fill="#0A45F9" transform="translate(179,153)"/>
<path d="M0 0 C0.33 0 0.66 0 1 0 C1 19.14 1 38.28 1 58 C-12.86 58 -26.72 58 -41 58 C-41 57.67 -41 57.34 -41 57 C-40.03513672 56.96241577 -40.03513672 56.96241577 -39.05078125 56.92407227 C-26.35542936 56.42490588 -13.67639528 55.8582543 -1 55 C-1.00523682 54.18660156 -1.01047363 53.37320313 -1.01586914 52.53515625 C-1.11330168 34.99236676 -0.94009792 17.52432531 0 0 Z " fill="#33A6FD" transform="translate(105,48)"/>
<path d="M0 0 C12.54 0 25.08 0 38 0 C29.85503392 4.07248304 20.31153261 3.13308015 11.375 3.0625 C10.27542969 3.05798828 9.17585937 3.05347656 8.04296875 3.04882812 C5.36191997 3.03717139 2.68099068 3.02081017 0 3 C0 2.01 0 1.02 0 0 Z " fill="#0F5AFE" transform="translate(120,177)"/>
<path d="M0 0 C0.66 0.33 1.32 0.66 2 1 C1.875 2.875 1.875 2.875 1 5 C-2.0625 6.25 -2.0625 6.25 -5 7 C-5 7.66 -5 8.32 -5 9 C-4.34 9.33 -3.68 9.66 -3 10 C-3.99 10.495 -3.99 10.495 -5 11 C-5.40729228 13.32156597 -5.74438677 15.6568787 -6 18 C-6.66 18 -7.32 18 -8 18 C-8.33 20.64 -8.66 23.28 -9 26 C-11.82326111 21.76510834 -10.93503758 18.84019452 -10 14 C-8.47624696 7.37707341 -5.4590611 3.94847159 0 0 Z " fill="#68DCFA" transform="translate(54,46)"/>
<path d="M0 0 C6.6 0 13.2 0 20 0 C20 0.66 20 1.32 20 2 C26.93 2.495 26.93 2.495 34 3 C34 3.33 34 3.66 34 4 C24.1 4 14.2 4 4 4 C4 3.34 4 2.68 4 2 C2.68 1.67 1.36 1.34 0 1 C0 0.67 0 0.34 0 0 Z " fill="#1F7CFE" transform="translate(68,176)"/>
<path d="M0 0 C0.61875 0.165 1.2375 0.33 1.875 0.5 C6.25470729 1.20075317 10.57428989 1.07734251 15 1 C15 1.33 15 1.66 15 2 C17.475 2.495 17.475 2.495 20 3 C20 3.99 20 4.98 20 6 C12.80855403 7.39189277 7.37581385 6.89633069 1 3 C0.67 2.01 0.34 1.02 0 0 Z " fill="#2B86F7" transform="translate(52,175)"/>
<path d="M0 0 C3.16262391 4.74393587 3.11766119 8.79705426 2.87890625 14.39453125 C2.83056641 15.59658203 2.78222656 16.79863281 2.73242188 18.03710938 C2.67634766 19.28298828 2.62027344 20.52886719 2.5625 21.8125 C2.51029297 23.07771484 2.45808594 24.34292969 2.40429688 25.64648438 C2.27486616 28.76458806 2.13990871 31.88235178 2 35 C1.34 35 0.68 35 0 35 C0 23.45 0 11.9 0 0 Z " fill="#55D0F8" transform="translate(45,61)"/>
<path d="M0 0 C12.21 0 24.42 0 37 0 C37 1.32 37 2.64 37 4 C24.13 3.505 24.13 3.505 11 3 C11 2.67 11 2.34 11 2 C7.37 1.67 3.74 1.34 0 1 C0 0.67 0 0.34 0 0 Z " fill="#45C7F6" transform="translate(69,43)"/>
<path d="M0 0 C0.66 0 1.32 0 2 0 C2.33692785 1.60341555 2.66941093 3.20776555 3 4.8125 C3.185625 5.70582031 3.37125 6.59914063 3.5625 7.51953125 C4 10 4 10 4 13 C3.34 13 2.68 13 2 13 C2 15.64 2 18.28 2 21 C1.34 21 0.68 21 0 21 C-0.02712153 19.083412 -0.04645097 17.1667127 -0.0625 15.25 C-0.07410156 14.18265625 -0.08570313 13.1153125 -0.09765625 12.015625 C-0.01510087 9.46631499 0.25382442 7.42066409 1 5 C0.01 4.67 -0.98 4.34 -2 4 C-1 1 -1 1 0 0 Z " fill="#2682FA" transform="translate(178,59)"/>
<path d="M0 0 C2.79256219 0.11361602 5.58344118 0.2403589 8.375 0.375 C9.1690625 0.4059375 9.963125 0.436875 10.78125 0.46875 C16.7734375 0.7734375 16.7734375 0.7734375 19 3 C18.04738281 2.97679687 17.09476563 2.95359375 16.11328125 2.9296875 C14.85902344 2.91164062 13.60476562 2.89359375 12.3125 2.875 C11.07113281 2.85179687 9.82976562 2.82859375 8.55078125 2.8046875 C5.18762143 2.98967979 3.0014413 3.54232105 0 5 C0 3.35 0 1.7 0 0 Z " fill="#45B1FB" transform="translate(119,43)"/>
<path d="M0 0 C2.13586678 3.20380017 2.23132175 4.01939967 2.125 7.6875 C2.10695312 8.49574219 2.08890625 9.30398437 2.0703125 10.13671875 C2.03550781 11.05904297 2.03550781 11.05904297 2 12 C0.35 12.66 -1.3 13.32 -3 14 C-2.01 9.38 -1.02 4.76 0 0 Z " fill="#E4EEF4" transform="translate(181,157)"/>
<path d="M0 0 C1.46373047 0.16628906 1.46373047 0.16628906 2.95703125 0.3359375 C3.69308594 0.43132813 4.42914063 0.52671875 5.1875 0.625 C5.1875 0.955 5.1875 1.285 5.1875 1.625 C2.89809044 2.01354209 0.60585426 2.3854628 -1.6875 2.75 C-3.60175781 3.06324219 -3.60175781 3.06324219 -5.5546875 3.3828125 C-7.16730469 3.50269531 -7.16730469 3.50269531 -8.8125 3.625 C-9.4725 2.965 -10.1325 2.305 -10.8125 1.625 C-6.91531829 -0.24165742 -4.27165815 -0.51465761 0 0 Z " fill="#F3F9FD" transform="translate(66.8125,41.375)"/>
<path d="M0 0 C1.65 0 3.3 0 5 0 C5 1.32 5 2.64 5 4 C1.7 3.67 -1.6 3.34 -5 3 C-5 2.67 -5 2.34 -5 2 C-3.35 1.67 -1.7 1.34 0 1 C0 0.67 0 0.34 0 0 Z " fill="#166AF7" transform="translate(101,178)"/>
<path d="M0 0 C0.66 0.33 1.32 0.66 2 1 C0.68 3.31 -0.64 5.62 -2 8 C-2.66 6.68 -3.32 5.36 -4 4 C-2.68 3.67 -1.36 3.34 0 3 C0 2.01 0 1.02 0 0 Z " fill="#1546F3" transform="translate(177,168)"/>
</svg>
